<svg width="20" height="20" viewBox="0 0 20 20" fill="none" xmlns="http://www.w3.org/2000/svg">
<path d="M14.2965 9.99993C14.2965 9.31916 14.8461 8.76728 15.5241 8.76728H17.6724V11.2326H15.5241C14.8461 11.2326 14.2965 10.6807 14.2965 9.99993Z" fill="#017DE8"/>
<path d="M14.2965 9.99993C14.2965 9.31916 14.8461 8.76728 15.5241 8.76728H17.6724V11.2326H15.5241C14.8461 11.2326 14.2965 10.6807 14.2965 9.99993Z" fill="url(#paint0_linear_42581_958)" fill-opacity="0.4" style="mix-blend-mode:soft-light"/>
<path fill-rule="evenodd" clip-rule="evenodd" d="M3.55515 2.44995C2.19919 2.44995 1.09998 3.55371 1.09998 4.91526V15.0846C1.09998 16.4462 2.19919 17.55 3.55515 17.55H16.4448C17.8008 17.55 18.9 16.4462 18.9 15.0846V4.91526C18.9 3.55371 17.8008 2.44995 16.4448 2.44995H3.55515ZM15.5241 7.53463C14.1682 7.53463 13.0689 8.63838 13.0689 9.99993C13.0689 11.3615 14.1682 12.4652 15.5241 12.4652H18.9V7.53463H15.5241Z" fill="#017DE8"/>
<path fill-rule="evenodd" clip-rule="evenodd" d="M3.55515 2.44995C2.19919 2.44995 1.09998 3.55371 1.09998 4.91526V15.0846C1.09998 16.4462 2.19919 17.55 3.55515 17.55H16.4448C17.8008 17.55 18.9 16.4462 18.9 15.0846V4.91526C18.9 3.55371 17.8008 2.44995 16.4448 2.44995H3.55515ZM15.5241 7.53463C14.1682 7.53463 13.0689 8.63838 13.0689 9.99993C13.0689 11.3615 14.1682 12.4652 15.5241 12.4652H18.9V7.53463H15.5241Z" fill="url(#paint1_linear_42581_958)" fill-opacity="0.4" style="mix-blend-mode:soft-light"/>
<defs>
<linearGradient id="paint0_linear_42581_958" x1="1.09998" y1="2.44995" x2="15.9979" y2="20.0118" gradientUnits="userSpaceOnUse">
<stop stop-color="white"/>
<stop offset="1"/>
</linearGradient>
<linearGradient id="paint1_linear_42581_958" x1="1.09998" y1="2.44995" x2="15.9979" y2="20.0118" gradientUnits="userSpaceOnUse">
<stop stop-color="white"/>
<stop offset="1"/>
</linearGradient>
</defs>
</svg>
