<svg width="20" height="20" viewBox="0 0 20 20" fill="none" xmlns="http://www.w3.org/2000/svg">
<g clip-path="url(#clip0_42581_963)">
<path fill-rule="evenodd" clip-rule="evenodd" d="M6.39999 0.800049C4.63268 0.800049 3.19999 2.23274 3.19999 4.00005V4.34291C3.19999 4.79401 3.30453 5.22069 3.49071 5.60005H2.79999C1.69542 5.60005 0.799988 6.49548 0.799988 7.60005V8.80005C0.799988 9.42709 1.08855 9.98673 1.54012 10.3534C1.77513 10.5443 2.08456 10.6001 2.3873 10.6001H9.19999V5.6001H10.8V10.6001H17.6127C17.9154 10.6001 18.2248 10.5443 18.4599 10.3534C18.9114 9.98673 19.2 9.42709 19.2 8.80005V7.60005C19.2 6.49548 18.3046 5.60005 17.2 5.60005H16.5093C16.6954 5.22069 16.8 4.79401 16.8 4.34291V4.00005C16.8 2.23274 15.3673 0.800049 13.6 0.800049C12.1119 0.800049 10.7963 1.53881 9.99999 2.66959C9.2037 1.53881 7.88812 0.800049 6.39999 0.800049ZM18 12.2001H10.8V19.2H14.8C16.5673 19.2 18 17.7674 18 16V12.2001ZM9.19999 19.2V12.2001H1.99999L1.99999 16C1.99999 17.7674 3.43268 19.2 5.19999 19.2H9.19999ZM9.19999 5.6001L6.05713 5.60005C5.36283 5.60005 4.79999 5.03721 4.79999 4.34291V4.00005C4.79999 3.11639 5.51633 2.40005 6.39999 2.40005C7.94638 2.40005 9.19999 3.65365 9.19999 5.20005L9.19999 5.6001ZM10.8 5.20005L10.8 5.6001L13.9428 5.60005C14.6371 5.60005 15.2 5.03721 15.2 4.34291V4.00005C15.2 3.11639 14.4836 2.40005 13.6 2.40005C12.0536 2.40005 10.8 3.65365 10.8 5.20005Z" fill="#017DE8"/>
<path fill-rule="evenodd" clip-rule="evenodd" d="M6.39999 0.800049C4.63268 0.800049 3.19999 2.23274 3.19999 4.00005V4.34291C3.19999 4.79401 3.30453 5.22069 3.49071 5.60005H2.79999C1.69542 5.60005 0.799988 6.49548 0.799988 7.60005V8.80005C0.799988 9.42709 1.08855 9.98673 1.54012 10.3534C1.77513 10.5443 2.08456 10.6001 2.3873 10.6001H9.19999V5.6001H10.8V10.6001H17.6127C17.9154 10.6001 18.2248 10.5443 18.4599 10.3534C18.9114 9.98673 19.2 9.42709 19.2 8.80005V7.60005C19.2 6.49548 18.3046 5.60005 17.2 5.60005H16.5093C16.6954 5.22069 16.8 4.79401 16.8 4.34291V4.00005C16.8 2.23274 15.3673 0.800049 13.6 0.800049C12.1119 0.800049 10.7963 1.53881 9.99999 2.66959C9.2037 1.53881 7.88812 0.800049 6.39999 0.800049ZM18 12.2001H10.8V19.2H14.8C16.5673 19.2 18 17.7674 18 16V12.2001ZM9.19999 19.2V12.2001H1.99999L1.99999 16C1.99999 17.7674 3.43268 19.2 5.19999 19.2H9.19999ZM9.19999 5.6001L6.05713 5.60005C5.36283 5.60005 4.79999 5.03721 4.79999 4.34291V4.00005C4.79999 3.11639 5.51633 2.40005 6.39999 2.40005C7.94638 2.40005 9.19999 3.65365 9.19999 5.20005L9.19999 5.6001ZM10.8 5.20005L10.8 5.6001L13.9428 5.60005C14.6371 5.60005 15.2 5.03721 15.2 4.34291V4.00005C15.2 3.11639 14.4836 2.40005 13.6 2.40005C12.0536 2.40005 10.8 3.65365 10.8 5.20005Z" fill="url(#paint0_linear_42581_963)" fill-opacity="0.4" style="mix-blend-mode:soft-light"/>
</g>
<defs>
<linearGradient id="paint0_linear_42581_963" x1="0.799988" y1="0.800049" x2="19.2" y2="19.2" gradientUnits="userSpaceOnUse">
<stop stop-color="white"/>
<stop offset="1"/>
</linearGradient>
<clipPath id="clip0_42581_963">
<rect width="20" height="20" fill="white"/>
</clipPath>
</defs>
</svg>
