<svg width="20" height="20" viewBox="0 0 20 20" fill="none" xmlns="http://www.w3.org/2000/svg">
<path fill-rule="evenodd" clip-rule="evenodd" d="M7.12309 3.33328C7.12309 2.12689 8.1299 1.19995 9.3077 1.19995H10.6923C11.8701 1.19995 12.8769 2.12689 12.8769 3.33328V12.2222C12.8769 13.4286 11.8701 14.3555 10.6923 14.3555H9.3077C8.1299 14.3555 7.12309 13.4286 7.12309 12.2222V3.33328ZM14.0462 7.77773C14.0462 6.57133 15.053 5.6444 16.2308 5.6444H17.6154C18.7932 5.6444 19.8 6.57133 19.8 7.77773V14C19.8 15.2063 18.7932 16.1333 17.6154 16.1333H16.2308C15.053 16.1333 14.0462 15.2063 14.0462 14V7.77773ZM0.200012 10.4444C0.200012 9.238 1.20682 8.31106 2.38463 8.31106H3.76924C4.94705 8.31106 5.95386 9.238 5.95386 10.4444V16.6666C5.95386 17.873 4.94705 18.7999 3.76924 18.7999H2.38463C1.20682 18.7999 0.200012 17.873 0.200012 16.6666V10.4444Z" fill="#017DE8"/>
<path fill-rule="evenodd" clip-rule="evenodd" d="M7.12309 3.33328C7.12309 2.12689 8.1299 1.19995 9.3077 1.19995H10.6923C11.8701 1.19995 12.8769 2.12689 12.8769 3.33328V12.2222C12.8769 13.4286 11.8701 14.3555 10.6923 14.3555H9.3077C8.1299 14.3555 7.12309 13.4286 7.12309 12.2222V3.33328ZM14.0462 7.77773C14.0462 6.57133 15.053 5.6444 16.2308 5.6444H17.6154C18.7932 5.6444 19.8 6.57133 19.8 7.77773V14C19.8 15.2063 18.7932 16.1333 17.6154 16.1333H16.2308C15.053 16.1333 14.0462 15.2063 14.0462 14V7.77773ZM0.200012 10.4444C0.200012 9.238 1.20682 8.31106 2.38463 8.31106H3.76924C4.94705 8.31106 5.95386 9.238 5.95386 10.4444V16.6666C5.95386 17.873 4.94705 18.7999 3.76924 18.7999H2.38463C1.20682 18.7999 0.200012 17.873 0.200012 16.6666V10.4444Z" fill="url(#paint0_linear_42581_960)" fill-opacity="0.4" style="mix-blend-mode:soft-light"/>
<defs>
<linearGradient id="paint0_linear_42581_960" x1="0.200012" y1="1.19995" x2="17.6986" y2="20.687" gradientUnits="userSpaceOnUse">
<stop stop-color="white"/>
<stop offset="1"/>
</linearGradient>
</defs>
</svg>
