<svg width="20" height="20" viewBox="0 0 20 20" fill="none" xmlns="http://www.w3.org/2000/svg">
<path fill-rule="evenodd" clip-rule="evenodd" d="M9.47934 1.39255C9.77893 1.13575 10.221 1.13575 10.5206 1.39255L18.8 8.48917V16.8571C18.8 17.9302 17.9302 18.8 16.8571 18.8H12.2857C11.8439 18.8 11.4857 18.4418 11.4857 18V14.5714C11.4857 13.7509 10.8205 13.0857 9.99998 13.0857C9.17943 13.0857 8.51425 13.7509 8.51425 14.5714V18C8.51425 18.4418 8.15608 18.8 7.71425 18.8H3.14281C2.0698 18.8 1.19995 17.9302 1.19995 16.8571V8.48917L9.47934 1.39255Z" fill="#017DE8"/>
<path fill-rule="evenodd" clip-rule="evenodd" d="M9.47934 1.39255C9.77893 1.13575 10.221 1.13575 10.5206 1.39255L18.8 8.48917V16.8571C18.8 17.9302 17.9302 18.8 16.8571 18.8H12.2857C11.8439 18.8 11.4857 18.4418 11.4857 18V14.5714C11.4857 13.7509 10.8205 13.0857 9.99998 13.0857C9.17943 13.0857 8.51425 13.7509 8.51425 14.5714V18C8.51425 18.4418 8.15608 18.8 7.71425 18.8H3.14281C2.0698 18.8 1.19995 17.9302 1.19995 16.8571V8.48917L9.47934 1.39255Z" fill="url(#paint0_linear_42581_957)" fill-opacity="0.4" style="mix-blend-mode:soft-light"/>
<defs>
<linearGradient id="paint0_linear_42581_957" x1="1.19995" y1="1.19995" x2="18.8" y2="18.8" gradientUnits="userSpaceOnUse">
<stop stop-color="white"/>
<stop offset="1"/>
</linearGradient>
</defs>
</svg>
