<svg width="20" height="20" viewBox="0 0 20 20" fill="none" xmlns="http://www.w3.org/2000/svg">
<path d="M2.99978 1.19995C1.89533 1.19995 1 2.09529 1 3.19973V7.01973C1.01147 8.17879 2.03275 9.2 3.3999 9.2C4.77481 9.2 5.7999 8.16718 5.7999 7H7.3999C7.3999 8.16718 8.425 9.2 9.7999 9.2C11.1748 9.2 12.1999 8.16718 12.1999 7H13.7999C13.7999 8.16717 14.825 9.2 16.1999 9.2C17.5331 9.2 18.5374 8.22883 18.5971 7.10572V3.19973C18.5971 2.09529 17.7018 1.19995 16.5973 1.19995H2.99978Z" fill="#017DE8"/>
<path d="M2.99978 1.19995C1.89533 1.19995 1 2.09529 1 3.19973V7.01973C1.01147 8.17879 2.03275 9.2 3.3999 9.2C4.77481 9.2 5.7999 8.16718 5.7999 7H7.3999C7.3999 8.16718 8.425 9.2 9.7999 9.2C11.1748 9.2 12.1999 8.16718 12.1999 7H13.7999C13.7999 8.16717 14.825 9.2 16.1999 9.2C17.5331 9.2 18.5374 8.22883 18.5971 7.10572V3.19973C18.5971 2.09529 17.7018 1.19995 16.5973 1.19995H2.99978Z" fill="url(#paint0_linear_42581_969)" fill-opacity="0.4" style="mix-blend-mode:soft-light"/>
<path d="M18.5971 10.0414C17.9227 10.5202 17.0883 10.8 16.1999 10.8C14.9122 10.8 13.7381 10.2122 12.9999 9.28264C12.2617 10.2122 11.0876 10.8 9.7999 10.8C8.51224 10.8 7.33813 10.2122 6.5999 9.28264C5.86167 10.2122 4.68756 10.8 3.3999 10.8C2.51031 10.8 1.67492 10.5195 1 10.0395V16.8544C1 17.9273 1.86975 18.797 2.94265 18.797H7.51325C7.95508 18.797 8.31325 18.4389 8.31325 17.997V14.5691C8.31325 13.7488 8.97824 13.0838 9.79855 13.0838C10.6189 13.0838 11.2838 13.7488 11.2838 14.5691V17.997C11.2838 18.4389 11.642 18.797 12.0838 18.797H16.6544C17.7273 18.797 18.5971 17.9273 18.5971 16.8544V10.0414Z" fill="#017DE8"/>
<path d="M18.5971 10.0414C17.9227 10.5202 17.0883 10.8 16.1999 10.8C14.9122 10.8 13.7381 10.2122 12.9999 9.28264C12.2617 10.2122 11.0876 10.8 9.7999 10.8C8.51224 10.8 7.33813 10.2122 6.5999 9.28264C5.86167 10.2122 4.68756 10.8 3.3999 10.8C2.51031 10.8 1.67492 10.5195 1 10.0395V16.8544C1 17.9273 1.86975 18.797 2.94265 18.797H7.51325C7.95508 18.797 8.31325 18.4389 8.31325 17.997V14.5691C8.31325 13.7488 8.97824 13.0838 9.79855 13.0838C10.6189 13.0838 11.2838 13.7488 11.2838 14.5691V17.997C11.2838 18.4389 11.642 18.797 12.0838 18.797H16.6544C17.7273 18.797 18.5971 17.9273 18.5971 16.8544V10.0414Z" fill="url(#paint1_linear_42581_969)" fill-opacity="0.4" style="mix-blend-mode:soft-light"/>
<defs>
<linearGradient id="paint0_linear_42581_969" x1="1" y1="1.19995" x2="18.5971" y2="18.797" gradientUnits="userSpaceOnUse">
<stop stop-color="white"/>
<stop offset="1"/>
</linearGradient>
<linearGradient id="paint1_linear_42581_969" x1="1" y1="1.19995" x2="18.5971" y2="18.797" gradientUnits="userSpaceOnUse">
<stop stop-color="white"/>
<stop offset="1"/>
</linearGradient>
</defs>
</svg>
