<svg width="20" height="20" viewBox="0 0 20 20" fill="none" xmlns="http://www.w3.org/2000/svg">
<path d="M10 1.09998C5.0847 1.09998 1.10004 5.08464 1.10004 9.99998C1.10004 12.1696 1.87638 14.1579 3.16642 15.7022L10.9324 7.93618H8.34827V6.33618H13.6638V11.9048H12.0638V9.06755L4.29779 16.8336C5.84212 18.1236 7.83041 18.9 10 18.9C14.9154 18.9 18.9 14.9153 18.9 9.99998C18.9 5.08464 14.9154 1.09998 10 1.09998Z" fill="#017DE8"/>
<path d="M10 1.09998C5.0847 1.09998 1.10004 5.08464 1.10004 9.99998C1.10004 12.1696 1.87638 14.1579 3.16642 15.7022L10.9324 7.93618H8.34827V6.33618H13.6638V11.9048H12.0638V9.06755L4.29779 16.8336C5.84212 18.1236 7.83041 18.9 10 18.9C14.9154 18.9 18.9 14.9153 18.9 9.99998C18.9 5.08464 14.9154 1.09998 10 1.09998Z" fill="url(#paint0_linear_42581_967)" fill-opacity="0.4" style="mix-blend-mode:soft-light"/>
<defs>
<linearGradient id="paint0_linear_42581_967" x1="1.10004" y1="1.09998" x2="18.9" y2="18.9" gradientUnits="userSpaceOnUse">
<stop stop-color="white"/>
<stop offset="1"/>
</linearGradient>
</defs>
</svg>
