<svg width="20" height="20" viewBox="0 0 20 20" fill="none" xmlns="http://www.w3.org/2000/svg">
<path fill-rule="evenodd" clip-rule="evenodd" d="M3.35001 5.49998C3.35001 3.06975 5.31978 1.09998 7.75001 1.09998C10.1802 1.09998 12.15 3.06975 12.15 5.49998C12.15 7.9302 10.1802 9.89998 7.75001 9.89998C5.31978 9.89998 3.35001 7.9302 3.35001 5.49998ZM15.2 9.19999V6.99999H16.8V9.19999H19V10.8H16.8V13H15.2V10.8H13V9.19999H15.2ZM5.5 11L10 11C12.4299 11 14.4 12.9691 14.4 15.3993V18.0999C14.4 18.5417 14.0418 18.8999 13.6 18.8999L1.90001 18.9C1.68783 18.9 1.48435 18.8157 1.33432 18.6656C1.18429 18.5156 1.10001 18.3121 1.10001 18.1V15.3994C1.10001 12.9691 3.07013 11 5.5 11Z" fill="#017DE8"/>
<path fill-rule="evenodd" clip-rule="evenodd" d="M3.35001 5.49998C3.35001 3.06975 5.31978 1.09998 7.75001 1.09998C10.1802 1.09998 12.15 3.06975 12.15 5.49998C12.15 7.9302 10.1802 9.89998 7.75001 9.89998C5.31978 9.89998 3.35001 7.9302 3.35001 5.49998ZM15.2 9.19999V6.99999H16.8V9.19999H19V10.8H16.8V13H15.2V10.8H13V9.19999H15.2ZM5.5 11L10 11C12.4299 11 14.4 12.9691 14.4 15.3993V18.0999C14.4 18.5417 14.0418 18.8999 13.6 18.8999L1.90001 18.9C1.68783 18.9 1.48435 18.8157 1.33432 18.6656C1.18429 18.5156 1.10001 18.3121 1.10001 18.1V15.3994C1.10001 12.9691 3.07013 11 5.5 11Z" fill="url(#paint0_linear_42581_964)" fill-opacity="0.4" style="mix-blend-mode:soft-light"/>
<defs>
<linearGradient id="paint0_linear_42581_964" x1="1.10001" y1="1.09998" x2="18.8997" y2="18.9997" gradientUnits="userSpaceOnUse">
<stop stop-color="white"/>
<stop offset="1"/>
</linearGradient>
</defs>
</svg>
