<svg width="20" height="20" viewBox="0 0 20 20" fill="none" xmlns="http://www.w3.org/2000/svg">
<path d="M2.79999 1.81995C1.69542 1.81995 0.799988 2.71538 0.799988 3.81995V5.42004H19.2V3.81995C19.2 2.71538 18.3046 1.81995 17.2 1.81995H2.79999Z" fill="#017DE8"/>
<path d="M2.79999 1.81995C1.69542 1.81995 0.799988 2.71538 0.799988 3.81995V5.42004H19.2V3.81995C19.2 2.71538 18.3046 1.81995 17.2 1.81995H2.79999Z" fill="url(#paint0_linear_42581_962)" fill-opacity="0.4" style="mix-blend-mode:soft-light"/>
<path d="M19.2 7.02004H0.799988V13.4199C0.799988 14.5245 1.69542 15.4199 2.79999 15.4199H4.51456C4.81373 13.966 5.8785 12.8021 7.25721 12.3427C8.07226 10.9375 9.59594 10 11.33 10C13.064 10 14.5877 10.9375 15.4028 12.3427C16.714 12.7796 17.7412 13.8537 18.096 15.2085C18.7507 14.8799 19.2 14.2024 19.2 13.4199V7.02004Z" fill="#017DE8"/>
<path d="M19.2 7.02004H0.799988V13.4199C0.799988 14.5245 1.69542 15.4199 2.79999 15.4199H4.51456C4.81373 13.966 5.8785 12.8021 7.25721 12.3427C8.07226 10.9375 9.59594 10 11.33 10C13.064 10 14.5877 10.9375 15.4028 12.3427C16.714 12.7796 17.7412 13.8537 18.096 15.2085C18.7507 14.8799 19.2 14.2024 19.2 13.4199V7.02004Z" fill="url(#paint1_linear_42581_962)" fill-opacity="0.4" style="mix-blend-mode:soft-light"/>
<path d="M11.33 11.6C9.95279 11.6 8.77932 12.4943 8.37721 13.7376C7.0697 13.8348 6.02997 14.9194 6.02997 16.2552C6.02997 17.6556 7.17264 18.78 8.5686 18.78H14.0913C15.4873 18.78 16.63 17.6556 16.63 16.2552C16.63 14.9194 15.5902 13.8348 14.2827 13.7376C13.8806 12.4943 12.7072 11.6 11.33 11.6Z" fill="#017DE8"/>
<path d="M11.33 11.6C9.95279 11.6 8.77932 12.4943 8.37721 13.7376C7.0697 13.8348 6.02997 14.9194 6.02997 16.2552C6.02997 17.6556 7.17264 18.78 8.5686 18.78H14.0913C15.4873 18.78 16.63 17.6556 16.63 16.2552C16.63 14.9194 15.5902 13.8348 14.2827 13.7376C13.8806 12.4943 12.7072 11.6 11.33 11.6Z" fill="url(#paint2_linear_42581_962)" fill-opacity="0.4" style="mix-blend-mode:soft-light"/>
<defs>
<linearGradient id="paint0_linear_42581_962" x1="0.799988" y1="1.81995" x2="17.7039" y2="20.159" gradientUnits="userSpaceOnUse">
<stop stop-color="white"/>
<stop offset="1"/>
</linearGradient>
<linearGradient id="paint1_linear_42581_962" x1="0.799988" y1="1.81995" x2="17.7039" y2="20.159" gradientUnits="userSpaceOnUse">
<stop stop-color="white"/>
<stop offset="1"/>
</linearGradient>
<linearGradient id="paint2_linear_42581_962" x1="0.799988" y1="1.81995" x2="17.7039" y2="20.159" gradientUnits="userSpaceOnUse">
<stop stop-color="white"/>
<stop offset="1"/>
</linearGradient>
</defs>
</svg>
