<svg width="20" height="20" viewBox="0 0 20 20" fill="none" xmlns="http://www.w3.org/2000/svg">
<path d="M5.2003 16.3001L5.20074 18.2058C5.20075 18.3698 5.22617 18.5329 5.27604 18.6891C5.54486 19.5311 6.44538 19.9895 7.28259 19.726L10.124 18.8315L10.1271 18.8315L12.6879 19.6934C12.8529 19.7489 13.0258 19.7772 13.1998 19.7772C14.0781 19.7772 14.7997 19.0688 14.7997 18.183L14.7999 16.2999C13.3914 17.1262 11.751 17.6 10 17.6C8.24908 17.6 6.6088 17.1263 5.2003 16.3001Z" fill="#017DE8"/>
<path d="M5.2003 16.3001L5.20074 18.2058C5.20075 18.3698 5.22617 18.5329 5.27604 18.6891C5.54486 19.5311 6.44538 19.9895 7.28259 19.726L10.124 18.8315L10.1271 18.8315L12.6879 19.6934C12.8529 19.7489 13.0258 19.7772 13.1998 19.7772C14.0781 19.7772 14.7997 19.0688 14.7997 18.183L14.7999 16.2999C13.3914 17.1262 11.751 17.6 10 17.6C8.24908 17.6 6.6088 17.1263 5.2003 16.3001Z" fill="url(#paint0_linear_42581_965)" fill-opacity="0.4" style="mix-blend-mode:soft-light"/>
<path fill-rule="evenodd" clip-rule="evenodd" d="M10 0.199951C5.63696 0.199951 2.10001 3.7369 2.10001 8.09995C2.10001 12.463 5.63696 16 10 16C14.3631 16 17.9 12.463 17.9 8.09995C17.9 3.7369 14.3631 0.199951 10 0.199951ZM11.3651 6.22109L9.99998 4.29273L8.6349 6.22109L6.37909 6.92346L7.79124 8.81763L7.76215 11.1801L9.99998 10.4224L12.2378 11.1801L12.2087 8.81763L13.6209 6.92346L11.3651 6.22109Z" fill="#017DE8"/>
<path fill-rule="evenodd" clip-rule="evenodd" d="M10 0.199951C5.63696 0.199951 2.10001 3.7369 2.10001 8.09995C2.10001 12.463 5.63696 16 10 16C14.3631 16 17.9 12.463 17.9 8.09995C17.9 3.7369 14.3631 0.199951 10 0.199951ZM11.3651 6.22109L9.99998 4.29273L8.6349 6.22109L6.37909 6.92346L7.79124 8.81763L7.76215 11.1801L9.99998 10.4224L12.2378 11.1801L12.2087 8.81763L13.6209 6.92346L11.3651 6.22109Z" fill="url(#paint1_linear_42581_965)" fill-opacity="0.4" style="mix-blend-mode:soft-light"/>
<defs>
<linearGradient id="paint0_linear_42581_965" x1="2.10001" y1="0.199951" x2="21.2537" y2="15.6399" gradientUnits="userSpaceOnUse">
<stop stop-color="white"/>
<stop offset="1"/>
</linearGradient>
<linearGradient id="paint1_linear_42581_965" x1="2.10001" y1="0.199951" x2="21.2537" y2="15.6399" gradientUnits="userSpaceOnUse">
<stop stop-color="white"/>
<stop offset="1"/>
</linearGradient>
</defs>
</svg>
