<svg width="20" height="20" viewBox="0 0 20 20" fill="none" xmlns="http://www.w3.org/2000/svg">
<g id="nav-metalback-on">
<g id="Vector-Fill">
<path d="M18.0889 11.4299L17.1423 5.21757C17.0093 4.34477 16.2588 3.69995 15.3759 3.69995H4.08981C3.20693 3.69995 2.45641 4.34477 2.32341 5.21757L1.22072 12.454C1.05591 13.5356 1.89305 14.5099 2.98711 14.5099H6.00012V14.4998L11.75 6.64995L15.16 9.26995L13.55 11.43L18.0889 11.4299Z" fill="#017DE8"/>
<path d="M18.0889 11.4299L17.1423 5.21757C17.0093 4.34477 16.2588 3.69995 15.3759 3.69995H4.08981C3.20693 3.69995 2.45641 4.34477 2.32341 5.21757L1.22072 12.454C1.05591 13.5356 1.89305 14.5099 2.98711 14.5099H6.00012V14.4998L11.75 6.64995L15.16 9.26995L13.55 11.43L18.0889 11.4299Z" fill="url(#paint0_linear_6768_6523)" fill-opacity="0.4" style="mix-blend-mode:soft-light"/>
<path d="M18.2563 12.9099C18.1645 13.7949 17.4158 14.5099 16.4786 14.5099L10.715 14.5099L13.4471 18.0075L12.1862 18.9924L8.05896 13.7089L12.1872 8.44669L13.4461 9.43427L10.7193 12.9099L18.2563 12.9099Z" fill="#017DE8"/>
<path d="M18.2563 12.9099C18.1645 13.7949 17.4158 14.5099 16.4786 14.5099L10.715 14.5099L13.4471 18.0075L12.1862 18.9924L8.05896 13.7089L12.1872 8.44669L13.4461 9.43427L10.7193 12.9099L18.2563 12.9099Z" fill="url(#paint1_linear_6768_6523)" fill-opacity="0.4" style="mix-blend-mode:soft-light"/>
</g>
</g>
<defs>
<linearGradient id="paint0_linear_6768_6523" x1="1.19995" y1="3.69995" x2="16.4018" y2="20.6552" gradientUnits="userSpaceOnUse">
<stop stop-color="white"/>
<stop offset="1"/>
</linearGradient>
<linearGradient id="paint1_linear_6768_6523" x1="1.19995" y1="3.69995" x2="16.4018" y2="20.6552" gradientUnits="userSpaceOnUse">
<stop stop-color="white"/>
<stop offset="1"/>
</linearGradient>
</defs>
</svg>
