<svg width="61" height="60" viewBox="0 0 61 60" fill="none" xmlns="http://www.w3.org/2000/svg">
<g clip-path="url(#clip0_1335_8067)">
<rect x="0.5" width="60" height="60" rx="30" fill="#0AC18E"/>
<path fill-rule="evenodd" clip-rule="evenodd" d="M38.1371 45.9858L36.7717 40.6692C41.6583 39.5197 45.1794 36.4303 44.389 31.6884C43.9578 28.8146 40.7959 26.5155 38.2808 26.2281C40.0055 24.9349 40.7959 22.7795 39.7899 20.193C38.2808 16.7444 34.9033 16.0978 30.7354 16.7444L29.4419 11.5715L26.28 12.4336L27.5735 17.6066C27.2861 17.6784 26.9987 17.7423 26.7112 17.8061C26.1363 17.9339 25.5614 18.0616 24.9865 18.2532L23.693 13.0803L20.5312 13.9424L21.8247 19.1153C21.106 19.259 15.3572 20.7678 15.3572 20.7678L16.2195 24.2164L18.5191 23.5698C19.8126 23.2824 20.3874 23.8572 20.6749 24.5038L24.4116 38.8012C24.4835 39.1604 24.4116 39.9508 23.4775 40.1663C23.5493 40.1663 21.1779 40.8129 21.1779 40.8129L21.4654 44.7645C21.4654 44.7645 27.1424 43.2557 27.9328 43.112L29.2982 48.4286L32.4601 47.5665L31.0947 42.178C31.3822 42.1061 31.6696 42.0423 31.9571 41.9784C32.5319 41.8507 33.1068 41.723 33.6817 41.5314L34.9752 46.848L38.1371 45.9858ZM34.4005 23.1383C33.1494 19.761 29.0667 20.9569 26.8452 21.6076C26.5147 21.7045 26.2254 21.7892 25.9928 21.845L27.7175 28.2393C27.9339 28.1874 28.2056 28.1344 28.5148 28.0741C30.7727 27.6339 35.0325 26.8033 34.4005 23.1383ZM28.436 31.4724L30.3044 38.4415C30.5515 38.3839 30.8552 38.3244 31.1984 38.2571L31.1984 38.2571C33.8494 37.7375 38.8536 36.7567 38.2809 32.622C37.3122 28.8771 31.8747 30.4705 29.2181 31.249L29.2179 31.2491C28.9185 31.3368 28.6544 31.4142 28.436 31.4724Z" fill="white"/>
</g>
<defs>
<clipPath id="clip0_1335_8067">
<rect x="0.5" width="60" height="60" rx="30" fill="white"/>
</clipPath>
</defs>
</svg>
