<svg width="61" height="60" viewBox="0 0 61 60" fill="none" xmlns="http://www.w3.org/2000/svg">
<g clip-path="url(#clip0_1335_8035)">
<rect x="0.5" width="60" height="60" rx="30" fill="#F7931A"/>
<path fill-rule="evenodd" clip-rule="evenodd" d="M43.7118 26.3887C44.3003 22.5159 41.3049 20.434 37.209 19.0451L38.5377 13.7989L35.2937 13.0031L34.0002 18.111C33.1474 17.9018 32.2715 17.7045 31.4011 17.5089L32.7039 12.3673L29.4618 11.5715L28.1322 16.8159C27.4263 16.6576 26.7333 16.5012 26.0607 16.3365L26.0644 16.3202L21.5907 15.2205L20.7277 18.6313C20.7277 18.6313 23.1346 19.1743 23.0838 19.2079C24.3976 19.5308 24.6351 20.3867 24.5953 21.0652L20.955 35.4368C20.7942 35.8297 20.3868 36.4191 19.4684 36.1953C19.5007 36.2417 17.1104 35.616 17.1104 35.616L15.5 39.2714L19.7215 40.3074C20.193 40.4237 20.6589 40.5433 21.1199 40.6616L21.121 40.6619C21.4274 40.7406 21.7318 40.8187 22.0342 40.8949L20.6917 46.2012L23.9319 46.997L25.2615 41.7472C26.1466 41.9836 27.0059 42.2019 27.8467 42.4075L26.5218 47.6328L29.7657 48.4286L31.1082 43.1324C36.6399 44.1629 40.7995 43.7472 42.5504 38.8221C43.9612 34.8565 42.4802 32.569 39.5697 31.0774C41.6893 30.5962 43.2858 29.2238 43.7118 26.3887ZM36.2996 36.6201C35.3799 40.2584 29.5948 38.7542 26.9478 38.066L26.9474 38.0659C26.7094 38.004 26.4968 37.9487 26.3154 37.9044L28.0968 30.8746C28.3178 30.9289 28.5877 30.9885 28.8936 31.0561L28.8938 31.0561C31.6315 31.6608 37.242 32.9001 36.2996 36.6201ZM29.444 27.794C31.6508 28.3738 36.4646 29.6384 37.3031 26.3317C38.1594 22.9494 33.4808 21.9298 31.1958 21.4319C30.9388 21.3759 30.712 21.3265 30.5269 21.281L28.9118 27.6569C29.0644 27.6943 29.2434 27.7413 29.444 27.794Z" fill="white"/>
</g>
<defs>
<clipPath id="clip0_1335_8035">
<rect x="0.5" width="60" height="60" rx="30" fill="white"/>
</clipPath>
</defs>
</svg>
