<svg width="61" height="60" viewBox="0 0 61 60" fill="none" xmlns="http://www.w3.org/2000/svg">
<g clip-path="url(#clip0_1335_8075)">
<rect x="0.5" width="60" height="60" rx="30" fill="#008DE4"/>
<path fill-rule="evenodd" clip-rule="evenodd" d="M22.5676 15.2919H35.8811C47.5919 15.2919 49.6577 21.6155 47.998 30.508C46.8796 36.4788 44.0944 41.0521 39.4143 43.2046C37.2987 44.1645 35.3113 44.7079 30.6241 44.7079H17.339L18.4431 38.589L30.1255 38.596C37.1491 38.6031 39.0225 35.5895 39.9343 32.9429C40.2762 31.9478 41.0669 28.8848 41.0954 27.078C41.1453 23.5492 39.4001 21.4179 33.4806 21.4179L21.4634 21.4037L22.5676 15.2919ZM12.5175 30.4943C12.8457 29.128 13.3736 26.93 16.8225 26.93H30.4566C30.4566 26.93 30.3141 27.6569 29.8796 29.4354C29.8757 29.4516 29.8718 29.468 29.8678 29.4845C29.5396 30.8509 29.0117 33.0489 25.5628 33.0489H11.9287C11.9287 33.0489 12.0712 32.322 12.5057 30.5434C12.5096 30.5272 12.5135 30.5108 12.5175 30.4943Z" fill="white"/>
</g>
<defs>
<clipPath id="clip0_1335_8075">
<rect x="0.5" width="60" height="60" rx="30" fill="white"/>
</clipPath>
</defs>
</svg>
