<svg width="61" height="60" viewBox="0 0 61 60" fill="none" xmlns="http://www.w3.org/2000/svg">
<g clip-path="url(#clip0_1335_8051)">
<rect x="0.5" width="60" height="60" rx="30" fill="#345D9D"/>
<path d="M29.3769 31.4122L26.7303 40.3112H40.8867C41.0761 40.3046 41.2603 40.3733 41.3989 40.5022C41.5374 40.6312 41.6189 40.8097 41.6253 40.9986V41.2318L40.3943 45.4665C40.2825 45.8789 39.8992 46.1592 39.471 46.1416H17.8056L21.437 33.8057L17.3748 35.0332L18.298 32.21L22.3603 30.9826L27.4689 13.6755C27.5846 13.2658 27.9654 12.9873 28.3921 13.0004H33.87C34.0594 12.9938 34.2437 13.0625 34.3822 13.1915C34.5208 13.3204 34.6022 13.499 34.6086 13.6878V13.921L30.3002 28.5277L34.3624 27.3002L33.5007 30.2461L29.3769 31.4122Z" fill="white"/>
</g>
<defs>
<clipPath id="clip0_1335_8051">
<rect x="0.5" width="60" height="60" rx="30" fill="white"/>
</clipPath>
</defs>
</svg>
