<svg width="64" height="64" fill="none" xmlns="http://www.w3.org/2000/svg"><g clip-path="url(#clip0_502_1155)"><g clip-path="url(#clip1_502_1155)" fill-rule="evenodd" clip-rule="evenodd"><path d="M0 64h64V0H0v64z" fill="#F3F3F3"/><path d="M0 16h64V8H0v8zM0 32h64v-8H0v8zM0 48h64v-8H0v8zM0 64h64v-8H0v8z" fill="#D80027"/><path d="M-.002 32h32V0h-32v32z" fill="#2E52B2"/><path d="M1.903 13.4l-.795 2.444h-2.57l2.08 1.51-.794 2.444 2.079-1.51 2.077 1.51-.794-2.444 2.08-1.51h-2.57L1.903 13.4zM2.696 24.664l-.793-2.444-.795 2.444h-2.57l2.08 1.51-.794 2.444 2.079-1.51 2.077 1.51-.794-2.443 2.08-1.51h-2.57zM1.903 4.579l-.795 2.444h-2.57l2.08 1.51-.794 2.445 2.079-1.51 2.077 1.51-.794-2.445 2.08-1.51h-2.57l-.793-2.444zM12.763 13.4l-.794 2.444h-2.57l2.08 1.51-.795 2.444 2.079-1.51 2.078 1.51-.794-2.444 2.08-1.51h-2.57l-.794-2.444zM13.557 24.664l-.794-2.444-.794 2.444h-2.57l2.08 1.51-.795 2.444 2.079-1.51 2.078 1.51-.794-2.443 2.08-1.51h-2.57zM24.418 24.664l-.794-2.444-.794 2.444h-2.57l2.08 1.51-.796 2.444 2.08-1.51 2.079 1.51-.795-2.443 2.08-1.51h-2.57zM23.624 13.4l-.794 2.444h-2.57l2.08 1.51-.796 2.444 2.08-1.51 2.079 1.51-.795-2.444 2.08-1.51h-2.57l-.794-2.444zM12.763 4.579l-.794 2.444h-2.57l2.08 1.51-.795 2.445 2.079-1.51 2.078 1.51-.794-2.445 2.08-1.51h-2.57l-.794-2.444zM23.624 4.579l-.794 2.444h-2.57l2.08 1.51-.796 2.445 2.08-1.51 2.079 1.51-.795-2.445 2.08-1.51h-2.57l-.794-2.444z" fill="#F3F3F3"/></g><path fill="url(#paint0_linear_502_1155)" fill-opacity=".4" style="mix-blend-mode:soft-light" d="M0 0h64v64H0z"/></g><defs><clipPath id="clip0_502_1155"><rect width="64" height="64" rx="32" fill="#fff"/></clipPath><clipPath id="clip1_502_1155"><path fill="#fff" d="M0 0h64v64H0z"/></clipPath><linearGradient id="paint0_linear_502_1155" x1="64" y1="64" x2="0" y2="0" gradientUnits="userSpaceOnUse"><stop/><stop offset="1" stop-color="#fff"/></linearGradient></defs></svg>