<svg width="61" height="60" viewBox="0 0 61 60" fill="none" xmlns="http://www.w3.org/2000/svg">
<g clip-path="url(#clip0_1335_8019)">
<rect x="0.5" width="60" height="60" rx="30" fill="#2775CA"/>
<path fill-rule="evenodd" clip-rule="evenodd" d="M14.2109 24.0783C10.8366 33.0375 15.4907 43.16 24.5661 46.4177C24.9151 46.6506 25.2642 47.1158 25.2642 47.4649V49.094C25.2642 49.3266 25.2642 49.443 25.1478 49.5592C25.0316 50.0247 24.5661 50.2573 24.1006 50.0247C17.585 47.9304 12.5818 42.9272 10.4875 36.4116C6.99699 25.3583 13.0473 13.6067 24.1006 10.1162C24.217 10 24.4496 10 24.5661 10C25.0316 10.1162 25.2642 10.4652 25.2642 10.9307V12.5595C25.2642 13.1415 25.0316 13.4905 24.5661 13.7231C19.7958 15.4684 15.9562 19.1915 14.2109 24.0783ZM35.8522 10.5817C35.9684 10.1162 36.4339 9.88356 36.8994 10.1162C43.2985 12.2105 48.4182 17.2137 50.5125 23.8457C54.003 34.8989 47.9527 46.6506 36.8994 50.1411C36.783 50.2573 36.5503 50.2573 36.4339 50.2573C35.9684 50.1411 35.7358 49.7921 35.7358 49.3266V47.6977C35.7358 47.1158 35.9684 46.7667 36.4339 46.5341C41.2042 44.7889 45.0438 41.0657 46.7891 36.179C50.1634 27.2198 45.5093 17.0972 36.4339 13.8396C36.0848 13.6067 35.7358 13.1415 35.7358 12.676V11.0472C35.7358 10.8143 35.7358 10.6981 35.8522 10.5817ZM30.849 28.1508C35.7357 28.7324 38.1791 30.1286 38.1791 34.2008C38.1791 37.3423 35.8522 39.7857 32.3616 40.3676V43.1601C32.2452 43.7417 31.8961 44.0908 31.4306 44.0908H29.6854C29.1037 43.9743 28.7546 43.6253 28.7546 43.1601V40.3676C24.9151 39.7857 23.0534 37.6914 22.5881 34.7828V34.6663C22.5881 34.2008 22.9372 33.8518 23.4024 33.8518H25.3806C25.7296 33.8518 26.0787 34.0847 26.1948 34.5499C26.5439 36.2952 27.591 37.5752 30.6164 37.5752C32.8268 37.5752 34.4559 36.2954 34.4559 34.4337C34.4559 32.572 33.4088 31.8739 30.1509 31.2923C25.2641 30.7103 22.9372 29.1979 22.9372 25.3583C22.9372 22.4495 25.1477 20.1226 28.6382 19.6571V16.9811C28.7546 16.3991 29.1037 16.0501 29.5692 16.0501H31.3145C31.8961 16.1665 32.2452 16.5156 32.2452 16.9811V19.7735C34.9212 20.0061 37.0155 21.984 37.481 24.5438V24.6602C37.481 25.1255 37.1319 25.4745 36.6664 25.4745H34.805C34.4559 25.4745 34.1069 25.2419 33.9904 24.8929C33.4088 23.1476 32.2452 22.4495 30.1509 22.4495C27.8239 22.4495 26.6603 23.4964 26.6603 25.1255C26.6603 26.7546 27.3584 27.6853 30.849 28.1508Z" fill="white"/>
</g>
<defs>
<clipPath id="clip0_1335_8019">
<rect x="0.5" width="60" height="60" rx="30" fill="white"/>
</clipPath>
</defs>
</svg>
