<svg width="61" height="60" viewBox="0 0 61 60" fill="none" xmlns="http://www.w3.org/2000/svg">
<g clip-path="url(#clip0_1335_8091)">
<rect x="0.5" width="60" height="60" rx="30" fill="#50AF95"/>
<path fill-rule="evenodd" clip-rule="evenodd" d="M10.6798 29.7025L18.0729 14.1732C18.1224 14.0664 18.23 13.9986 18.3477 14H43.4991C43.6162 13.9997 43.7227 14.0679 43.7714 14.1744L51.1645 29.7037C51.2223 29.8222 51.1961 29.9646 51.1 30.0549L31.133 49.1869C31.0152 49.2999 30.8292 49.2999 30.7113 49.1869L10.7443 30.0537C10.6482 29.9634 10.6221 29.821 10.6798 29.7025ZM30.9514 31.3528C32.6035 31.3528 33.3441 31.3086 33.4875 31.2978L33.4827 31.2966C38.5512 31.072 42.332 30.1881 42.332 29.1321C42.332 28.0761 38.55 27.1921 33.4827 26.9663V30.4186C33.3405 30.4318 32.5509 30.4975 30.9741 30.4975C29.6601 30.4975 28.7093 30.4413 28.3772 30.4174V26.964C23.2991 27.1909 19.5088 28.0737 19.5088 29.1321C19.5088 30.1905 23.2991 31.0744 28.3772 31.2978C28.7045 31.3133 29.6374 31.3528 30.9514 31.3528ZM33.4877 26.6076V26.6087L33.4865 26.6075C33.4869 26.6075 33.4873 26.6076 33.4877 26.6076ZM33.4877 23.5184V26.6076C39.2246 26.8729 43.5351 28.01 43.5351 29.3729C43.5351 30.7359 39.2204 31.8731 33.4865 32.1371V42.0436H28.3762V32.1407C22.6292 31.8755 18.3073 30.7383 18.3073 29.3741C18.3073 28.0099 22.6292 26.8715 28.3762 26.6075V23.5184H21.3056V18.8059H40.5595V23.5184H33.4877Z" fill="white"/>
</g>
<defs>
<clipPath id="clip0_1335_8091">
<rect x="0.5" width="60" height="60" rx="30" fill="white"/>
</clipPath>
</defs>
</svg>
