<svg width="61" height="60" viewBox="0 0 61 60" fill="none" xmlns="http://www.w3.org/2000/svg">
<g clip-path="url(#clip0_1335_8059)">
<path fill-rule="evenodd" clip-rule="evenodd" d="M60.5 27.1354C53.6063 -12.8068 1.45278 -5.0776 0.521915 27.1354C3.53232 28.6974 5.42271 29.6465 5.42271 29.6465C5.42271 29.6465 3.82732 30.6017 0.5 32.7274C6.51035 71.8854 57.765 66.1987 60.4899 32.6822C57.231 30.6846 55.4542 29.63 55.4542 29.63C55.4542 29.63 56.9785 28.9041 60.5 27.1354ZM34.8393 41.0817L29.9472 32.6715L24.9676 41.0817L21.2114 40.8242L28.2868 28.8957L21.91 18.5977L25.7535 18.2541L30.2959 25.892L34.8389 18.5977L38.4205 18.6833L32.4802 28.8097L39.0317 40.9954L34.8393 41.0817Z" fill="#B7B5B1"/>
<path fill-rule="evenodd" clip-rule="evenodd" d="M60.5 27.1354C53.6063 -12.8068 1.45278 -5.0776 0.521915 27.1354C3.53232 28.6974 5.42271 29.6465 5.42271 29.6465C5.42271 29.6465 3.82732 30.6017 0.5 32.7274C6.51035 71.8854 57.765 66.1987 60.4899 32.6822C57.231 30.6846 55.4542 29.63 55.4542 29.63C55.4542 29.63 56.9785 28.9041 60.5 27.1354ZM34.8393 41.0817L29.9472 32.6715L24.9676 41.0817L21.2114 40.8242L28.2868 28.8957L21.91 18.5977L25.7535 18.2541L30.2959 25.892L34.8389 18.5977L38.4205 18.6833L32.4802 28.8097L39.0317 40.9954L34.8393 41.0817Z" fill="url(#paint0_linear_1335_8059)" fill-opacity="0.4" style="mix-blend-mode:soft-light"/>
<path fill-rule="evenodd" clip-rule="evenodd" d="M58.0666 25.5686C48.7205 -9.92354 5.88745 -0.321742 2.95358 25.5686C8.89684 28.9125 10.2454 29.6987 10.2454 29.6987C10.2454 29.6987 7.94844 31.167 2.93335 34.3525C9.30917 68.4734 55.5245 61.9158 58.0572 34.311C53.393 31.3875 50.6419 29.6839 50.6419 29.6839C50.6419 29.6839 56.9307 26.1687 58.0666 25.5686Z" fill="#244B81"/>
<path fill-rule="evenodd" clip-rule="evenodd" d="M58.0666 25.5686C48.7205 -9.92354 5.88745 -0.321742 2.95358 25.5686C8.89684 28.9125 10.2454 29.6987 10.2454 29.6987C10.2454 29.6987 7.94844 31.167 2.93335 34.3525C9.30917 68.4734 55.5245 61.9158 58.0572 34.311C53.393 31.3875 50.6419 29.6839 50.6419 29.6839C50.6419 29.6839 56.9307 26.1687 58.0666 25.5686Z" fill="url(#paint1_linear_1335_8059)" fill-opacity="0.4" style="mix-blend-mode:soft-light"/>
<path fill-rule="evenodd" clip-rule="evenodd" d="M35.1275 41.8453L29.9101 32.8765L24.5995 41.8453L20.5933 41.5706L28.1393 28.8494L21.3388 17.8677L25.4378 17.5012L30.2823 25.6465L35.1275 17.8677L38.9471 17.959L32.6116 28.758L39.5991 41.7533L35.1275 41.8453Z" fill="white"/>
</g>
<defs>
<linearGradient id="paint0_linear_1335_8059" x1="0.5" y1="0" x2="60.5" y2="60" gradientUnits="userSpaceOnUse">
<stop stop-color="white"/>
<stop offset="1"/>
</linearGradient>
<linearGradient id="paint1_linear_1335_8059" x1="2.93335" y1="2.41104" x2="58.067" y2="57.5443" gradientUnits="userSpaceOnUse">
<stop stop-color="white"/>
<stop offset="1"/>
</linearGradient>
<clipPath id="clip0_1335_8059">
<rect x="0.5" width="60" height="60" rx="30" fill="white"/>
</clipPath>
</defs>
</svg>
