<svg width="61" height="60" viewBox="0 0 61 60" fill="none" xmlns="http://www.w3.org/2000/svg">
<g clip-path="url(#clip0_1335_8027)">
<rect x="0.5" width="60" height="60" rx="30" fill="black"/>
<path fill-rule="evenodd" clip-rule="evenodd" d="M39.2892 20.7202L43.7271 18.4517L48.9292 15.789V18.9836L43.6819 21.6667L41.1433 22.9636L18.5512 34.5124L17.2928 35.1554L16.0157 35.8093L12.072 37.8259V34.6297L13.4115 33.9445C14.431 33.4233 15.0385 32.3388 14.9522 31.1942C14.922 30.7989 14.9069 30.402 14.9069 30.0036C14.9063 24.1217 18.1942 18.7365 23.4172 16.0647C28.6402 13.3929 34.9156 13.8859 39.6603 17.3409L39.2814 17.5349L36.7412 18.8334C32.7901 16.6196 27.966 16.6697 24.0615 18.9653C20.157 21.2608 17.7556 25.4586 17.7497 29.9989C17.7499 30.5582 17.7864 31.1168 17.8588 31.6713L39.2892 20.7202ZM19.8341 37.044L48.9287 22.1818V25.367L47.5876 26.0522C46.5691 26.5741 45.9623 27.6584 46.0485 28.8025C46.0782 29.1999 46.0938 29.6019 46.0938 30.004C46.0919 35.8851 42.8026 41.2682 37.5797 43.9382C32.3567 46.6082 26.0824 46.114 21.3388 42.6589L24.0927 41.2509L24.2486 41.1679C28.2007 43.3911 33.0313 43.3461 36.9416 41.0498C40.8519 38.7534 43.256 34.5497 43.2588 30.004C43.2586 29.4411 43.2222 28.8788 43.1497 28.3207L21.6975 39.2875L17.2595 41.5559L12.0715 44.2077V41.0146L17.2954 38.3441L19.8341 37.044Z" fill="white"/>
</g>
<defs>
<clipPath id="clip0_1335_8027">
<rect x="0.5" width="60" height="60" rx="30" fill="white"/>
</clipPath>
</defs>
</svg>
