<svg width="14" height="14" viewBox="0 0 14 14" fill="none" xmlns="http://www.w3.org/2000/svg">
<g id="&#226;&#134;&#144; Icon">
<g id="Vector">
<path d="M2.87 2.31C2.87 2.61928 2.61928 2.87 2.31 2.87C2.00072 2.87 1.75 2.61928 1.75 2.31C1.75 2.00072 2.00072 1.75 2.31 1.75C2.61928 1.75 2.87 2.00072 2.87 2.31Z" stroke="#0D1D2C" stroke-width="1.6"/>
<path d="M12.2499 2.31C12.2499 2.61928 11.9992 2.87 11.6899 2.87C11.3807 2.87 11.1299 2.61928 11.1299 2.31C11.1299 2.00072 11.3807 1.75 11.6899 1.75C11.9992 1.75 12.2499 2.00072 12.2499 2.31Z" stroke="#0D1D2C" stroke-width="1.6"/>
<path d="M7.55997 2.31C7.55997 2.61928 7.30925 2.87 6.99997 2.87C6.69069 2.87 6.43997 2.61928 6.43997 2.31C6.43997 2.00072 6.69069 1.75 6.99997 1.75C7.30925 1.75 7.55997 2.00072 7.55997 2.31Z" stroke="#0D1D2C" stroke-width="1.6"/>
<path d="M2.87 6.99997C2.87 7.30925 2.61928 7.55997 2.31 7.55997C2.00072 7.55997 1.75 7.30925 1.75 6.99997C1.75 6.69069 2.00072 6.43997 2.31 6.43997C2.61928 6.43997 2.87 6.69069 2.87 6.99997Z" stroke="#0D1D2C" stroke-width="1.6"/>
<path d="M12.2499 6.99997C12.2499 7.30925 11.9992 7.55997 11.6899 7.55997C11.3807 7.55997 11.1299 7.30925 11.1299 6.99997C11.1299 6.69069 11.3807 6.43997 11.6899 6.43997C11.9992 6.43997 12.2499 6.69069 12.2499 6.99997Z" stroke="#0D1D2C" stroke-width="1.6"/>
<path d="M7.55997 6.99997C7.55997 7.30925 7.30925 7.55997 6.99997 7.55997C6.69069 7.55997 6.43997 7.30925 6.43997 6.99997C6.43997 6.69069 6.69069 6.43997 6.99997 6.43997C7.30925 6.43997 7.55997 6.69069 7.55997 6.99997Z" stroke="#0D1D2C" stroke-width="1.6"/>
<path d="M2.87 11.69C2.87 11.9993 2.61928 12.25 2.31 12.25C2.00072 12.25 1.75 11.9993 1.75 11.69C1.75 11.3807 2.00072 11.13 2.31 11.13C2.61928 11.13 2.87 11.3807 2.87 11.69Z" stroke="#0D1D2C" stroke-width="1.6"/>
<path d="M12.2499 11.69C12.2499 11.9993 11.9992 12.25 11.6899 12.25C11.3807 12.25 11.1299 11.9993 11.1299 11.69C11.1299 11.3807 11.3807 11.13 11.6899 11.13C11.9992 11.13 12.2499 11.3807 12.2499 11.69Z" stroke="#0D1D2C" stroke-width="1.6"/>
<path d="M7.55997 11.69C7.55997 11.9993 7.30925 12.25 6.99997 12.25C6.69069 12.25 6.43997 11.9993 6.43997 11.69C6.43997 11.3807 6.69069 11.13 6.99997 11.13C7.30925 11.13 7.55997 11.3807 7.55997 11.69Z" stroke="#0D1D2C" stroke-width="1.6"/>
</g>
</g>
</svg>
