<svg width="20" height="20" viewBox="0 0 20 20" fill="none" xmlns="http://www.w3.org/2000/svg">
<g clip-path="url(#clip0_42581_990)">
<path d="M17.2 9.99998H2.79998M17.2 9.99998C17.8627 9.99998 18.4 9.46272 18.4 8.79998V7.59998C18.4 6.93723 17.8627 6.39998 17.2 6.39998H2.79998C2.13723 6.39998 1.59998 6.93723 1.59998 7.59998V8.79998C1.59998 9.46272 2.13723 9.99998 2.79998 9.99998M17.2 9.99998V16C17.2 17.3255 16.1255 18.4 14.8 18.4H5.19998C3.87449 18.4 2.79998 17.3255 2.79998 16L2.79998 9.99998M9.99998 6.39998V5.19998M9.99998 6.39998H6.05712C4.92099 6.39998 3.99998 5.47896 3.99998 4.34283V3.99998C3.99998 2.67449 5.07449 1.59998 6.39998 1.59998C8.3882 1.59998 9.99998 3.21175 9.99998 5.19998M9.99998 6.39998H13.9428C15.079 6.39998 16 5.47896 16 4.34283V3.99998C16 2.67449 14.9255 1.59998 13.6 1.59998C11.6117 1.59998 9.99998 3.21175 9.99998 5.19998M9.99998 6.39998V18.4" stroke="#0D1D2C" stroke-width="1.6"/>
</g>
<defs>
<clipPath id="clip0_42581_990">
<rect width="20" height="20" fill="white"/>
</clipPath>
</defs>
</svg>
