<svg width="20" height="20" viewBox="0 0 20 20" fill="none" xmlns="http://www.w3.org/2000/svg">
<path d="M1 10.4444C1 9.70806 1.61991 9.11111 2.38462 9.11111H3.76923C4.53393 9.11111 5.15385 9.70806 5.15385 10.4444V16.6667C5.15385 17.403 4.53393 18 3.76923 18H2.38462C1.61991 18 1 17.403 1 16.6667V10.4444Z" stroke="#0D1D2C" stroke-width="1.6"/>
<path d="M14.8462 7.77778C14.8462 7.0414 15.4661 6.44444 16.2308 6.44444H17.6154C18.3801 6.44444 19 7.0414 19 7.77778V14C19 14.7364 18.3801 15.3333 17.6154 15.3333H16.2308C15.4661 15.3333 14.8462 14.7364 14.8462 14V7.77778Z" stroke="#0D1D2C" stroke-width="1.6"/>
<path d="M7.92308 3.33333C7.92308 2.59695 8.54299 2 9.30769 2H10.6923C11.457 2 12.0769 2.59695 12.0769 3.33333V12.2222C12.0769 12.9586 11.457 13.5556 10.6923 13.5556H9.30769C8.54299 13.5556 7.92308 12.9586 7.92308 12.2222V3.33333Z" stroke="#0D1D2C" stroke-width="1.6"/>
</svg>
