<svg width="20" height="20" viewBox="0 0 20 20" fill="none" xmlns="http://www.w3.org/2000/svg">
<path d="M9.99996 2L10.5206 1.39259C10.221 1.1358 9.77892 1.1358 9.47933 1.39259L9.99996 2ZM1.99994 8.85716L1.47931 8.24976L1.19994 8.48922V8.85716H1.99994ZM7.71424 18V18.8C8.15607 18.8 8.51424 18.4419 8.51424 18H7.71424ZM12.2857 18H11.4857C11.4857 18.4419 11.8439 18.8 12.2857 18.8V18ZM18 8.85716H18.8V8.48922L18.5206 8.24976L18 8.85716ZM3.1428 18.8H7.71424V17.2H3.1428V18.8ZM18.5206 8.24976L10.5206 1.39259L9.47933 2.60741L17.4794 9.46457L18.5206 8.24976ZM9.47933 1.39259L1.47931 8.24976L2.52057 9.46457L10.5206 2.60741L9.47933 1.39259ZM8.51424 18V14.5715H6.91424V18H8.51424ZM11.4857 14.5715V18H13.0857V14.5715H11.4857ZM12.2857 18.8H16.8571V17.2H12.2857V18.8ZM18.8 16.8572V8.85716H17.2V16.8572H18.8ZM1.19994 8.85716V16.8572H2.79994V8.85716H1.19994ZM9.99996 13.0857C10.8205 13.0857 11.4857 13.7509 11.4857 14.5715H13.0857C13.0857 12.8673 11.7042 11.4857 9.99996 11.4857V13.0857ZM9.99996 11.4857C8.29577 11.4857 6.91424 12.8673 6.91424 14.5715H8.51424C8.51424 13.7509 9.17942 13.0857 9.99996 13.0857V11.4857ZM16.8571 18.8C17.9301 18.8 18.8 17.9302 18.8 16.8572H17.2C17.2 17.0465 17.0465 17.2 16.8571 17.2V18.8ZM3.1428 17.2C2.95344 17.2 2.79994 17.0465 2.79994 16.8572H1.19994C1.19994 17.9302 2.06979 18.8 3.1428 18.8V17.2Z" fill="#0D1D2C"/>
</svg>
