<svg width="20" height="20" viewBox="0 0 20 20" fill="none" xmlns="http://www.w3.org/2000/svg">
<path d="M7.71329 17.9971V18.7971C8.15512 18.7971 8.51329 18.4389 8.51329 17.9971H7.71329ZM12.2839 17.9971H11.4839C11.4839 18.4389 11.8421 18.7971 12.2839 18.7971V17.9971ZM16.7974 2V1.2V2ZM3.19983 2L3.19983 1.2L3.19983 2ZM3.1427 18.7971H7.71329V17.1971H3.1427V18.7971ZM8.51329 17.9971V14.5691H6.91329V17.9971H8.51329ZM11.4839 14.5691V17.9971H13.0839V14.5691H11.4839ZM12.2839 18.7971H16.8545V17.1971H12.2839V18.7971ZM18.7971 16.8544V3.19978H17.1971V16.8544H18.7971ZM1.20005 3.19978V16.8544H2.80005V3.19978H1.20005ZM9.99859 13.0838C10.8189 13.0838 11.4839 13.7488 11.4839 14.5691H13.0839C13.0839 12.8652 11.7026 11.4838 9.99859 11.4838V13.0838ZM9.99859 11.4838C8.29463 11.4838 6.91329 12.8652 6.91329 14.5691H8.51329C8.51329 13.7488 9.17829 13.0838 9.99859 13.0838V11.4838ZM16.8545 18.7971C17.9274 18.7971 18.7971 17.9273 18.7971 16.8544H17.1971C17.1971 17.0437 17.0437 17.1971 16.8545 17.1971V18.7971ZM3.1427 17.1971C2.95346 17.1971 2.80005 17.0437 2.80005 16.8544H1.20005C1.20005 17.9273 2.0698 18.7971 3.1427 18.7971V17.1971ZM16.7974 2.8C17.0182 2.8 17.1971 2.97899 17.1971 3.19978H18.7971C18.7971 2.09534 17.9018 1.2 16.7974 1.2L16.7974 2.8ZM3.19983 1.2C2.09538 1.2 1.20005 2.09533 1.20005 3.19978H2.80005C2.80005 2.97899 2.97903 2.8 3.19983 2.8L3.19983 1.2ZM16.7974 1.2H3.19983V2.8H16.7974V1.2ZM6.53336 7.14192C6.53336 8.09269 5.72544 8.91289 4.6667 8.91289V10.5129C6.55348 10.5129 8.13336 9.03096 8.13336 7.14192H6.53336ZM4.6667 8.91289C3.60797 8.91289 2.80005 8.09269 2.80005 7.14192H1.20005C1.20005 9.03096 2.77993 10.5129 4.6667 10.5129V8.91289ZM11.8667 7.14192C11.8667 8.09269 11.0588 8.91289 10 8.91289V10.5129C11.8868 10.5129 13.4667 9.03096 13.4667 7.14192H11.8667ZM10 8.91289C8.94129 8.91289 8.13336 8.09269 8.13336 7.14192H6.53336C6.53336 9.03096 8.11325 10.5129 10 10.5129V8.91289ZM17.2 7.14192C17.2 8.09269 16.3921 8.91289 15.3333 8.91289V10.5129C17.2201 10.5129 18.8 9.03096 18.8 7.14192H17.2ZM15.3333 8.91289C14.2746 8.91289 13.4667 8.09269 13.4667 7.14192H11.8667C11.8667 9.03096 13.4466 10.5129 15.3333 10.5129V8.91289Z" fill="#0D1D2C"/>
</svg>
