<svg width="20" height="20" viewBox="0 0 20 20" fill="none" xmlns="http://www.w3.org/2000/svg">
<path d="M13.6 18.0998L13.6 18.8998C14.0419 18.8998 14.4 18.5417 14.4 18.0998H13.6ZM1.90002 18.0999H1.10002C1.10002 18.3121 1.18431 18.5155 1.33434 18.6656C1.48437 18.8156 1.68785 18.8999 1.90003 18.8999L1.90002 18.0999ZM10 11.7999L10 10.9999L10 10.9999L10 11.7999ZM5.50002 11.7999L5.50002 12.5999L5.50003 12.5999L5.50002 11.7999ZM13.6 17.2998L1.90002 17.2999L1.90003 18.8999L13.6 18.8998L13.6 17.2998ZM2.70002 18.0999C2.70002 18.0982 2.70002 18.0965 2.70002 18.0949C2.70002 18.0932 2.70002 18.0915 2.70002 18.0899C2.70002 18.0882 2.70002 18.0865 2.70002 18.0849C2.70002 18.0832 2.70002 18.0815 2.70002 18.0799C2.70002 18.0782 2.70002 18.0765 2.70002 18.0748C2.70002 18.0732 2.70002 18.0715 2.70002 18.0698C2.70002 18.0681 2.70002 18.0665 2.70002 18.0648C2.70002 18.0631 2.70002 18.0614 2.70002 18.0597C2.70002 18.0581 2.70002 18.0564 2.70002 18.0547C2.70002 18.053 2.70002 18.0513 2.70002 18.0497C2.70002 18.048 2.70002 18.0463 2.70002 18.0446C2.70002 18.0429 2.70002 18.0412 2.70002 18.0395C2.70002 18.0379 2.70002 18.0362 2.70002 18.0345C2.70002 18.0328 2.70002 18.0311 2.70002 18.0294C2.70002 18.0277 2.70002 18.026 2.70002 18.0243C2.70002 18.0226 2.70002 18.0209 2.70002 18.0192C2.70002 18.0176 2.70002 18.0159 2.70002 18.0142C2.70002 18.0125 2.70002 18.0108 2.70002 18.0091C2.70002 18.0074 2.70002 18.0057 2.70002 18.004C2.70002 18.0023 2.70002 18.0006 2.70002 17.9989C2.70002 17.9972 2.70002 17.9955 2.70002 17.9938C2.70002 17.9921 2.70002 17.9903 2.70002 17.9886C2.70002 17.9869 2.70002 17.9852 2.70002 17.9835C2.70002 17.9818 2.70002 17.9801 2.70002 17.9784C2.70002 17.9767 2.70002 17.975 2.70002 17.9733C2.70002 17.9716 2.70002 17.9698 2.70002 17.9681C2.70002 17.9664 2.70002 17.9647 2.70002 17.963C2.70002 17.9613 2.70002 17.9596 2.70002 17.9578C2.70002 17.9561 2.70002 17.9544 2.70002 17.9527C2.70002 17.951 2.70002 17.9492 2.70002 17.9475C2.70002 17.9458 2.70002 17.9441 2.70002 17.9424C2.70002 17.9406 2.70002 17.9389 2.70002 17.9372C2.70002 17.9355 2.70002 17.9338 2.70002 17.932C2.70002 17.9303 2.70002 17.9286 2.70002 17.9268C2.70002 17.9251 2.70002 17.9234 2.70002 17.9217C2.70002 17.9199 2.70002 17.9182 2.70002 17.9165C2.70002 17.9147 2.70002 17.913 2.70002 17.9113C2.70002 17.9096 2.70002 17.9078 2.70002 17.9061C2.70002 17.9044 2.70002 17.9026 2.70002 17.9009C2.70002 17.8992 2.70002 17.8974 2.70002 17.8957C2.70002 17.8939 2.70002 17.8922 2.70002 17.8905C2.70002 17.8887 2.70002 17.887 2.70002 17.8853C2.70002 17.8835 2.70002 17.8818 2.70002 17.88C2.70002 17.8783 2.70002 17.8765 2.70002 17.8748C2.70002 17.8731 2.70002 17.8713 2.70002 17.8696C2.70002 17.8678 2.70002 17.8661 2.70002 17.8643C2.70002 17.8626 2.70002 17.8608 2.70002 17.8591C2.70002 17.8573 2.70002 17.8556 2.70002 17.8538C2.70002 17.8521 2.70002 17.8503 2.70002 17.8486C2.70002 17.8468 2.70002 17.8451 2.70002 17.8433C2.70002 17.8416 2.70002 17.8398 2.70002 17.8381C2.70002 17.8363 2.70002 17.8346 2.70002 17.8328C2.70002 17.8311 2.70002 17.8293 2.70002 17.8276C2.70002 17.8258 2.70002 17.824 2.70002 17.8223C2.70002 17.8205 2.70002 17.8188 2.70002 17.817C2.70002 17.8152 2.70002 17.8135 2.70002 17.8117C2.70002 17.81 2.70002 17.8082 2.70002 17.8064C2.70002 17.8047 2.70002 17.8029 2.70002 17.8011C2.70002 17.7994 2.70002 17.7976 2.70002 17.7958C2.70002 17.7941 2.70002 17.7923 2.70002 17.7906C2.70002 17.7888 2.70002 17.787 2.70002 17.7852C2.70002 17.7835 2.70002 17.7817 2.70002 17.7799C2.70002 17.7782 2.70002 17.7764 2.70002 17.7746C2.70002 17.7729 2.70002 17.7711 2.70002 17.7693C2.70002 17.7675 2.70002 17.7658 2.70002 17.764C2.70002 17.7622 2.70002 17.7604 2.70002 17.7587C2.70002 17.7569 2.70002 17.7551 2.70002 17.7533C2.70002 17.7516 2.70002 17.7498 2.70002 17.748C2.70002 17.7462 2.70002 17.7445 2.70002 17.7427C2.70002 17.7409 2.70002 17.7391 2.70002 17.7373C2.70002 17.7355 2.70002 17.7338 2.70002 17.732C2.70002 17.7302 2.70002 17.7284 2.70002 17.7266C2.70002 17.7249 2.70002 17.7231 2.70002 17.7213C2.70002 17.7195 2.70002 17.7177 2.70002 17.7159C2.70002 17.7141 2.70002 17.7124 2.70002 17.7106C2.70002 17.7088 2.70002 17.707 2.70002 17.7052C2.70002 17.7034 2.70002 17.7016 2.70002 17.6998C2.70002 17.698 2.70002 17.6963 2.70002 17.6945C2.70002 17.6927 2.70002 17.6909 2.70002 17.6891C2.70002 17.6873 2.70002 17.6855 2.70002 17.6837C2.70002 17.6819 2.70002 17.6801 2.70002 17.6783C2.70002 17.6765 2.70002 17.6747 2.70002 17.6729C2.70002 17.6711 2.70002 17.6693 2.70002 17.6675C2.70002 17.6658 2.70002 17.664 2.70002 17.6622C2.70002 17.6604 2.70002 17.6586 2.70002 17.6568C2.70002 17.655 2.70002 17.6532 2.70002 17.6514C2.70002 17.6496 2.70002 17.6478 2.70002 17.646C2.70002 17.6442 2.70002 17.6423 2.70002 17.6405C2.70002 17.6387 2.70002 17.6369 2.70002 17.6351C2.70002 17.6333 2.70002 17.6315 2.70002 17.6297C2.70002 17.6279 2.70002 17.6261 2.70002 17.6243C2.70002 17.6225 2.70002 17.6207 2.70002 17.6189C2.70002 17.6171 2.70002 17.6153 2.70002 17.6135C2.70002 17.6116 2.70002 17.6098 2.70002 17.608C2.70002 17.6062 2.70002 17.6044 2.70002 17.6026C2.70002 17.6008 2.70002 17.599 2.70002 17.5972C2.70002 17.5953 2.70002 17.5935 2.70002 17.5917C2.70002 17.5899 2.70002 17.5881 2.70002 17.5863C2.70002 17.5845 2.70002 17.5826 2.70002 17.5808C2.70002 17.579 2.70002 17.5772 2.70002 17.5754C2.70002 17.5736 2.70002 17.5718 2.70002 17.5699C2.70002 17.5681 2.70002 17.5663 2.70002 17.5645C2.70002 17.5627 2.70002 17.5608 2.70002 17.559C2.70002 17.5572 2.70002 17.5554 2.70002 17.5536C2.70002 17.5517 2.70002 17.5499 2.70002 17.5481C2.70002 17.5463 2.70002 17.5445 2.70002 17.5426C2.70002 17.5408 2.70002 17.539 2.70002 17.5372C2.70002 17.5353 2.70002 17.5335 2.70002 17.5317C2.70002 17.5299 2.70002 17.528 2.70002 17.5262C2.70002 17.5244 2.70002 17.5226 2.70002 17.5207C2.70002 17.5189 2.70002 17.5171 2.70002 17.5153C2.70002 17.5134 2.70002 17.5116 2.70002 17.5098C2.70002 17.5079 2.70002 17.5061 2.70002 17.5043C2.70002 17.5025 2.70002 17.5006 2.70002 17.4988C2.70002 17.497 2.70002 17.4951 2.70002 17.4933C2.70002 17.4915 2.70002 17.4896 2.70002 17.4878C2.70002 17.486 2.70002 17.4841 2.70002 17.4823C2.70002 17.4805 2.70002 17.4786 2.70002 17.4768C2.70002 17.475 2.70002 17.4731 2.70002 17.4713C2.70002 17.4695 2.70002 17.4676 2.70002 17.4658C2.70002 17.464 2.70002 17.4621 2.70002 17.4603C2.70002 17.4585 2.70002 17.4566 2.70002 17.4548C2.70002 17.453 2.70002 17.4511 2.70002 17.4493C2.70002 17.4474 2.70002 17.4456 2.70002 17.4438C2.70002 17.4419 2.70002 17.4401 2.70002 17.4382C2.70002 17.4364 2.70002 17.4346 2.70002 17.4327C2.70002 17.4309 2.70002 17.429 2.70002 17.4272C2.70002 17.4254 2.70002 17.4235 2.70002 17.4217C2.70002 17.4198 2.70002 17.418 2.70002 17.4162C2.70002 17.4143 2.70002 17.4125 2.70002 17.4106C2.70002 17.4088 2.70002 17.4069 2.70002 17.4051C2.70002 17.4032 2.70002 17.4014 2.70002 17.3996C2.70002 17.3977 2.70002 17.3959 2.70002 17.394C2.70002 17.3922 2.70002 17.3903 2.70002 17.3885C2.70002 17.3866 2.70002 17.3848 2.70002 17.3829C2.70002 17.3811 2.70002 17.3792 2.70002 17.3774C2.70002 17.3756 2.70002 17.3737 2.70002 17.3719C2.70002 17.37 2.70002 17.3682 2.70002 17.3663C2.70002 17.3645 2.70002 17.3626 2.70002 17.3608C2.70002 17.3589 2.70002 17.3571 2.70002 17.3552C2.70002 17.3534 2.70002 17.3515 2.70002 17.3497C2.70002 17.3478 2.70002 17.346 2.70002 17.3441C2.70002 17.3422 2.70002 17.3404 2.70002 17.3385C2.70002 17.3367 2.70002 17.3348 2.70002 17.333C2.70002 17.3311 2.70002 17.3293 2.70002 17.3274C2.70002 17.3256 2.70002 17.3237 2.70002 17.3219C2.70002 17.32 2.70002 17.3182 2.70002 17.3163C2.70002 17.3144 2.70002 17.3126 2.70002 17.3107C2.70002 17.3089 2.70002 17.307 2.70002 17.3052C2.70002 17.3033 2.70002 17.3015 2.70002 17.2996C2.70002 17.2977 2.70002 17.2959 2.70002 17.294C2.70002 17.2922 2.70002 17.2903 2.70002 17.2885C2.70002 17.2866 2.70002 17.2847 2.70002 17.2829C2.70002 17.281 2.70002 17.2792 2.70002 17.2773C2.70002 17.2754 2.70002 17.2736 2.70002 17.2717C2.70002 17.2699 2.70002 17.268 2.70002 17.2661C2.70002 17.2643 2.70002 17.2624 2.70002 17.2606C2.70002 17.2587 2.70002 17.2568 2.70002 17.255C2.70002 17.2531 2.70002 17.2513 2.70002 17.2494C2.70002 17.2475 2.70002 17.2457 2.70002 17.2438C2.70002 17.242 2.70002 17.2401 2.70002 17.2382C2.70002 17.2364 2.70002 17.2345 2.70002 17.2326C2.70002 17.2308 2.70002 17.2289 2.70002 17.2271C2.70002 17.2252 2.70002 17.2233 2.70002 17.2215C2.70002 17.2196 2.70002 17.2177 2.70002 17.2159C2.70002 17.214 2.70002 17.2121 2.70002 17.2103C2.70002 17.2084 2.70002 17.2065 2.70002 17.2047C2.70002 17.2028 2.70002 17.201 2.70002 17.1991C2.70002 17.1972 2.70002 17.1954 2.70002 17.1935C2.70002 17.1916 2.70002 17.1898 2.70002 17.1879C2.70002 17.186 2.70002 17.1842 2.70002 17.1823C2.70002 17.1804 2.70002 17.1786 2.70002 17.1767C2.70002 17.1748 2.70002 17.173 2.70002 17.1711C2.70002 17.1692 2.70002 17.1674 2.70002 17.1655C2.70002 17.1636 2.70002 17.1618 2.70002 17.1599C2.70002 17.158 2.70002 17.1561 2.70002 17.1543C2.70002 17.1524 2.70002 17.1505 2.70002 17.1487C2.70002 17.1468 2.70002 17.1449 2.70002 17.1431C2.70002 17.1412 2.70002 17.1393 2.70002 17.1375C2.70002 17.1356 2.70002 17.1337 2.70002 17.1319C2.70002 17.13 2.70002 17.1281 2.70002 17.1262C2.70002 17.1244 2.70002 17.1225 2.70002 17.1206C2.70002 17.1188 2.70002 17.1169 2.70002 17.115C2.70002 17.1132 2.70002 17.1113 2.70002 17.1094C2.70002 17.1075 2.70002 17.1057 2.70002 17.1038C2.70002 17.1019 2.70002 17.1001 2.70002 17.0982C2.70002 17.0963 2.70002 17.0945 2.70002 17.0926C2.70002 17.0907 2.70002 17.0888 2.70002 17.087C2.70002 17.0851 2.70002 17.0832 2.70002 17.0814C2.70002 17.0795 2.70002 17.0776 2.70002 17.0757C2.70002 17.0739 2.70002 17.072 2.70002 17.0701C2.70002 17.0683 2.70002 17.0664 2.70002 17.0645C2.70002 17.0626 2.70002 17.0608 2.70002 17.0589C2.70002 17.057 2.70002 17.0551 2.70002 17.0533C2.70002 17.0514 2.70002 17.0495 2.70002 17.0477C2.70002 17.0458 2.70002 17.0439 2.70002 17.042C2.70002 17.0402 2.70002 17.0383 2.70002 17.0364C2.70002 17.0345 2.70002 17.0327 2.70002 17.0308C2.70002 17.0289 2.70002 17.0271 2.70002 17.0252C2.70002 17.0233 2.70002 17.0214 2.70002 17.0196C2.70002 17.0177 2.70002 17.0158 2.70002 17.0139C2.70002 17.0121 2.70002 17.0102 2.70002 17.0083C2.70002 17.0065 2.70002 17.0046 2.70002 17.0027C2.70002 17.0008 2.70002 16.999 2.70002 16.9971C2.70002 16.9952 2.70002 16.9933 2.70002 16.9915C2.70002 16.9896 2.70002 16.9877 2.70002 16.9858C2.70002 16.984 2.70002 16.9821 2.70002 16.9802C2.70002 16.9784 2.70002 16.9765 2.70002 16.9746C2.70002 16.9727 2.70002 16.9709 2.70002 16.969C2.70002 16.9671 2.70002 16.9652 2.70002 16.9634C2.70002 16.9615 2.70002 16.9596 2.70002 16.9577C2.70002 16.9559 2.70002 16.954 2.70002 16.9521C2.70002 16.9503 2.70002 16.9484 2.70002 16.9465C2.70002 16.9446 2.70002 16.9428 2.70002 16.9409C2.70002 16.939 2.70002 16.9371 2.70002 16.9353C2.70002 16.9334 2.70002 16.9315 2.70002 16.9296C2.70002 16.9278 2.70002 16.9259 2.70002 16.924C2.70002 16.9222 2.70002 16.9203 2.70002 16.9184C2.70002 16.9165 2.70002 16.9147 2.70002 16.9128C2.70002 16.9109 2.70002 16.909 2.70002 16.9072C2.70002 16.9053 2.70002 16.9034 2.70002 16.9016C2.70002 16.8997 2.70002 16.8978 2.70002 16.8959C2.70002 16.8941 2.70002 16.8922 2.70002 16.8903C2.70002 16.8884 2.70002 16.8866 2.70002 16.8847C2.70002 16.8828 2.70002 16.881 2.70002 16.8791C2.70002 16.8772 2.70002 16.8753 2.70002 16.8735C2.70002 16.8716 2.70002 16.8697 2.70002 16.8679C2.70002 16.866 2.70002 16.8641 2.70002 16.8622C2.70002 16.8604 2.70002 16.8585 2.70002 16.8566C2.70002 16.8547 2.70002 16.8529 2.70002 16.851C2.70002 16.8491 2.70002 16.8473 2.70002 16.8454C2.70002 16.8435 2.70002 16.8417 2.70002 16.8398C2.70002 16.8379 2.70002 16.836 2.70002 16.8342C2.70002 16.8323 2.70002 16.8304 2.70002 16.8286C2.70002 16.8267 2.70002 16.8248 2.70002 16.8229C2.70002 16.8211 2.70002 16.8192 2.70002 16.8173C2.70002 16.8155 2.70002 16.8136 2.70002 16.8117C2.70002 16.8099 2.70002 16.808 2.70002 16.8061C2.70002 16.8042 2.70002 16.8024 2.70002 16.8005C2.70002 16.7986 2.70002 16.7968 2.70002 16.7949C2.70002 16.793 2.70002 16.7912 2.70002 16.7893C2.70002 16.7874 2.70002 16.7856 2.70002 16.7837C2.70002 16.7818 2.70002 16.78 2.70002 16.7781C2.70002 16.7762 2.70002 16.7744 2.70002 16.7725C2.70002 16.7706 2.70002 16.7688 2.70002 16.7669C2.70002 16.765 2.70002 16.7631 2.70002 16.7613C2.70002 16.7594 2.70002 16.7575 2.70002 16.7557C2.70002 16.7538 2.70002 16.7519 2.70002 16.7501C2.70002 16.7482 2.70002 16.7464 2.70002 16.7445C2.70002 16.7426 2.70002 16.7408 2.70002 16.7389C2.70002 16.737 2.70002 16.7352 2.70002 16.7333C2.70002 16.7314 2.70002 16.7296 2.70002 16.7277C2.70002 16.7258 2.70002 16.724 2.70002 16.7221C2.70002 16.7202 2.70002 16.7184 2.70002 16.7165C2.70002 16.7147 2.70002 16.7128 2.70002 16.7109C2.70002 16.7091 2.70002 16.7072 2.70002 16.7053C2.70002 16.7035 2.70002 16.7016 2.70002 16.6997C2.70002 16.6979 2.70002 16.696 2.70002 16.6942C2.70002 16.6923 2.70002 16.6904 2.70002 16.6886C2.70002 16.6867 2.70002 16.6849 2.70002 16.683C2.70002 16.6811 2.70002 16.6793 2.70002 16.6774C2.70002 16.6755 2.70002 16.6737 2.70002 16.6718C2.70002 16.67 2.70002 16.6681 2.70002 16.6662C2.70002 16.6644 2.70002 16.6625 2.70002 16.6607C2.70002 16.6588 2.70002 16.657 2.70002 16.6551C2.70002 16.6532 2.70002 16.6514 2.70002 16.6495C2.70002 16.6477 2.70002 16.6458 2.70002 16.6439C2.70002 16.6421 2.70002 16.6402 2.70002 16.6384C2.70002 16.6365 2.70002 16.6347 2.70002 16.6328C2.70002 16.631 2.70002 16.6291 2.70002 16.6272C2.70002 16.6254 2.70002 16.6235 2.70002 16.6217C2.70002 16.6198 2.70002 16.618 2.70002 16.6161C2.70002 16.6143 2.70002 16.6124 2.70002 16.6105C2.70002 16.6087 2.70002 16.6068 2.70002 16.605C2.70002 16.6031 2.70002 16.6013 2.70002 16.5994C2.70002 16.5976 2.70002 16.5957 2.70002 16.5939C2.70002 16.592 2.70002 16.5902 2.70002 16.5883C2.70002 16.5865 2.70002 16.5846 2.70002 16.5828C2.70002 16.5809 2.70002 16.5791 2.70002 16.5772C2.70002 16.5754 2.70002 16.5735 2.70002 16.5717C2.70002 16.5698 2.70002 16.568 2.70002 16.5661C2.70002 16.5643 2.70002 16.5624 2.70002 16.5606C2.70002 16.5587 2.70002 16.5569 2.70002 16.555C2.70002 16.5532 2.70002 16.5513 2.70002 16.5495C2.70002 16.5476 2.70002 16.5458 2.70002 16.544C2.70002 16.5421 2.70002 16.5403 2.70002 16.5384C2.70002 16.5366 2.70002 16.5347 2.70002 16.5329C2.70002 16.531 2.70002 16.5292 2.70002 16.5274C2.70002 16.5255 2.70002 16.5237 2.70002 16.5218C2.70002 16.52 2.70002 16.5181 2.70002 16.5163C2.70002 16.5145 2.70002 16.5126 2.70002 16.5108C2.70002 16.5089 2.70002 16.5071 2.70002 16.5052C2.70002 16.5034 2.70002 16.5016 2.70002 16.4997C2.70002 16.4979 2.70002 16.496 2.70002 16.4942C2.70002 16.4924 2.70002 16.4905 2.70002 16.4887C2.70002 16.4869 2.70002 16.485 2.70002 16.4832C2.70002 16.4813 2.70002 16.4795 2.70002 16.4777C2.70002 16.4758 2.70002 16.474 2.70002 16.4722C2.70002 16.4703 2.70002 16.4685 2.70002 16.4667C2.70002 16.4648 2.70002 16.463 2.70002 16.4612C2.70002 16.4593 2.70002 16.4575 2.70002 16.4557C2.70002 16.4538 2.70002 16.452 2.70002 16.4502C2.70002 16.4483 2.70002 16.4465 2.70002 16.4447C2.70002 16.4428 2.70002 16.441 2.70002 16.4392C2.70002 16.4373 2.70002 16.4355 2.70002 16.4337C2.70002 16.4319 2.70002 16.43 2.70002 16.4282C2.70002 16.4264 2.70002 16.4245 2.70002 16.4227C2.70002 16.4209 2.70002 16.4191 2.70002 16.4172C2.70002 16.4154 2.70002 16.4136 2.70002 16.4118C2.70002 16.4099 2.70002 16.4081 2.70002 16.4063C2.70002 16.4045 2.70002 16.4026 2.70002 16.4008C2.70002 16.399 2.70002 16.3972 2.70002 16.3953C2.70002 16.3935 2.70002 16.3917 2.70002 16.3899C2.70002 16.3881 2.70002 16.3862 2.70002 16.3844C2.70002 16.3826 2.70002 16.3808 2.70002 16.3789C2.70002 16.3771 2.70002 16.3753 2.70002 16.3735C2.70002 16.3717 2.70002 16.3699 2.70002 16.368C2.70002 16.3662 2.70002 16.3644 2.70002 16.3626C2.70002 16.3608 2.70002 16.359 2.70002 16.3571C2.70002 16.3553 2.70002 16.3535 2.70002 16.3517C2.70002 16.3499 2.70002 16.3481 2.70002 16.3463C2.70002 16.3444 2.70002 16.3426 2.70002 16.3408C2.70002 16.339 2.70002 16.3372 2.70002 16.3354C2.70002 16.3336 2.70002 16.3318 2.70002 16.3299C2.70002 16.3281 2.70002 16.3263 2.70002 16.3245C2.70002 16.3227 2.70002 16.3209 2.70002 16.3191C2.70002 16.3173 2.70002 16.3155 2.70002 16.3137C2.70002 16.3119 2.70002 16.3101 2.70002 16.3083C2.70002 16.3064 2.70002 16.3046 2.70002 16.3028C2.70002 16.301 2.70002 16.2992 2.70002 16.2974C2.70002 16.2956 2.70002 16.2938 2.70002 16.292C2.70002 16.2902 2.70002 16.2884 2.70002 16.2866C2.70002 16.2848 2.70002 16.283 2.70002 16.2812C2.70002 16.2794 2.70002 16.2776 2.70002 16.2758C2.70002 16.274 2.70002 16.2722 2.70002 16.2704C2.70002 16.2686 2.70002 16.2668 2.70002 16.265C2.70002 16.2632 2.70002 16.2614 2.70002 16.2596C2.70002 16.2578 2.70002 16.2561 2.70002 16.2543C2.70002 16.2525 2.70002 16.2507 2.70002 16.2489C2.70002 16.2471 2.70002 16.2453 2.70002 16.2435C2.70002 16.2417 2.70002 16.2399 2.70002 16.2381C2.70002 16.2363 2.70002 16.2346 2.70002 16.2328C2.70002 16.231 2.70002 16.2292 2.70002 16.2274C2.70002 16.2256 2.70002 16.2238 2.70002 16.222C2.70002 16.2203 2.70002 16.2185 2.70002 16.2167C2.70002 16.2149 2.70002 16.2131 2.70002 16.2113C2.70002 16.2095 2.70002 16.2078 2.70002 16.206C2.70002 16.2042 2.70002 16.2024 2.70002 16.2006C2.70002 16.1989 2.70002 16.1971 2.70002 16.1953C2.70002 16.1935 2.70002 16.1917 2.70002 16.19C2.70002 16.1882 2.70002 16.1864 2.70002 16.1846C2.70002 16.1829 2.70002 16.1811 2.70002 16.1793C2.70002 16.1775 2.70002 16.1758 2.70002 16.174C2.70002 16.1722 2.70002 16.1704 2.70002 16.1687C2.70002 16.1669 2.70002 16.1651 2.70002 16.1633C2.70002 16.1616 2.70002 16.1598 2.70002 16.158C2.70002 16.1563 2.70002 16.1545 2.70002 16.1527C2.70002 16.151 2.70002 16.1492 2.70002 16.1474C2.70002 16.1457 2.70002 16.1439 2.70002 16.1421C2.70002 16.1404 2.70002 16.1386 2.70002 16.1368C2.70002 16.1351 2.70002 16.1333 2.70002 16.1315C2.70002 16.1298 2.70002 16.128 2.70002 16.1262C2.70002 16.1245 2.70002 16.1227 2.70002 16.121C2.70002 16.1192 2.70002 16.1174 2.70002 16.1157C2.70002 16.1139 2.70002 16.1122 2.70002 16.1104C2.70002 16.1087 2.70002 16.1069 2.70002 16.1051C2.70002 16.1034 2.70002 16.1016 2.70002 16.0999C2.70002 16.0981 2.70002 16.0964 2.70002 16.0946C2.70002 16.0929 2.70002 16.0911 2.70002 16.0894C2.70002 16.0876 2.70002 16.0859 2.70002 16.0841C2.70002 16.0824 2.70002 16.0806 2.70002 16.0789C2.70002 16.0771 2.70002 16.0754 2.70002 16.0736C2.70002 16.0719 2.70002 16.0701 2.70002 16.0684C2.70002 16.0667 2.70002 16.0649 2.70002 16.0632C2.70002 16.0614 2.70002 16.0597 2.70002 16.0579C2.70002 16.0562 2.70002 16.0545 2.70002 16.0527C2.70002 16.051 2.70002 16.0492 2.70002 16.0475C2.70002 16.0458 2.70002 16.044 2.70002 16.0423C2.70002 16.0406 2.70002 16.0388 2.70002 16.0371C2.70002 16.0353 2.70002 16.0336 2.70002 16.0319C2.70002 16.0301 2.70002 16.0284 2.70002 16.0267C2.70002 16.0249 2.70002 16.0232 2.70002 16.0215C2.70002 16.0198 2.70002 16.018 2.70002 16.0163C2.70002 16.0146 2.70002 16.0128 2.70002 16.0111C2.70002 16.0094 2.70002 16.0077 2.70002 16.0059C2.70002 16.0042 2.70002 16.0025 2.70002 16.0008C2.70002 15.999 2.70002 15.9973 2.70002 15.9956C2.70002 15.9939 2.70002 15.9922 2.70002 15.9904C2.70002 15.9887 2.70002 15.987 2.70002 15.9853C2.70002 15.9836 2.70002 15.9818 2.70002 15.9801C2.70002 15.9784 2.70002 15.9767 2.70002 15.975C2.70002 15.9733 2.70002 15.9716 2.70002 15.9698C2.70002 15.9681 2.70002 15.9664 2.70002 15.9647C2.70002 15.963 2.70002 15.9613 2.70002 15.9596C2.70002 15.9579 2.70002 15.9562 2.70002 15.9544C2.70002 15.9527 2.70002 15.951 2.70002 15.9493C2.70002 15.9476 2.70002 15.9459 2.70002 15.9442C2.70002 15.9425 2.70002 15.9408 2.70002 15.9391C2.70002 15.9374 2.70002 15.9357 2.70002 15.934C2.70002 15.9323 2.70002 15.9306 2.70002 15.9289C2.70002 15.9272 2.70002 15.9255 2.70002 15.9238C2.70002 15.9221 2.70002 15.9204 2.70002 15.9187C2.70002 15.917 2.70002 15.9153 2.70002 15.9136C2.70002 15.9119 2.70002 15.9102 2.70002 15.9086C2.70002 15.9069 2.70002 15.9052 2.70002 15.9035C2.70002 15.9018 2.70002 15.9001 2.70002 15.8984C2.70002 15.8967 2.70002 15.895 2.70002 15.8934C2.70002 15.8917 2.70002 15.89 2.70002 15.8883C2.70002 15.8866 2.70002 15.8849 2.70002 15.8833C2.70002 15.8816 2.70002 15.8799 2.70002 15.8782C2.70002 15.8765 2.70002 15.8749 2.70002 15.8732C2.70002 15.8715 2.70002 15.8698 2.70002 15.8681C2.70002 15.8665 2.70002 15.8648 2.70002 15.8631C2.70002 15.8614 2.70002 15.8598 2.70002 15.8581C2.70002 15.8564 2.70002 15.8548 2.70002 15.8531C2.70002 15.8514 2.70002 15.8497 2.70002 15.8481C2.70002 15.8464 2.70002 15.8447 2.70002 15.8431C2.70002 15.8414 2.70002 15.8397 2.70002 15.8381C2.70002 15.8364 2.70002 15.8348 2.70002 15.8331C2.70002 15.8314 2.70002 15.8298 2.70002 15.8281C2.70002 15.8265 2.70002 15.8248 2.70002 15.8231C2.70002 15.8215 2.70002 15.8198 2.70002 15.8182C2.70002 15.8165 2.70002 15.8149 2.70002 15.8132C2.70002 15.8115 2.70002 15.8099 2.70002 15.8082C2.70002 15.8066 2.70002 15.8049 2.70002 15.8033C2.70002 15.8016 2.70002 15.8 2.70002 15.7983C2.70002 15.7967 2.70002 15.795 2.70002 15.7934C2.70002 15.7918 2.70002 15.7901 2.70002 15.7885C2.70002 15.7868 2.70002 15.7852 2.70002 15.7835C2.70002 15.7819 2.70002 15.7803 2.70002 15.7786C2.70002 15.777 2.70002 15.7753 2.70002 15.7737C2.70002 15.7721 2.70002 15.7704 2.70002 15.7688C2.70002 15.7672 2.70002 15.7655 2.70002 15.7639C2.70002 15.7623 2.70002 15.7606 2.70002 15.759C2.70002 15.7574 2.70002 15.7557 2.70002 15.7541C2.70002 15.7525 2.70002 15.7508 2.70002 15.7492C2.70002 15.7476 2.70002 15.746 2.70002 15.7443C2.70002 15.7427 2.70002 15.7411 2.70002 15.7395C2.70002 15.7378 2.70002 15.7362 2.70002 15.7346C2.70002 15.733 2.70002 15.7314 2.70002 15.7298C2.70002 15.7281 2.70002 15.7265 2.70002 15.7249C2.70002 15.7233 2.70002 15.7217 2.70002 15.7201C2.70002 15.7184 2.70002 15.7168 2.70002 15.7152C2.70002 15.7136 2.70002 15.712 2.70002 15.7104C2.70002 15.7088 2.70002 15.7072 2.70002 15.7056C2.70002 15.704 2.70002 15.7024 2.70002 15.7008C2.70002 15.6991 2.70002 15.6975 2.70002 15.6959C2.70002 15.6943 2.70002 15.6927 2.70002 15.6911C2.70002 15.6895 2.70002 15.6879 2.70002 15.6863C2.70002 15.6847 2.70002 15.6831 2.70002 15.6816C2.70002 15.68 2.70002 15.6784 2.70002 15.6768C2.70002 15.6752 2.70002 15.6736 2.70002 15.672C2.70002 15.6704 2.70002 15.6688 2.70002 15.6672C2.70002 15.6656 2.70002 15.6641 2.70002 15.6625C2.70002 15.6609 2.70002 15.6593 2.70002 15.6577C2.70002 15.6561 2.70002 15.6545 2.70002 15.653C2.70002 15.6514 2.70002 15.6498 2.70002 15.6482C2.70002 15.6466 2.70002 15.6451 2.70002 15.6435C2.70002 15.6419 2.70002 15.6403 2.70002 15.6388C2.70002 15.6372 2.70002 15.6356 2.70002 15.634C2.70002 15.6325 2.70002 15.6309 2.70002 15.6293C2.70002 15.6278 2.70002 15.6262 2.70002 15.6246C2.70002 15.6231 2.70002 15.6215 2.70002 15.6199C2.70002 15.6184 2.70002 15.6168 2.70002 15.6152C2.70002 15.6137 2.70002 15.6121 2.70002 15.6106C2.70002 15.609 2.70002 15.6074 2.70002 15.6059C2.70002 15.6043 2.70002 15.6028 2.70002 15.6012C2.70002 15.5997 2.70002 15.5981 2.70002 15.5966C2.70002 15.595 2.70002 15.5935 2.70002 15.5919C2.70002 15.5904 2.70002 15.5888 2.70002 15.5873C2.70002 15.5857 2.70002 15.5842 2.70002 15.5826C2.70002 15.5811 2.70002 15.5795 2.70002 15.578C2.70002 15.5765 2.70002 15.5749 2.70002 15.5734C2.70002 15.5718 2.70002 15.5703 2.70002 15.5688C2.70002 15.5672 2.70002 15.5657 2.70002 15.5641C2.70002 15.5626 2.70002 15.5611 2.70002 15.5595C2.70002 15.558 2.70002 15.5565 2.70002 15.555C2.70002 15.5534 2.70002 15.5519 2.70002 15.5504C2.70002 15.5488 2.70002 15.5473 2.70002 15.5458C2.70002 15.5443 2.70002 15.5427 2.70002 15.5412C2.70002 15.5397 2.70002 15.5382 2.70002 15.5367C2.70002 15.5351 2.70002 15.5336 2.70002 15.5321C2.70002 15.5306 2.70002 15.5291 2.70002 15.5276C2.70002 15.5261 2.70002 15.5245 2.70002 15.523C2.70002 15.5215 2.70002 15.52 2.70002 15.5185C2.70002 15.517 2.70002 15.5155 2.70002 15.514C2.70002 15.5125 2.70002 15.511 2.70002 15.5095C2.70002 15.508 2.70002 15.5065 2.70002 15.505C2.70002 15.5035 2.70002 15.502 2.70002 15.5005C2.70002 15.499 2.70002 15.4975 2.70002 15.496C2.70002 15.4945 2.70002 15.493 2.70002 15.4915C2.70002 15.49 2.70002 15.4885 2.70002 15.487C2.70002 15.4855 2.70002 15.484 2.70002 15.4825C2.70002 15.4811 2.70002 15.4796 2.70002 15.4781C2.70002 15.4766 2.70002 15.4751 2.70002 15.4736C2.70002 15.4722 2.70002 15.4707 2.70002 15.4692C2.70002 15.4677 2.70002 15.4662 2.70002 15.4648C2.70002 15.4633 2.70002 15.4618 2.70002 15.4603C2.70002 15.4589 2.70002 15.4574 2.70002 15.4559C2.70002 15.4545 2.70002 15.453 2.70002 15.4515C2.70002 15.4501 2.70002 15.4486 2.70002 15.4471C2.70002 15.4457 2.70002 15.4442 2.70002 15.4427C2.70002 15.4413 2.70002 15.4398 2.70002 15.4383C2.70002 15.4369 2.70002 15.4354 2.70002 15.434C2.70002 15.4325 2.70002 15.4311 2.70002 15.4296C2.70002 15.4282 2.70002 15.4267 2.70002 15.4253C2.70002 15.4238 2.70002 15.4224 2.70002 15.4209C2.70002 15.4195 2.70002 15.418 2.70002 15.4166C2.70002 15.4151 2.70002 15.4137 2.70002 15.4122C2.70002 15.4108 2.70002 15.4093 2.70002 15.4079C2.70002 15.4065 2.70002 15.405 2.70002 15.4036C2.70002 15.4022 2.70002 15.4007 2.70002 15.3993H1.10002C1.10002 15.4007 1.10002 15.4022 1.10002 15.4036C1.10002 15.405 1.10002 15.4065 1.10002 15.4079C1.10002 15.4093 1.10002 15.4108 1.10002 15.4122C1.10002 15.4137 1.10002 15.4151 1.10002 15.4166C1.10002 15.418 1.10002 15.4195 1.10002 15.4209C1.10002 15.4224 1.10002 15.4238 1.10002 15.4253C1.10002 15.4267 1.10002 15.4282 1.10002 15.4296C1.10002 15.4311 1.10002 15.4325 1.10002 15.434C1.10002 15.4354 1.10002 15.4369 1.10002 15.4383C1.10002 15.4398 1.10002 15.4413 1.10002 15.4427C1.10002 15.4442 1.10002 15.4457 1.10002 15.4471C1.10002 15.4486 1.10002 15.4501 1.10002 15.4515C1.10002 15.453 1.10002 15.4545 1.10002 15.4559C1.10002 15.4574 1.10002 15.4589 1.10002 15.4603C1.10002 15.4618 1.10002 15.4633 1.10002 15.4648C1.10002 15.4662 1.10002 15.4677 1.10002 15.4692C1.10002 15.4707 1.10002 15.4722 1.10002 15.4736C1.10002 15.4751 1.10002 15.4766 1.10002 15.4781C1.10002 15.4796 1.10002 15.4811 1.10002 15.4825C1.10002 15.484 1.10002 15.4855 1.10002 15.487C1.10002 15.4885 1.10002 15.49 1.10002 15.4915C1.10002 15.493 1.10002 15.4945 1.10002 15.496C1.10002 15.4975 1.10002 15.499 1.10002 15.5005C1.10002 15.502 1.10002 15.5035 1.10002 15.505C1.10002 15.5065 1.10002 15.508 1.10002 15.5095C1.10002 15.511 1.10002 15.5125 1.10002 15.514C1.10002 15.5155 1.10002 15.517 1.10002 15.5185C1.10002 15.52 1.10002 15.5215 1.10002 15.523C1.10002 15.5245 1.10002 15.5261 1.10002 15.5276C1.10002 15.5291 1.10002 15.5306 1.10002 15.5321C1.10002 15.5336 1.10002 15.5351 1.10002 15.5367C1.10002 15.5382 1.10002 15.5397 1.10002 15.5412C1.10002 15.5427 1.10002 15.5443 1.10002 15.5458C1.10002 15.5473 1.10002 15.5488 1.10002 15.5504C1.10002 15.5519 1.10002 15.5534 1.10002 15.555C1.10002 15.5565 1.10002 15.558 1.10002 15.5595C1.10002 15.5611 1.10002 15.5626 1.10002 15.5641C1.10002 15.5657 1.10002 15.5672 1.10002 15.5688C1.10002 15.5703 1.10002 15.5718 1.10002 15.5734C1.10002 15.5749 1.10002 15.5765 1.10002 15.578C1.10002 15.5795 1.10002 15.5811 1.10002 15.5826C1.10002 15.5842 1.10002 15.5857 1.10002 15.5873C1.10002 15.5888 1.10002 15.5904 1.10002 15.5919C1.10002 15.5935 1.10002 15.595 1.10002 15.5966C1.10002 15.5981 1.10002 15.5997 1.10002 15.6012C1.10002 15.6028 1.10002 15.6043 1.10002 15.6059C1.10002 15.6074 1.10002 15.609 1.10002 15.6106C1.10002 15.6121 1.10002 15.6137 1.10002 15.6152C1.10002 15.6168 1.10002 15.6184 1.10002 15.6199C1.10002 15.6215 1.10002 15.6231 1.10002 15.6246C1.10002 15.6262 1.10002 15.6278 1.10002 15.6293C1.10002 15.6309 1.10002 15.6325 1.10002 15.634C1.10002 15.6356 1.10002 15.6372 1.10002 15.6388C1.10002 15.6403 1.10002 15.6419 1.10002 15.6435C1.10002 15.6451 1.10002 15.6466 1.10002 15.6482C1.10002 15.6498 1.10002 15.6514 1.10002 15.653C1.10002 15.6545 1.10002 15.6561 1.10002 15.6577C1.10002 15.6593 1.10002 15.6609 1.10002 15.6625C1.10002 15.6641 1.10002 15.6656 1.10002 15.6672C1.10002 15.6688 1.10002 15.6704 1.10002 15.672C1.10002 15.6736 1.10002 15.6752 1.10002 15.6768C1.10002 15.6784 1.10002 15.68 1.10002 15.6816C1.10002 15.6831 1.10002 15.6847 1.10002 15.6863C1.10002 15.6879 1.10002 15.6895 1.10002 15.6911C1.10002 15.6927 1.10002 15.6943 1.10002 15.6959C1.10002 15.6975 1.10002 15.6991 1.10002 15.7008C1.10002 15.7024 1.10002 15.704 1.10002 15.7056C1.10002 15.7072 1.10002 15.7088 1.10002 15.7104C1.10002 15.712 1.10002 15.7136 1.10002 15.7152C1.10002 15.7168 1.10002 15.7184 1.10002 15.7201C1.10002 15.7217 1.10002 15.7233 1.10002 15.7249C1.10002 15.7265 1.10002 15.7281 1.10002 15.7298C1.10002 15.7314 1.10002 15.733 1.10002 15.7346C1.10002 15.7362 1.10002 15.7378 1.10002 15.7395C1.10002 15.7411 1.10002 15.7427 1.10002 15.7443C1.10002 15.746 1.10002 15.7476 1.10002 15.7492C1.10002 15.7508 1.10002 15.7525 1.10002 15.7541C1.10002 15.7557 1.10002 15.7574 1.10002 15.759C1.10002 15.7606 1.10002 15.7623 1.10002 15.7639C1.10002 15.7655 1.10002 15.7672 1.10002 15.7688C1.10002 15.7704 1.10002 15.7721 1.10002 15.7737C1.10002 15.7753 1.10002 15.777 1.10002 15.7786C1.10002 15.7803 1.10002 15.7819 1.10002 15.7835C1.10002 15.7852 1.10002 15.7868 1.10002 15.7885C1.10002 15.7901 1.10002 15.7918 1.10002 15.7934C1.10002 15.795 1.10002 15.7967 1.10002 15.7983C1.10002 15.8 1.10002 15.8016 1.10002 15.8033C1.10002 15.8049 1.10002 15.8066 1.10002 15.8082C1.10002 15.8099 1.10002 15.8115 1.10002 15.8132C1.10002 15.8149 1.10002 15.8165 1.10002 15.8182C1.10002 15.8198 1.10002 15.8215 1.10002 15.8231C1.10002 15.8248 1.10002 15.8265 1.10002 15.8281C1.10002 15.8298 1.10002 15.8314 1.10002 15.8331C1.10002 15.8348 1.10002 15.8364 1.10002 15.8381C1.10002 15.8397 1.10002 15.8414 1.10002 15.8431C1.10002 15.8447 1.10002 15.8464 1.10002 15.8481C1.10002 15.8497 1.10002 15.8514 1.10002 15.8531C1.10002 15.8548 1.10002 15.8564 1.10002 15.8581C1.10002 15.8598 1.10002 15.8614 1.10002 15.8631C1.10002 15.8648 1.10002 15.8665 1.10002 15.8681C1.10002 15.8698 1.10002 15.8715 1.10002 15.8732C1.10002 15.8749 1.10002 15.8765 1.10002 15.8782C1.10002 15.8799 1.10002 15.8816 1.10002 15.8833C1.10002 15.8849 1.10002 15.8866 1.10002 15.8883C1.10002 15.89 1.10002 15.8917 1.10002 15.8934C1.10002 15.895 1.10002 15.8967 1.10002 15.8984C1.10002 15.9001 1.10002 15.9018 1.10002 15.9035C1.10002 15.9052 1.10002 15.9069 1.10002 15.9086C1.10002 15.9102 1.10002 15.9119 1.10002 15.9136C1.10002 15.9153 1.10002 15.917 1.10002 15.9187C1.10002 15.9204 1.10002 15.9221 1.10002 15.9238C1.10002 15.9255 1.10002 15.9272 1.10002 15.9289C1.10002 15.9306 1.10002 15.9323 1.10002 15.934C1.10002 15.9357 1.10002 15.9374 1.10002 15.9391C1.10002 15.9408 1.10002 15.9425 1.10002 15.9442C1.10002 15.9459 1.10002 15.9476 1.10002 15.9493C1.10002 15.951 1.10002 15.9527 1.10002 15.9544C1.10002 15.9562 1.10002 15.9579 1.10002 15.9596C1.10002 15.9613 1.10002 15.963 1.10002 15.9647C1.10002 15.9664 1.10002 15.9681 1.10002 15.9698C1.10002 15.9716 1.10002 15.9733 1.10002 15.975C1.10002 15.9767 1.10002 15.9784 1.10002 15.9801C1.10002 15.9818 1.10002 15.9836 1.10002 15.9853C1.10002 15.987 1.10002 15.9887 1.10002 15.9904C1.10002 15.9922 1.10002 15.9939 1.10002 15.9956C1.10002 15.9973 1.10002 15.999 1.10002 16.0008C1.10002 16.0025 1.10002 16.0042 1.10002 16.0059C1.10002 16.0077 1.10002 16.0094 1.10002 16.0111C1.10002 16.0128 1.10002 16.0146 1.10002 16.0163C1.10002 16.018 1.10002 16.0198 1.10002 16.0215C1.10002 16.0232 1.10002 16.0249 1.10002 16.0267C1.10002 16.0284 1.10002 16.0301 1.10002 16.0319C1.10002 16.0336 1.10002 16.0353 1.10002 16.0371C1.10002 16.0388 1.10002 16.0406 1.10002 16.0423C1.10002 16.044 1.10002 16.0458 1.10002 16.0475C1.10002 16.0492 1.10002 16.051 1.10002 16.0527C1.10002 16.0545 1.10002 16.0562 1.10002 16.0579C1.10002 16.0597 1.10002 16.0614 1.10002 16.0632C1.10002 16.0649 1.10002 16.0667 1.10002 16.0684C1.10002 16.0701 1.10002 16.0719 1.10002 16.0736C1.10002 16.0754 1.10002 16.0771 1.10002 16.0789C1.10002 16.0806 1.10002 16.0824 1.10002 16.0841C1.10002 16.0859 1.10002 16.0876 1.10002 16.0894C1.10002 16.0911 1.10002 16.0929 1.10002 16.0946C1.10002 16.0964 1.10002 16.0981 1.10002 16.0999C1.10002 16.1016 1.10002 16.1034 1.10002 16.1051C1.10002 16.1069 1.10002 16.1087 1.10002 16.1104C1.10002 16.1122 1.10002 16.1139 1.10002 16.1157C1.10002 16.1174 1.10002 16.1192 1.10002 16.121C1.10002 16.1227 1.10002 16.1245 1.10002 16.1262C1.10002 16.128 1.10002 16.1298 1.10002 16.1315C1.10002 16.1333 1.10002 16.1351 1.10002 16.1368C1.10002 16.1386 1.10002 16.1404 1.10002 16.1421C1.10002 16.1439 1.10002 16.1457 1.10002 16.1474C1.10002 16.1492 1.10002 16.151 1.10002 16.1527C1.10002 16.1545 1.10002 16.1563 1.10002 16.158C1.10002 16.1598 1.10002 16.1616 1.10002 16.1633C1.10002 16.1651 1.10002 16.1669 1.10002 16.1687C1.10002 16.1704 1.10002 16.1722 1.10002 16.174C1.10002 16.1758 1.10002 16.1775 1.10002 16.1793C1.10002 16.1811 1.10002 16.1829 1.10002 16.1846C1.10002 16.1864 1.10002 16.1882 1.10002 16.19C1.10002 16.1917 1.10002 16.1935 1.10002 16.1953C1.10002 16.1971 1.10002 16.1989 1.10002 16.2006C1.10002 16.2024 1.10002 16.2042 1.10002 16.206C1.10002 16.2078 1.10002 16.2095 1.10002 16.2113C1.10002 16.2131 1.10002 16.2149 1.10002 16.2167C1.10002 16.2185 1.10002 16.2203 1.10002 16.222C1.10002 16.2238 1.10002 16.2256 1.10002 16.2274C1.10002 16.2292 1.10002 16.231 1.10002 16.2328C1.10002 16.2346 1.10002 16.2363 1.10002 16.2381C1.10002 16.2399 1.10002 16.2417 1.10002 16.2435C1.10002 16.2453 1.10002 16.2471 1.10002 16.2489C1.10002 16.2507 1.10002 16.2525 1.10002 16.2543C1.10002 16.2561 1.10002 16.2578 1.10002 16.2596C1.10002 16.2614 1.10002 16.2632 1.10002 16.265C1.10002 16.2668 1.10002 16.2686 1.10002 16.2704C1.10002 16.2722 1.10002 16.274 1.10002 16.2758C1.10002 16.2776 1.10002 16.2794 1.10002 16.2812C1.10002 16.283 1.10002 16.2848 1.10002 16.2866C1.10002 16.2884 1.10002 16.2902 1.10002 16.292C1.10002 16.2938 1.10002 16.2956 1.10002 16.2974C1.10002 16.2992 1.10002 16.301 1.10002 16.3028C1.10002 16.3046 1.10002 16.3064 1.10002 16.3083C1.10002 16.3101 1.10002 16.3119 1.10002 16.3137C1.10002 16.3155 1.10002 16.3173 1.10002 16.3191C1.10002 16.3209 1.10002 16.3227 1.10002 16.3245C1.10002 16.3263 1.10002 16.3281 1.10002 16.3299C1.10002 16.3318 1.10002 16.3336 1.10002 16.3354C1.10002 16.3372 1.10002 16.339 1.10002 16.3408C1.10002 16.3426 1.10002 16.3444 1.10002 16.3463C1.10002 16.3481 1.10002 16.3499 1.10002 16.3517C1.10002 16.3535 1.10002 16.3553 1.10002 16.3571C1.10002 16.359 1.10002 16.3608 1.10002 16.3626C1.10002 16.3644 1.10002 16.3662 1.10002 16.368C1.10002 16.3699 1.10002 16.3717 1.10002 16.3735C1.10002 16.3753 1.10002 16.3771 1.10002 16.3789C1.10002 16.3808 1.10002 16.3826 1.10002 16.3844C1.10002 16.3862 1.10002 16.3881 1.10002 16.3899C1.10002 16.3917 1.10002 16.3935 1.10002 16.3953C1.10002 16.3972 1.10002 16.399 1.10002 16.4008C1.10002 16.4026 1.10002 16.4045 1.10002 16.4063C1.10002 16.4081 1.10002 16.4099 1.10002 16.4118C1.10002 16.4136 1.10002 16.4154 1.10002 16.4172C1.10002 16.4191 1.10002 16.4209 1.10002 16.4227C1.10002 16.4245 1.10002 16.4264 1.10002 16.4282C1.10002 16.43 1.10002 16.4319 1.10002 16.4337C1.10002 16.4355 1.10002 16.4373 1.10002 16.4392C1.10002 16.441 1.10002 16.4428 1.10002 16.4447C1.10002 16.4465 1.10002 16.4483 1.10002 16.4502C1.10002 16.452 1.10002 16.4538 1.10002 16.4557C1.10002 16.4575 1.10002 16.4593 1.10002 16.4612C1.10002 16.463 1.10002 16.4648 1.10002 16.4667C1.10002 16.4685 1.10002 16.4703 1.10002 16.4722C1.10002 16.474 1.10002 16.4758 1.10002 16.4777C1.10002 16.4795 1.10002 16.4813 1.10002 16.4832C1.10002 16.485 1.10002 16.4869 1.10002 16.4887C1.10002 16.4905 1.10002 16.4924 1.10002 16.4942C1.10002 16.496 1.10002 16.4979 1.10002 16.4997C1.10002 16.5016 1.10002 16.5034 1.10002 16.5052C1.10002 16.5071 1.10002 16.5089 1.10002 16.5108C1.10002 16.5126 1.10002 16.5145 1.10002 16.5163C1.10002 16.5181 1.10002 16.52 1.10002 16.5218C1.10002 16.5237 1.10002 16.5255 1.10002 16.5274C1.10002 16.5292 1.10002 16.531 1.10002 16.5329C1.10002 16.5347 1.10002 16.5366 1.10002 16.5384C1.10002 16.5403 1.10002 16.5421 1.10002 16.544C1.10002 16.5458 1.10002 16.5476 1.10002 16.5495C1.10002 16.5513 1.10002 16.5532 1.10002 16.555C1.10002 16.5569 1.10002 16.5587 1.10002 16.5606C1.10002 16.5624 1.10002 16.5643 1.10002 16.5661C1.10002 16.568 1.10002 16.5698 1.10002 16.5717C1.10002 16.5735 1.10002 16.5754 1.10002 16.5772C1.10002 16.5791 1.10002 16.5809 1.10002 16.5828C1.10002 16.5846 1.10002 16.5865 1.10002 16.5883C1.10002 16.5902 1.10002 16.592 1.10002 16.5939C1.10002 16.5957 1.10002 16.5976 1.10002 16.5994C1.10002 16.6013 1.10002 16.6031 1.10002 16.605C1.10002 16.6068 1.10002 16.6087 1.10002 16.6105C1.10002 16.6124 1.10002 16.6143 1.10002 16.6161C1.10002 16.618 1.10002 16.6198 1.10002 16.6217C1.10002 16.6235 1.10002 16.6254 1.10002 16.6272C1.10002 16.6291 1.10002 16.631 1.10002 16.6328C1.10002 16.6347 1.10002 16.6365 1.10002 16.6384C1.10002 16.6402 1.10002 16.6421 1.10002 16.6439C1.10002 16.6458 1.10002 16.6477 1.10002 16.6495C1.10002 16.6514 1.10002 16.6532 1.10002 16.6551C1.10002 16.657 1.10002 16.6588 1.10002 16.6607C1.10002 16.6625 1.10002 16.6644 1.10002 16.6662C1.10002 16.6681 1.10002 16.67 1.10002 16.6718C1.10002 16.6737 1.10002 16.6755 1.10002 16.6774C1.10002 16.6793 1.10002 16.6811 1.10002 16.683C1.10002 16.6849 1.10002 16.6867 1.10002 16.6886C1.10002 16.6904 1.10002 16.6923 1.10002 16.6942C1.10002 16.696 1.10002 16.6979 1.10002 16.6997C1.10002 16.7016 1.10002 16.7035 1.10002 16.7053C1.10002 16.7072 1.10002 16.7091 1.10002 16.7109C1.10002 16.7128 1.10002 16.7147 1.10002 16.7165C1.10002 16.7184 1.10002 16.7202 1.10002 16.7221C1.10002 16.724 1.10002 16.7258 1.10002 16.7277C1.10002 16.7296 1.10002 16.7314 1.10002 16.7333C1.10002 16.7352 1.10002 16.737 1.10002 16.7389C1.10002 16.7408 1.10002 16.7426 1.10002 16.7445C1.10002 16.7464 1.10002 16.7482 1.10002 16.7501C1.10002 16.7519 1.10002 16.7538 1.10002 16.7557C1.10002 16.7575 1.10002 16.7594 1.10002 16.7613C1.10002 16.7631 1.10002 16.765 1.10002 16.7669C1.10002 16.7688 1.10002 16.7706 1.10002 16.7725C1.10002 16.7744 1.10002 16.7762 1.10002 16.7781C1.10002 16.78 1.10002 16.7818 1.10002 16.7837C1.10002 16.7856 1.10002 16.7874 1.10002 16.7893C1.10002 16.7912 1.10002 16.793 1.10002 16.7949C1.10002 16.7968 1.10002 16.7986 1.10002 16.8005C1.10002 16.8024 1.10002 16.8042 1.10002 16.8061C1.10002 16.808 1.10002 16.8099 1.10002 16.8117C1.10002 16.8136 1.10002 16.8155 1.10002 16.8173C1.10002 16.8192 1.10002 16.8211 1.10002 16.8229C1.10002 16.8248 1.10002 16.8267 1.10002 16.8286C1.10002 16.8304 1.10002 16.8323 1.10002 16.8342C1.10002 16.836 1.10002 16.8379 1.10002 16.8398C1.10002 16.8417 1.10002 16.8435 1.10002 16.8454C1.10002 16.8473 1.10002 16.8491 1.10002 16.851C1.10002 16.8529 1.10002 16.8547 1.10002 16.8566C1.10002 16.8585 1.10002 16.8604 1.10002 16.8622C1.10002 16.8641 1.10002 16.866 1.10002 16.8679C1.10002 16.8697 1.10002 16.8716 1.10002 16.8735C1.10002 16.8753 1.10002 16.8772 1.10002 16.8791C1.10002 16.881 1.10002 16.8828 1.10002 16.8847C1.10002 16.8866 1.10002 16.8884 1.10002 16.8903C1.10002 16.8922 1.10002 16.8941 1.10002 16.8959C1.10002 16.8978 1.10002 16.8997 1.10002 16.9016C1.10002 16.9034 1.10002 16.9053 1.10002 16.9072C1.10002 16.909 1.10002 16.9109 1.10002 16.9128C1.10002 16.9147 1.10002 16.9165 1.10002 16.9184C1.10002 16.9203 1.10002 16.9222 1.10002 16.924C1.10002 16.9259 1.10002 16.9278 1.10002 16.9296C1.10002 16.9315 1.10002 16.9334 1.10002 16.9353C1.10002 16.9371 1.10002 16.939 1.10002 16.9409C1.10002 16.9428 1.10002 16.9446 1.10002 16.9465C1.10002 16.9484 1.10002 16.9503 1.10002 16.9521C1.10002 16.954 1.10002 16.9559 1.10002 16.9577C1.10002 16.9596 1.10002 16.9615 1.10002 16.9634C1.10002 16.9652 1.10002 16.9671 1.10002 16.969C1.10002 16.9709 1.10002 16.9727 1.10002 16.9746C1.10002 16.9765 1.10002 16.9784 1.10002 16.9802C1.10002 16.9821 1.10002 16.984 1.10002 16.9858C1.10002 16.9877 1.10002 16.9896 1.10002 16.9915C1.10002 16.9933 1.10002 16.9952 1.10002 16.9971C1.10002 16.999 1.10002 17.0008 1.10002 17.0027C1.10002 17.0046 1.10002 17.0065 1.10002 17.0083C1.10002 17.0102 1.10002 17.0121 1.10002 17.0139C1.10002 17.0158 1.10002 17.0177 1.10002 17.0196C1.10002 17.0214 1.10002 17.0233 1.10002 17.0252C1.10002 17.0271 1.10002 17.0289 1.10002 17.0308C1.10002 17.0327 1.10002 17.0345 1.10002 17.0364C1.10002 17.0383 1.10002 17.0402 1.10002 17.042C1.10002 17.0439 1.10002 17.0458 1.10002 17.0477C1.10002 17.0495 1.10002 17.0514 1.10002 17.0533C1.10002 17.0551 1.10002 17.057 1.10002 17.0589C1.10002 17.0608 1.10002 17.0626 1.10002 17.0645C1.10002 17.0664 1.10002 17.0683 1.10002 17.0701C1.10002 17.072 1.10002 17.0739 1.10002 17.0757C1.10002 17.0776 1.10002 17.0795 1.10002 17.0814C1.10002 17.0832 1.10002 17.0851 1.10002 17.087C1.10002 17.0888 1.10002 17.0907 1.10002 17.0926C1.10002 17.0945 1.10002 17.0963 1.10002 17.0982C1.10002 17.1001 1.10002 17.1019 1.10002 17.1038C1.10002 17.1057 1.10002 17.1075 1.10002 17.1094C1.10002 17.1113 1.10002 17.1132 1.10002 17.115C1.10002 17.1169 1.10002 17.1188 1.10002 17.1206C1.10002 17.1225 1.10002 17.1244 1.10002 17.1262C1.10002 17.1281 1.10002 17.13 1.10002 17.1319C1.10002 17.1337 1.10002 17.1356 1.10002 17.1375C1.10002 17.1393 1.10002 17.1412 1.10002 17.1431C1.10002 17.1449 1.10002 17.1468 1.10002 17.1487C1.10002 17.1505 1.10002 17.1524 1.10002 17.1543C1.10002 17.1561 1.10002 17.158 1.10002 17.1599C1.10002 17.1618 1.10002 17.1636 1.10002 17.1655C1.10002 17.1674 1.10002 17.1692 1.10002 17.1711C1.10002 17.173 1.10002 17.1748 1.10002 17.1767C1.10002 17.1786 1.10002 17.1804 1.10002 17.1823C1.10002 17.1842 1.10002 17.186 1.10002 17.1879C1.10002 17.1898 1.10002 17.1916 1.10002 17.1935C1.10002 17.1954 1.10002 17.1972 1.10002 17.1991C1.10002 17.201 1.10002 17.2028 1.10002 17.2047C1.10002 17.2065 1.10002 17.2084 1.10002 17.2103C1.10002 17.2121 1.10002 17.214 1.10002 17.2159C1.10002 17.2177 1.10002 17.2196 1.10002 17.2215C1.10002 17.2233 1.10002 17.2252 1.10002 17.2271C1.10002 17.2289 1.10002 17.2308 1.10002 17.2326C1.10002 17.2345 1.10002 17.2364 1.10002 17.2382C1.10002 17.2401 1.10002 17.242 1.10002 17.2438C1.10002 17.2457 1.10002 17.2475 1.10002 17.2494C1.10002 17.2513 1.10002 17.2531 1.10002 17.255C1.10002 17.2568 1.10002 17.2587 1.10002 17.2606C1.10002 17.2624 1.10002 17.2643 1.10002 17.2661C1.10002 17.268 1.10002 17.2699 1.10002 17.2717C1.10002 17.2736 1.10002 17.2754 1.10002 17.2773C1.10002 17.2792 1.10002 17.281 1.10002 17.2829C1.10002 17.2847 1.10002 17.2866 1.10002 17.2885C1.10002 17.2903 1.10002 17.2922 1.10002 17.294C1.10002 17.2959 1.10002 17.2977 1.10002 17.2996C1.10002 17.3015 1.10002 17.3033 1.10002 17.3052C1.10002 17.307 1.10002 17.3089 1.10002 17.3107C1.10002 17.3126 1.10002 17.3144 1.10002 17.3163C1.10002 17.3182 1.10002 17.32 1.10002 17.3219C1.10002 17.3237 1.10002 17.3256 1.10002 17.3274C1.10002 17.3293 1.10002 17.3311 1.10002 17.333C1.10002 17.3348 1.10002 17.3367 1.10002 17.3385C1.10002 17.3404 1.10002 17.3422 1.10002 17.3441C1.10002 17.346 1.10002 17.3478 1.10002 17.3497C1.10002 17.3515 1.10002 17.3534 1.10002 17.3552C1.10002 17.3571 1.10002 17.3589 1.10002 17.3608C1.10002 17.3626 1.10002 17.3645 1.10002 17.3663C1.10002 17.3682 1.10002 17.37 1.10002 17.3719C1.10002 17.3737 1.10002 17.3756 1.10002 17.3774C1.10002 17.3792 1.10002 17.3811 1.10002 17.3829C1.10002 17.3848 1.10002 17.3866 1.10002 17.3885C1.10002 17.3903 1.10002 17.3922 1.10002 17.394C1.10002 17.3959 1.10002 17.3977 1.10002 17.3996C1.10002 17.4014 1.10002 17.4032 1.10002 17.4051C1.10002 17.4069 1.10002 17.4088 1.10002 17.4106C1.10002 17.4125 1.10002 17.4143 1.10002 17.4162C1.10002 17.418 1.10002 17.4198 1.10002 17.4217C1.10002 17.4235 1.10002 17.4254 1.10002 17.4272C1.10002 17.429 1.10002 17.4309 1.10002 17.4327C1.10002 17.4346 1.10002 17.4364 1.10002 17.4382C1.10002 17.4401 1.10002 17.4419 1.10002 17.4438C1.10002 17.4456 1.10002 17.4474 1.10002 17.4493C1.10002 17.4511 1.10002 17.453 1.10002 17.4548C1.10002 17.4566 1.10002 17.4585 1.10002 17.4603C1.10002 17.4621 1.10002 17.464 1.10002 17.4658C1.10002 17.4676 1.10002 17.4695 1.10002 17.4713C1.10002 17.4731 1.10002 17.475 1.10002 17.4768C1.10002 17.4786 1.10002 17.4805 1.10002 17.4823C1.10002 17.4841 1.10002 17.486 1.10002 17.4878C1.10002 17.4896 1.10002 17.4915 1.10002 17.4933C1.10002 17.4951 1.10002 17.497 1.10002 17.4988C1.10002 17.5006 1.10002 17.5025 1.10002 17.5043C1.10002 17.5061 1.10002 17.5079 1.10002 17.5098C1.10002 17.5116 1.10002 17.5134 1.10002 17.5153C1.10002 17.5171 1.10002 17.5189 1.10002 17.5207C1.10002 17.5226 1.10002 17.5244 1.10002 17.5262C1.10002 17.528 1.10002 17.5299 1.10002 17.5317C1.10002 17.5335 1.10002 17.5353 1.10002 17.5372C1.10002 17.539 1.10002 17.5408 1.10002 17.5426C1.10002 17.5445 1.10002 17.5463 1.10002 17.5481C1.10002 17.5499 1.10002 17.5517 1.10002 17.5536C1.10002 17.5554 1.10002 17.5572 1.10002 17.559C1.10002 17.5608 1.10002 17.5627 1.10002 17.5645C1.10002 17.5663 1.10002 17.5681 1.10002 17.5699C1.10002 17.5718 1.10002 17.5736 1.10002 17.5754C1.10002 17.5772 1.10002 17.579 1.10002 17.5808C1.10002 17.5826 1.10002 17.5845 1.10002 17.5863C1.10002 17.5881 1.10002 17.5899 1.10002 17.5917C1.10002 17.5935 1.10002 17.5953 1.10002 17.5972C1.10002 17.599 1.10002 17.6008 1.10002 17.6026C1.10002 17.6044 1.10002 17.6062 1.10002 17.608C1.10002 17.6098 1.10002 17.6116 1.10002 17.6135C1.10002 17.6153 1.10002 17.6171 1.10002 17.6189C1.10002 17.6207 1.10002 17.6225 1.10002 17.6243C1.10002 17.6261 1.10002 17.6279 1.10002 17.6297C1.10002 17.6315 1.10002 17.6333 1.10002 17.6351C1.10002 17.6369 1.10002 17.6387 1.10002 17.6405C1.10002 17.6423 1.10002 17.6442 1.10002 17.646C1.10002 17.6478 1.10002 17.6496 1.10002 17.6514C1.10002 17.6532 1.10002 17.655 1.10002 17.6568C1.10002 17.6586 1.10002 17.6604 1.10002 17.6622C1.10002 17.664 1.10002 17.6658 1.10002 17.6675C1.10002 17.6693 1.10002 17.6711 1.10002 17.6729C1.10002 17.6747 1.10002 17.6765 1.10002 17.6783C1.10002 17.6801 1.10002 17.6819 1.10002 17.6837C1.10002 17.6855 1.10002 17.6873 1.10002 17.6891C1.10002 17.6909 1.10002 17.6927 1.10002 17.6945C1.10002 17.6963 1.10002 17.698 1.10002 17.6998C1.10002 17.7016 1.10002 17.7034 1.10002 17.7052C1.10002 17.707 1.10002 17.7088 1.10002 17.7106C1.10002 17.7124 1.10002 17.7141 1.10002 17.7159C1.10002 17.7177 1.10002 17.7195 1.10002 17.7213C1.10002 17.7231 1.10002 17.7249 1.10002 17.7266C1.10002 17.7284 1.10002 17.7302 1.10002 17.732C1.10002 17.7338 1.10002 17.7355 1.10002 17.7373C1.10002 17.7391 1.10002 17.7409 1.10002 17.7427C1.10002 17.7445 1.10002 17.7462 1.10002 17.748C1.10002 17.7498 1.10002 17.7516 1.10002 17.7533C1.10002 17.7551 1.10002 17.7569 1.10002 17.7587C1.10002 17.7604 1.10002 17.7622 1.10002 17.764C1.10002 17.7658 1.10002 17.7675 1.10002 17.7693C1.10002 17.7711 1.10002 17.7729 1.10002 17.7746C1.10002 17.7764 1.10002 17.7782 1.10002 17.7799C1.10002 17.7817 1.10002 17.7835 1.10002 17.7852C1.10002 17.787 1.10002 17.7888 1.10002 17.7906C1.10002 17.7923 1.10002 17.7941 1.10002 17.7958C1.10002 17.7976 1.10002 17.7994 1.10002 17.8011C1.10002 17.8029 1.10002 17.8047 1.10002 17.8064C1.10002 17.8082 1.10002 17.81 1.10002 17.8117C1.10002 17.8135 1.10002 17.8152 1.10002 17.817C1.10002 17.8188 1.10002 17.8205 1.10002 17.8223C1.10002 17.824 1.10002 17.8258 1.10002 17.8276C1.10002 17.8293 1.10002 17.8311 1.10002 17.8328C1.10002 17.8346 1.10002 17.8363 1.10002 17.8381C1.10002 17.8398 1.10002 17.8416 1.10002 17.8433C1.10002 17.8451 1.10002 17.8468 1.10002 17.8486C1.10002 17.8503 1.10002 17.8521 1.10002 17.8538C1.10002 17.8556 1.10002 17.8573 1.10002 17.8591C1.10002 17.8608 1.10002 17.8626 1.10002 17.8643C1.10002 17.8661 1.10002 17.8678 1.10002 17.8696C1.10002 17.8713 1.10002 17.8731 1.10002 17.8748C1.10002 17.8765 1.10002 17.8783 1.10002 17.88C1.10002 17.8818 1.10002 17.8835 1.10002 17.8853C1.10002 17.887 1.10002 17.8887 1.10002 17.8905C1.10002 17.8922 1.10002 17.8939 1.10002 17.8957C1.10002 17.8974 1.10002 17.8992 1.10002 17.9009C1.10002 17.9026 1.10002 17.9044 1.10002 17.9061C1.10002 17.9078 1.10002 17.9096 1.10002 17.9113C1.10002 17.913 1.10002 17.9147 1.10002 17.9165C1.10002 17.9182 1.10002 17.9199 1.10002 17.9217C1.10002 17.9234 1.10002 17.9251 1.10002 17.9268C1.10002 17.9286 1.10002 17.9303 1.10002 17.932C1.10002 17.9338 1.10002 17.9355 1.10002 17.9372C1.10002 17.9389 1.10002 17.9406 1.10002 17.9424C1.10002 17.9441 1.10002 17.9458 1.10002 17.9475C1.10002 17.9492 1.10002 17.951 1.10002 17.9527C1.10002 17.9544 1.10002 17.9561 1.10002 17.9578C1.10002 17.9596 1.10002 17.9613 1.10002 17.963C1.10002 17.9647 1.10002 17.9664 1.10002 17.9681C1.10002 17.9698 1.10002 17.9716 1.10002 17.9733C1.10002 17.975 1.10002 17.9767 1.10002 17.9784C1.10002 17.9801 1.10002 17.9818 1.10002 17.9835C1.10002 17.9852 1.10002 17.9869 1.10002 17.9886C1.10002 17.9903 1.10002 17.9921 1.10002 17.9938C1.10002 17.9955 1.10002 17.9972 1.10002 17.9989C1.10002 18.0006 1.10002 18.0023 1.10002 18.004C1.10002 18.0057 1.10002 18.0074 1.10002 18.0091C1.10002 18.0108 1.10002 18.0125 1.10002 18.0142C1.10002 18.0159 1.10002 18.0176 1.10002 18.0192C1.10002 18.0209 1.10002 18.0226 1.10002 18.0243C1.10002 18.026 1.10002 18.0277 1.10002 18.0294C1.10002 18.0311 1.10002 18.0328 1.10002 18.0345C1.10002 18.0362 1.10002 18.0379 1.10002 18.0395C1.10002 18.0412 1.10002 18.0429 1.10002 18.0446C1.10002 18.0463 1.10002 18.048 1.10002 18.0497C1.10002 18.0513 1.10002 18.053 1.10002 18.0547C1.10002 18.0564 1.10002 18.0581 1.10002 18.0597C1.10002 18.0614 1.10002 18.0631 1.10002 18.0648C1.10002 18.0665 1.10002 18.0681 1.10002 18.0698C1.10002 18.0715 1.10002 18.0732 1.10002 18.0748C1.10002 18.0765 1.10002 18.0782 1.10002 18.0799C1.10002 18.0815 1.10002 18.0832 1.10002 18.0849C1.10002 18.0865 1.10002 18.0882 1.10002 18.0899C1.10002 18.0915 1.10002 18.0932 1.10002 18.0949C1.10002 18.0965 1.10002 18.0982 1.10002 18.0999H2.70002ZM5.50003 12.5999L10 12.5999L10 10.9999L5.50002 10.9999L5.50003 12.5999ZM12.8 15.3993C12.8 15.4007 12.8 15.4021 12.8 15.4036C12.8 15.405 12.8 15.4064 12.8 15.4079C12.8 15.4093 12.8 15.4108 12.8 15.4122C12.8 15.4136 12.8 15.4151 12.8 15.4165C12.8 15.418 12.8 15.4194 12.8 15.4209C12.8 15.4223 12.8 15.4238 12.8 15.4252C12.8 15.4267 12.8 15.4281 12.8 15.4296C12.8 15.431 12.8 15.4325 12.8 15.4339C12.8 15.4354 12.8 15.4369 12.8 15.4383C12.8 15.4398 12.8 15.4412 12.8 15.4427C12.8 15.4442 12.8 15.4456 12.8 15.4471C12.8 15.4486 12.8 15.45 12.8 15.4515C12.8 15.453 12.8 15.4544 12.8 15.4559C12.8 15.4574 12.8 15.4588 12.8 15.4603C12.8 15.4618 12.8 15.4633 12.8 15.4647C12.8 15.4662 12.8 15.4677 12.8 15.4692C12.8 15.4707 12.8 15.4721 12.8 15.4736C12.8 15.4751 12.8 15.4766 12.8 15.4781C12.8 15.4796 12.8 15.481 12.8 15.4825C12.8 15.484 12.8 15.4855 12.8 15.487C12.8 15.4885 12.8 15.49 12.8 15.4915C12.8 15.493 12.8 15.4944 12.8 15.4959C12.8 15.4974 12.8 15.4989 12.8 15.5004C12.8 15.5019 12.8 15.5034 12.8 15.5049C12.8 15.5064 12.8 15.5079 12.8 15.5094C12.8 15.5109 12.8 15.5124 12.8 15.514C12.8 15.5155 12.8 15.517 12.8 15.5185C12.8 15.52 12.8 15.5215 12.8 15.523C12.8 15.5245 12.8 15.526 12.8 15.5275C12.8 15.5291 12.8 15.5306 12.8 15.5321C12.8 15.5336 12.8 15.5351 12.8 15.5366C12.8 15.5382 12.8 15.5397 12.8 15.5412C12.8 15.5427 12.8 15.5442 12.8 15.5458C12.8 15.5473 12.8 15.5488 12.8 15.5503C12.8 15.5519 12.8 15.5534 12.8 15.5549C12.8 15.5565 12.8 15.558 12.8 15.5595C12.8 15.5611 12.8 15.5626 12.8 15.5641C12.8 15.5657 12.8 15.5672 12.8 15.5687C12.8 15.5703 12.8 15.5718 12.8 15.5733C12.8 15.5749 12.8 15.5764 12.8 15.578C12.8 15.5795 12.8 15.5811 12.8 15.5826C12.8 15.5841 12.8 15.5857 12.8 15.5872C12.8 15.5888 12.8 15.5903 12.8 15.5919C12.8 15.5934 12.8 15.595 12.8 15.5965C12.8 15.5981 12.8 15.5996 12.8 15.6012C12.8 15.6027 12.8 15.6043 12.8 15.6059C12.8 15.6074 12.8 15.609 12.8 15.6105C12.8 15.6121 12.8 15.6137 12.8 15.6152C12.8 15.6168 12.8 15.6183 12.8 15.6199C12.8 15.6215 12.8 15.623 12.8 15.6246C12.8 15.6262 12.8 15.6277 12.8 15.6293C12.8 15.6309 12.8 15.6324 12.8 15.634C12.8 15.6356 12.8 15.6372 12.8 15.6387C12.8 15.6403 12.8 15.6419 12.8 15.6435C12.8 15.645 12.8 15.6466 12.8 15.6482C12.8 15.6498 12.8 15.6514 12.8 15.6529C12.8 15.6545 12.8 15.6561 12.8 15.6577C12.8 15.6593 12.8 15.6609 12.8 15.6624C12.8 15.664 12.8 15.6656 12.8 15.6672C12.8 15.6688 12.8 15.6704 12.8 15.672C12.8 15.6736 12.8 15.6752 12.8 15.6767C12.8 15.6783 12.8 15.6799 12.8 15.6815C12.8 15.6831 12.8 15.6847 12.8 15.6863C12.8 15.6879 12.8 15.6895 12.8 15.6911C12.8 15.6927 12.8 15.6943 12.8 15.6959C12.8 15.6975 12.8 15.6991 12.8 15.7007C12.8 15.7023 12.8 15.7039 12.8 15.7055C12.8 15.7071 12.8 15.7088 12.8 15.7104C12.8 15.712 12.8 15.7136 12.8 15.7152C12.8 15.7168 12.8 15.7184 12.8 15.72C12.8 15.7216 12.8 15.7233 12.8 15.7249C12.8 15.7265 12.8 15.7281 12.8 15.7297C12.8 15.7313 12.8 15.733 12.8 15.7346C12.8 15.7362 12.8 15.7378 12.8 15.7394C12.8 15.7411 12.8 15.7427 12.8 15.7443C12.8 15.7459 12.8 15.7476 12.8 15.7492C12.8 15.7508 12.8 15.7524 12.8 15.7541C12.8 15.7557 12.8 15.7573 12.8 15.759C12.8 15.7606 12.8 15.7622 12.8 15.7639C12.8 15.7655 12.8 15.7671 12.8 15.7688C12.8 15.7704 12.8 15.772 12.8 15.7737C12.8 15.7753 12.8 15.7769 12.8 15.7786C12.8 15.7802 12.8 15.7819 12.8 15.7835C12.8 15.7852 12.8 15.7868 12.8 15.7884C12.8 15.7901 12.8 15.7917 12.8 15.7934C12.8 15.795 12.8 15.7967 12.8 15.7983C12.8 15.8 12.8 15.8016 12.8 15.8033C12.8 15.8049 12.8 15.8066 12.8 15.8082C12.8 15.8099 12.8 15.8115 12.8 15.8132C12.8 15.8148 12.8 15.8165 12.8 15.8181C12.8 15.8198 12.8 15.8214 12.8 15.8231C12.8 15.8248 12.8 15.8264 12.8 15.8281C12.8 15.8297 12.8 15.8314 12.8 15.8331C12.8 15.8347 12.8 15.8364 12.8 15.8381C12.8 15.8397 12.8 15.8414 12.8 15.8431C12.8 15.8447 12.8 15.8464 12.8 15.8481C12.8 15.8497 12.8 15.8514 12.8 15.8531C12.8 15.8547 12.8 15.8564 12.8 15.8581C12.8 15.8597 12.8 15.8614 12.8 15.8631C12.8 15.8648 12.8 15.8664 12.8 15.8681C12.8 15.8698 12.8 15.8715 12.8 15.8732C12.8 15.8748 12.8 15.8765 12.8 15.8782C12.8 15.8799 12.8 15.8815 12.8 15.8832C12.8 15.8849 12.8 15.8866 12.8 15.8883C12.8 15.89 12.8 15.8916 12.8 15.8933C12.8 15.895 12.8 15.8967 12.8 15.8984C12.8 15.9001 12.8 15.9018 12.8 15.9035C12.8 15.9051 12.8 15.9068 12.8 15.9085C12.8 15.9102 12.8 15.9119 12.8 15.9136C12.8 15.9153 12.8 15.917 12.8 15.9187C12.8 15.9204 12.8 15.9221 12.8 15.9238C12.8 15.9255 12.8 15.9272 12.8 15.9289C12.8 15.9306 12.8 15.9323 12.8 15.934C12.8 15.9357 12.8 15.9374 12.8 15.9391C12.8 15.9408 12.8 15.9425 12.8 15.9442C12.8 15.9459 12.8 15.9476 12.8 15.9493C12.8 15.951 12.8 15.9527 12.8 15.9544C12.8 15.9561 12.8 15.9578 12.8 15.9595C12.8 15.9613 12.8 15.963 12.8 15.9647C12.8 15.9664 12.8 15.9681 12.8 15.9698C12.8 15.9715 12.8 15.9732 12.8 15.975C12.8 15.9767 12.8 15.9784 12.8 15.9801C12.8 15.9818 12.8 15.9835 12.8 15.9853C12.8 15.987 12.8 15.9887 12.8 15.9904C12.8 15.9921 12.8 15.9939 12.8 15.9956C12.8 15.9973 12.8 15.999 12.8 16.0007C12.8 16.0025 12.8 16.0042 12.8 16.0059C12.8 16.0076 12.8 16.0094 12.8 16.0111C12.8 16.0128 12.8 16.0145 12.8 16.0163C12.8 16.018 12.8 16.0197 12.8 16.0215C12.8 16.0232 12.8 16.0249 12.8 16.0267C12.8 16.0284 12.8 16.0301 12.8 16.0319C12.8 16.0336 12.8 16.0353 12.8 16.0371C12.8 16.0388 12.8 16.0405 12.8 16.0423C12.8 16.044 12.8 16.0457 12.8 16.0475C12.8 16.0492 12.8 16.0509 12.8 16.0527C12.8 16.0544 12.8 16.0562 12.8 16.0579C12.8 16.0597 12.8 16.0614 12.8 16.0631C12.8 16.0649 12.8 16.0666 12.8 16.0684C12.8 16.0701 12.8 16.0719 12.8 16.0736C12.8 16.0754 12.8 16.0771 12.8 16.0788C12.8 16.0806 12.8 16.0823 12.8 16.0841C12.8 16.0858 12.8 16.0876 12.8 16.0893C12.8 16.0911 12.8 16.0928 12.8 16.0946C12.8 16.0963 12.8 16.0981 12.8 16.0999C12.8 16.1016 12.8 16.1034 12.8 16.1051C12.8 16.1069 12.8 16.1086 12.8 16.1104C12.8 16.1121 12.8 16.1139 12.8 16.1157C12.8 16.1174 12.8 16.1192 12.8 16.1209C12.8 16.1227 12.8 16.1245 12.8 16.1262C12.8 16.128 12.8 16.1297 12.8 16.1315C12.8 16.1333 12.8 16.135 12.8 16.1368C12.8 16.1386 12.8 16.1403 12.8 16.1421C12.8 16.1439 12.8 16.1456 12.8 16.1474C12.8 16.1492 12.8 16.1509 12.8 16.1527C12.8 16.1545 12.8 16.1562 12.8 16.158C12.8 16.1598 12.8 16.1615 12.8 16.1633C12.8 16.1651 12.8 16.1669 12.8 16.1686C12.8 16.1704 12.8 16.1722 12.8 16.1739C12.8 16.1757 12.8 16.1775 12.8 16.1793C12.8 16.181 12.8 16.1828 12.8 16.1846C12.8 16.1864 12.8 16.1882 12.8 16.1899C12.8 16.1917 12.8 16.1935 12.8 16.1953C12.8 16.1971 12.8 16.1988 12.8 16.2006C12.8 16.2024 12.8 16.2042 12.8 16.206C12.8 16.2077 12.8 16.2095 12.8 16.2113C12.8 16.2131 12.8 16.2149 12.8 16.2167C12.8 16.2184 12.8 16.2202 12.8 16.222C12.8 16.2238 12.8 16.2256 12.8 16.2274C12.8 16.2292 12.8 16.231 12.8 16.2327C12.8 16.2345 12.8 16.2363 12.8 16.2381C12.8 16.2399 12.8 16.2417 12.8 16.2435C12.8 16.2453 12.8 16.2471 12.8 16.2489C12.8 16.2506 12.8 16.2524 12.8 16.2542C12.8 16.256 12.8 16.2578 12.8 16.2596C12.8 16.2614 12.8 16.2632 12.8 16.265C12.8 16.2668 12.8 16.2686 12.8 16.2704C12.8 16.2722 12.8 16.274 12.8 16.2758C12.8 16.2776 12.8 16.2794 12.8 16.2812C12.8 16.283 12.8 16.2848 12.8 16.2866C12.8 16.2884 12.8 16.2902 12.8 16.292C12.8 16.2938 12.8 16.2956 12.8 16.2974C12.8 16.2992 12.8 16.301 12.8 16.3028C12.8 16.3046 12.8 16.3064 12.8 16.3082C12.8 16.31 12.8 16.3118 12.8 16.3136C12.8 16.3155 12.8 16.3173 12.8 16.3191C12.8 16.3209 12.8 16.3227 12.8 16.3245C12.8 16.3263 12.8 16.3281 12.8 16.3299C12.8 16.3317 12.8 16.3335 12.8 16.3354C12.8 16.3372 12.8 16.339 12.8 16.3408C12.8 16.3426 12.8 16.3444 12.8 16.3462C12.8 16.348 12.8 16.3499 12.8 16.3517C12.8 16.3535 12.8 16.3553 12.8 16.3571C12.8 16.3589 12.8 16.3607 12.8 16.3626C12.8 16.3644 12.8 16.3662 12.8 16.368C12.8 16.3698 12.8 16.3716 12.8 16.3735C12.8 16.3753 12.8 16.3771 12.8 16.3789C12.8 16.3807 12.8 16.3826 12.8 16.3844C12.8 16.3862 12.8 16.388 12.8 16.3898C12.8 16.3917 12.8 16.3935 12.8 16.3953C12.8 16.3971 12.8 16.399 12.8 16.4008C12.8 16.4026 12.8 16.4044 12.8 16.4063C12.8 16.4081 12.8 16.4099 12.8 16.4117C12.8 16.4136 12.8 16.4154 12.8 16.4172C12.8 16.419 12.8 16.4209 12.8 16.4227C12.8 16.4245 12.8 16.4263 12.8 16.4282C12.8 16.43 12.8 16.4318 12.8 16.4337C12.8 16.4355 12.8 16.4373 12.8 16.4391C12.8 16.441 12.8 16.4428 12.8 16.4446C12.8 16.4465 12.8 16.4483 12.8 16.4501C12.8 16.452 12.8 16.4538 12.8 16.4556C12.8 16.4575 12.8 16.4593 12.8 16.4611C12.8 16.463 12.8 16.4648 12.8 16.4666C12.8 16.4685 12.8 16.4703 12.8 16.4721C12.8 16.474 12.8 16.4758 12.8 16.4776C12.8 16.4795 12.8 16.4813 12.8 16.4832C12.8 16.485 12.8 16.4868 12.8 16.4887C12.8 16.4905 12.8 16.4923 12.8 16.4942C12.8 16.496 12.8 16.4979 12.8 16.4997C12.8 16.5015 12.8 16.5034 12.8 16.5052C12.8 16.5071 12.8 16.5089 12.8 16.5107C12.8 16.5126 12.8 16.5144 12.8 16.5163C12.8 16.5181 12.8 16.52 12.8 16.5218C12.8 16.5236 12.8 16.5255 12.8 16.5273C12.8 16.5292 12.8 16.531 12.8 16.5329C12.8 16.5347 12.8 16.5365 12.8 16.5384C12.8 16.5402 12.8 16.5421 12.8 16.5439C12.8 16.5458 12.8 16.5476 12.8 16.5495C12.8 16.5513 12.8 16.5532 12.8 16.555C12.8 16.5569 12.8 16.5587 12.8 16.5605C12.8 16.5624 12.8 16.5642 12.8 16.5661C12.8 16.5679 12.8 16.5698 12.8 16.5716C12.8 16.5735 12.8 16.5753 12.8 16.5772C12.8 16.579 12.8 16.5809 12.8 16.5827C12.8 16.5846 12.8 16.5864 12.8 16.5883C12.8 16.5901 12.8 16.592 12.8 16.5938C12.8 16.5957 12.8 16.5976 12.8 16.5994C12.8 16.6013 12.8 16.6031 12.8 16.605C12.8 16.6068 12.8 16.6087 12.8 16.6105C12.8 16.6124 12.8 16.6142 12.8 16.6161C12.8 16.6179 12.8 16.6198 12.8 16.6216C12.8 16.6235 12.8 16.6254 12.8 16.6272C12.8 16.6291 12.8 16.6309 12.8 16.6328C12.8 16.6346 12.8 16.6365 12.8 16.6384C12.8 16.6402 12.8 16.6421 12.8 16.6439C12.8 16.6458 12.8 16.6476 12.8 16.6495C12.8 16.6514 12.8 16.6532 12.8 16.6551C12.8 16.6569 12.8 16.6588 12.8 16.6606C12.8 16.6625 12.8 16.6644 12.8 16.6662C12.8 16.6681 12.8 16.6699 12.8 16.6718C12.8 16.6737 12.8 16.6755 12.8 16.6774C12.8 16.6792 12.8 16.6811 12.8 16.683C12.8 16.6848 12.8 16.6867 12.8 16.6885C12.8 16.6904 12.8 16.6923 12.8 16.6941C12.8 16.696 12.8 16.6979 12.8 16.6997C12.8 16.7016 12.8 16.7034 12.8 16.7053C12.8 16.7072 12.8 16.709 12.8 16.7109C12.8 16.7128 12.8 16.7146 12.8 16.7165C12.8 16.7184 12.8 16.7202 12.8 16.7221C12.8 16.7239 12.8 16.7258 12.8 16.7277C12.8 16.7295 12.8 16.7314 12.8 16.7333C12.8 16.7351 12.8 16.737 12.8 16.7389C12.8 16.7407 12.8 16.7426 12.8 16.7445C12.8 16.7463 12.8 16.7482 12.8 16.7501C12.8 16.7519 12.8 16.7538 12.8 16.7557C12.8 16.7575 12.8 16.7594 12.8 16.7613C12.8 16.7631 12.8 16.765 12.8 16.7669C12.8 16.7687 12.8 16.7706 12.8 16.7725C12.8 16.7743 12.8 16.7762 12.8 16.7781C12.8 16.7799 12.8 16.7818 12.8 16.7837C12.8 16.7855 12.8 16.7874 12.8 16.7893C12.8 16.7911 12.8 16.793 12.8 16.7949C12.8 16.7967 12.8 16.7986 12.8 16.8005C12.8 16.8024 12.8 16.8042 12.8 16.8061C12.8 16.808 12.8 16.8098 12.8 16.8117C12.8 16.8136 12.8 16.8154 12.8 16.8173C12.8 16.8192 12.8 16.821 12.8 16.8229C12.8 16.8248 12.8 16.8267 12.8 16.8285C12.8 16.8304 12.8 16.8323 12.8 16.8341C12.8 16.836 12.8 16.8379 12.8 16.8398C12.8 16.8416 12.8 16.8435 12.8 16.8454C12.8 16.8472 12.8 16.8491 12.8 16.851C12.8 16.8529 12.8 16.8547 12.8 16.8566C12.8 16.8585 12.8 16.8603 12.8 16.8622C12.8 16.8641 12.8 16.866 12.8 16.8678C12.8 16.8697 12.8 16.8716 12.8 16.8734C12.8 16.8753 12.8 16.8772 12.8 16.8791C12.8 16.8809 12.8 16.8828 12.8 16.8847C12.8 16.8865 12.8 16.8884 12.8 16.8903C12.8 16.8922 12.8 16.894 12.8 16.8959C12.8 16.8978 12.8 16.8997 12.8 16.9015C12.8 16.9034 12.8 16.9053 12.8 16.9071C12.8 16.909 12.8 16.9109 12.8 16.9128C12.8 16.9146 12.8 16.9165 12.8 16.9184C12.8 16.9203 12.8 16.9221 12.8 16.924C12.8 16.9259 12.8 16.9277 12.8 16.9296C12.8 16.9315 12.8 16.9334 12.8 16.9352C12.8 16.9371 12.8 16.939 12.8 16.9409C12.8 16.9427 12.8 16.9446 12.8 16.9465C12.8 16.9484 12.8 16.9502 12.8 16.9521C12.8 16.954 12.8 16.9558 12.8 16.9577C12.8 16.9596 12.8 16.9615 12.8 16.9633C12.8 16.9652 12.8 16.9671 12.8 16.969C12.8 16.9708 12.8 16.9727 12.8 16.9746C12.8 16.9765 12.8 16.9783 12.8 16.9802C12.8 16.9821 12.8 16.9839 12.8 16.9858C12.8 16.9877 12.8 16.9896 12.8 16.9914C12.8 16.9933 12.8 16.9952 12.8 16.9971C12.8 16.9989 12.8 17.0008 12.8 17.0027C12.8 17.0046 12.8 17.0064 12.8 17.0083C12.8 17.0102 12.8 17.012 12.8 17.0139C12.8 17.0158 12.8 17.0177 12.8 17.0195C12.8 17.0214 12.8 17.0233 12.8 17.0252C12.8 17.027 12.8 17.0289 12.8 17.0308C12.8 17.0326 12.8 17.0345 12.8 17.0364C12.8 17.0383 12.8 17.0401 12.8 17.042C12.8 17.0439 12.8 17.0458 12.8 17.0476C12.8 17.0495 12.8 17.0514 12.8 17.0532C12.8 17.0551 12.8 17.057 12.8 17.0589C12.8 17.0607 12.8 17.0626 12.8 17.0645C12.8 17.0664 12.8 17.0682 12.8 17.0701C12.8 17.072 12.8 17.0738 12.8 17.0757C12.8 17.0776 12.8 17.0795 12.8 17.0813C12.8 17.0832 12.8 17.0851 12.8 17.0869C12.8 17.0888 12.8 17.0907 12.8 17.0926C12.8 17.0944 12.8 17.0963 12.8 17.0982C12.8 17.1 12.8 17.1019 12.8 17.1038C12.8 17.1056 12.8 17.1075 12.8 17.1094C12.8 17.1113 12.8 17.1131 12.8 17.115C12.8 17.1169 12.8 17.1187 12.8 17.1206C12.8 17.1225 12.8 17.1244 12.8 17.1262C12.8 17.1281 12.8 17.13 12.8 17.1318C12.8 17.1337 12.8 17.1356 12.8 17.1374C12.8 17.1393 12.8 17.1412 12.8 17.143C12.8 17.1449 12.8 17.1468 12.8 17.1486C12.8 17.1505 12.8 17.1524 12.8 17.1543C12.8 17.1561 12.8 17.158 12.8 17.1599C12.8 17.1617 12.8 17.1636 12.8 17.1655C12.8 17.1673 12.8 17.1692 12.8 17.1711C12.8 17.1729 12.8 17.1748 12.8 17.1767C12.8 17.1785 12.8 17.1804 12.8 17.1823C12.8 17.1841 12.8 17.186 12.8 17.1879C12.8 17.1897 12.8 17.1916 12.8 17.1935C12.8 17.1953 12.8 17.1972 12.8 17.1991C12.8 17.2009 12.8 17.2028 12.8 17.2047C12.8 17.2065 12.8 17.2084 12.8 17.2102C12.8 17.2121 12.8 17.214 12.8 17.2158C12.8 17.2177 12.8 17.2196 12.8 17.2214C12.8 17.2233 12.8 17.2252 12.8 17.227C12.8 17.2289 12.8 17.2307 12.8 17.2326C12.8 17.2345 12.8 17.2363 12.8 17.2382C12.8 17.2401 12.8 17.2419 12.8 17.2438C12.8 17.2456 12.8 17.2475 12.8 17.2494C12.8 17.2512 12.8 17.2531 12.8 17.255C12.8 17.2568 12.8 17.2587 12.8 17.2605C12.8 17.2624 12.8 17.2643 12.8 17.2661C12.8 17.268 12.8 17.2698 12.8 17.2717C12.8 17.2736 12.8 17.2754 12.8 17.2773C12.8 17.2791 12.8 17.281 12.8 17.2828C12.8 17.2847 12.8 17.2866 12.8 17.2884C12.8 17.2903 12.8 17.2921 12.8 17.294C12.8 17.2959 12.8 17.2977 12.8 17.2996C12.8 17.3014 12.8 17.3033 12.8 17.3051C12.8 17.307 12.8 17.3088 12.8 17.3107C12.8 17.3126 12.8 17.3144 12.8 17.3163C12.8 17.3181 12.8 17.32 12.8 17.3218C12.8 17.3237 12.8 17.3255 12.8 17.3274C12.8 17.3293 12.8 17.3311 12.8 17.333C12.8 17.3348 12.8 17.3367 12.8 17.3385C12.8 17.3404 12.8 17.3422 12.8 17.3441C12.8 17.3459 12.8 17.3478 12.8 17.3496C12.8 17.3515 12.8 17.3533 12.8 17.3552C12.8 17.357 12.8 17.3589 12.8 17.3607C12.8 17.3626 12.8 17.3644 12.8 17.3663C12.8 17.3681 12.8 17.37 12.8 17.3718C12.8 17.3737 12.8 17.3755 12.8 17.3774C12.8 17.3792 12.8 17.3811 12.8 17.3829C12.8 17.3848 12.8 17.3866 12.8 17.3885C12.8 17.3903 12.8 17.3921 12.8 17.394C12.8 17.3958 12.8 17.3977 12.8 17.3995C12.8 17.4014 12.8 17.4032 12.8 17.4051C12.8 17.4069 12.8 17.4087 12.8 17.4106C12.8 17.4124 12.8 17.4143 12.8 17.4161C12.8 17.418 12.8 17.4198 12.8 17.4216C12.8 17.4235 12.8 17.4253 12.8 17.4272C12.8 17.429 12.8 17.4309 12.8 17.4327C12.8 17.4345 12.8 17.4364 12.8 17.4382C12.8 17.4401 12.8 17.4419 12.8 17.4437C12.8 17.4456 12.8 17.4474 12.8 17.4492C12.8 17.4511 12.8 17.4529 12.8 17.4548C12.8 17.4566 12.8 17.4584 12.8 17.4603C12.8 17.4621 12.8 17.4639 12.8 17.4658C12.8 17.4676 12.8 17.4695 12.8 17.4713C12.8 17.4731 12.8 17.475 12.8 17.4768C12.8 17.4786 12.8 17.4805 12.8 17.4823C12.8 17.4841 12.8 17.486 12.8 17.4878C12.8 17.4896 12.8 17.4914 12.8 17.4933C12.8 17.4951 12.8 17.4969 12.8 17.4988C12.8 17.5006 12.8 17.5024 12.8 17.5043C12.8 17.5061 12.8 17.5079 12.8 17.5097C12.8 17.5116 12.8 17.5134 12.8 17.5152C12.8 17.5171 12.8 17.5189 12.8 17.5207C12.8 17.5225 12.8 17.5244 12.8 17.5262C12.8 17.528 12.8 17.5298 12.8 17.5317C12.8 17.5335 12.8 17.5353 12.8 17.5371C12.8 17.539 12.8 17.5408 12.8 17.5426C12.8 17.5444 12.8 17.5462 12.8 17.5481C12.8 17.5499 12.8 17.5517 12.8 17.5535C12.8 17.5554 12.8 17.5572 12.8 17.559C12.8 17.5608 12.8 17.5626 12.8 17.5645C12.8 17.5663 12.8 17.5681 12.8 17.5699C12.8 17.5717 12.8 17.5735 12.8 17.5754C12.8 17.5772 12.8 17.579 12.8 17.5808C12.8 17.5826 12.8 17.5844 12.8 17.5862C12.8 17.5881 12.8 17.5899 12.8 17.5917C12.8 17.5935 12.8 17.5953 12.8 17.5971C12.8 17.5989 12.8 17.6008 12.8 17.6026C12.8 17.6044 12.8 17.6062 12.8 17.608C12.8 17.6098 12.8 17.6116 12.8 17.6134C12.8 17.6152 12.8 17.617 12.8 17.6189C12.8 17.6207 12.8 17.6225 12.8 17.6243C12.8 17.6261 12.8 17.6279 12.8 17.6297C12.8 17.6315 12.8 17.6333 12.8 17.6351C12.8 17.6369 12.8 17.6387 12.8 17.6405C12.8 17.6423 12.8 17.6441 12.8 17.6459C12.8 17.6477 12.8 17.6495 12.8 17.6513C12.8 17.6531 12.8 17.6549 12.8 17.6567C12.8 17.6585 12.8 17.6603 12.8 17.6621C12.8 17.6639 12.8 17.6657 12.8 17.6675C12.8 17.6693 12.8 17.6711 12.8 17.6729C12.8 17.6747 12.8 17.6765 12.8 17.6783C12.8 17.6801 12.8 17.6819 12.8 17.6837C12.8 17.6855 12.8 17.6873 12.8 17.6891C12.8 17.6909 12.8 17.6926 12.8 17.6944C12.8 17.6962 12.8 17.698 12.8 17.6998C12.8 17.7016 12.8 17.7034 12.8 17.7052C12.8 17.707 12.8 17.7088 12.8 17.7105C12.8 17.7123 12.8 17.7141 12.8 17.7159C12.8 17.7177 12.8 17.7195 12.8 17.7213C12.8 17.723 12.8 17.7248 12.8 17.7266C12.8 17.7284 12.8 17.7302 12.8 17.732C12.8 17.7337 12.8 17.7355 12.8 17.7373C12.8 17.7391 12.8 17.7409 12.8 17.7426C12.8 17.7444 12.8 17.7462 12.8 17.748C12.8 17.7498 12.8 17.7515 12.8 17.7533C12.8 17.7551 12.8 17.7569 12.8 17.7586C12.8 17.7604 12.8 17.7622 12.8 17.764C12.8 17.7657 12.8 17.7675 12.8 17.7693C12.8 17.7711 12.8 17.7728 12.8 17.7746C12.8 17.7764 12.8 17.7781 12.8 17.7799C12.8 17.7817 12.8 17.7835 12.8 17.7852C12.8 17.787 12.8 17.7888 12.8 17.7905C12.8 17.7923 12.8 17.7941 12.8 17.7958C12.8 17.7976 12.8 17.7994 12.8 17.8011C12.8 17.8029 12.8 17.8046 12.8 17.8064C12.8 17.8082 12.8 17.8099 12.8 17.8117C12.8 17.8135 12.8 17.8152 12.8 17.817C12.8 17.8187 12.8 17.8205 12.8 17.8223C12.8 17.824 12.8 17.8258 12.8 17.8275C12.8 17.8293 12.8 17.831 12.8 17.8328C12.8 17.8345 12.8 17.8363 12.8 17.8381C12.8 17.8398 12.8 17.8416 12.8 17.8433C12.8 17.8451 12.8 17.8468 12.8 17.8486C12.8 17.8503 12.8 17.8521 12.8 17.8538C12.8 17.8556 12.8 17.8573 12.8 17.8591C12.8 17.8608 12.8 17.8626 12.8 17.8643C12.8 17.8661 12.8 17.8678 12.8 17.8695C12.8 17.8713 12.8 17.873 12.8 17.8748C12.8 17.8765 12.8 17.8783 12.8 17.88C12.8 17.8817 12.8 17.8835 12.8 17.8852C12.8 17.887 12.8 17.8887 12.8 17.8904C12.8 17.8922 12.8 17.8939 12.8 17.8957C12.8 17.8974 12.8 17.8991 12.8 17.9009C12.8 17.9026 12.8 17.9043 12.8 17.9061C12.8 17.9078 12.8 17.9095 12.8 17.9113C12.8 17.913 12.8 17.9147 12.8 17.9165C12.8 17.9182 12.8 17.9199 12.8 17.9216C12.8 17.9234 12.8 17.9251 12.8 17.9268C12.8 17.9285 12.8 17.9303 12.8 17.932C12.8 17.9337 12.8 17.9354 12.8 17.9372C12.8 17.9389 12.8 17.9406 12.8 17.9423C12.8 17.9441 12.8 17.9458 12.8 17.9475C12.8 17.9492 12.8 17.9509 12.8 17.9527C12.8 17.9544 12.8 17.9561 12.8 17.9578C12.8 17.9595 12.8 17.9612 12.8 17.963C12.8 17.9647 12.8 17.9664 12.8 17.9681C12.8 17.9698 12.8 17.9715 12.8 17.9732C12.8 17.9749 12.8 17.9767 12.8 17.9784C12.8 17.9801 12.8 17.9818 12.8 17.9835C12.8 17.9852 12.8 17.9869 12.8 17.9886C12.8 17.9903 12.8 17.992 12.8 17.9937C12.8 17.9954 12.8 17.9971 12.8 17.9988C12.8 18.0005 12.8 18.0022 12.8 18.0039C12.8 18.0056 12.8 18.0073 12.8 18.009C12.8 18.0107 12.8 18.0124 12.8 18.0141C12.8 18.0158 12.8 18.0175 12.8 18.0192C12.8 18.0209 12.8 18.0226 12.8 18.0243C12.8 18.026 12.8 18.0277 12.8 18.0294C12.8 18.0311 12.8 18.0328 12.8 18.0344C12.8 18.0361 12.8 18.0378 12.8 18.0395C12.8 18.0412 12.8 18.0429 12.8 18.0446C12.8 18.0463 12.8 18.0479 12.8 18.0496C12.8 18.0513 12.8 18.053 12.8 18.0547C12.8 18.0564 12.8 18.058 12.8 18.0597C12.8 18.0614 12.8 18.0631 12.8 18.0648C12.8 18.0664 12.8 18.0681 12.8 18.0698C12.8 18.0715 12.8 18.0731 12.8 18.0748C12.8 18.0765 12.8 18.0782 12.8 18.0798C12.8 18.0815 12.8 18.0832 12.8 18.0848C12.8 18.0865 12.8 18.0882 12.8 18.0899C12.8 18.0915 12.8 18.0932 12.8 18.0949C12.8 18.0965 12.8 18.0982 12.8 18.0998H14.4C14.4 18.0982 14.4 18.0965 14.4 18.0949C14.4 18.0932 14.4 18.0915 14.4 18.0899C14.4 18.0882 14.4 18.0865 14.4 18.0848C14.4 18.0832 14.4 18.0815 14.4 18.0798C14.4 18.0782 14.4 18.0765 14.4 18.0748C14.4 18.0731 14.4 18.0715 14.4 18.0698C14.4 18.0681 14.4 18.0664 14.4 18.0648C14.4 18.0631 14.4 18.0614 14.4 18.0597C14.4 18.058 14.4 18.0564 14.4 18.0547C14.4 18.053 14.4 18.0513 14.4 18.0496C14.4 18.0479 14.4 18.0463 14.4 18.0446C14.4 18.0429 14.4 18.0412 14.4 18.0395C14.4 18.0378 14.4 18.0361 14.4 18.0344C14.4 18.0328 14.4 18.0311 14.4 18.0294C14.4 18.0277 14.4 18.026 14.4 18.0243C14.4 18.0226 14.4 18.0209 14.4 18.0192C14.4 18.0175 14.4 18.0158 14.4 18.0141C14.4 18.0124 14.4 18.0107 14.4 18.009C14.4 18.0073 14.4 18.0056 14.4 18.0039C14.4 18.0022 14.4 18.0005 14.4 17.9988C14.4 17.9971 14.4 17.9954 14.4 17.9937C14.4 17.992 14.4 17.9903 14.4 17.9886C14.4 17.9869 14.4 17.9852 14.4 17.9835C14.4 17.9818 14.4 17.9801 14.4 17.9784C14.4 17.9767 14.4 17.9749 14.4 17.9732C14.4 17.9715 14.4 17.9698 14.4 17.9681C14.4 17.9664 14.4 17.9647 14.4 17.963C14.4 17.9612 14.4 17.9595 14.4 17.9578C14.4 17.9561 14.4 17.9544 14.4 17.9527C14.4 17.9509 14.4 17.9492 14.4 17.9475C14.4 17.9458 14.4 17.9441 14.4 17.9423C14.4 17.9406 14.4 17.9389 14.4 17.9372C14.4 17.9354 14.4 17.9337 14.4 17.932C14.4 17.9303 14.4 17.9285 14.4 17.9268C14.4 17.9251 14.4 17.9234 14.4 17.9216C14.4 17.9199 14.4 17.9182 14.4 17.9165C14.4 17.9147 14.4 17.913 14.4 17.9113C14.4 17.9095 14.4 17.9078 14.4 17.9061C14.4 17.9043 14.4 17.9026 14.4 17.9009C14.4 17.8991 14.4 17.8974 14.4 17.8957C14.4 17.8939 14.4 17.8922 14.4 17.8904C14.4 17.8887 14.4 17.887 14.4 17.8852C14.4 17.8835 14.4 17.8817 14.4 17.88C14.4 17.8783 14.4 17.8765 14.4 17.8748C14.4 17.873 14.4 17.8713 14.4 17.8695C14.4 17.8678 14.4 17.8661 14.4 17.8643C14.4 17.8626 14.4 17.8608 14.4 17.8591C14.4 17.8573 14.4 17.8556 14.4 17.8538C14.4 17.8521 14.4 17.8503 14.4 17.8486C14.4 17.8468 14.4 17.8451 14.4 17.8433C14.4 17.8416 14.4 17.8398 14.4 17.8381C14.4 17.8363 14.4 17.8345 14.4 17.8328C14.4 17.831 14.4 17.8293 14.4 17.8275C14.4 17.8258 14.4 17.824 14.4 17.8223C14.4 17.8205 14.4 17.8187 14.4 17.817C14.4 17.8152 14.4 17.8135 14.4 17.8117C14.4 17.8099 14.4 17.8082 14.4 17.8064C14.4 17.8046 14.4 17.8029 14.4 17.8011C14.4 17.7994 14.4 17.7976 14.4 17.7958C14.4 17.7941 14.4 17.7923 14.4 17.7905C14.4 17.7888 14.4 17.787 14.4 17.7852C14.4 17.7835 14.4 17.7817 14.4 17.7799C14.4 17.7781 14.4 17.7764 14.4 17.7746C14.4 17.7728 14.4 17.7711 14.4 17.7693C14.4 17.7675 14.4 17.7657 14.4 17.764C14.4 17.7622 14.4 17.7604 14.4 17.7586C14.4 17.7569 14.4 17.7551 14.4 17.7533C14.4 17.7515 14.4 17.7498 14.4 17.748C14.4 17.7462 14.4 17.7444 14.4 17.7426C14.4 17.7409 14.4 17.7391 14.4 17.7373C14.4 17.7355 14.4 17.7337 14.4 17.732C14.4 17.7302 14.4 17.7284 14.4 17.7266C14.4 17.7248 14.4 17.723 14.4 17.7213C14.4 17.7195 14.4 17.7177 14.4 17.7159C14.4 17.7141 14.4 17.7123 14.4 17.7105C14.4 17.7088 14.4 17.707 14.4 17.7052C14.4 17.7034 14.4 17.7016 14.4 17.6998C14.4 17.698 14.4 17.6962 14.4 17.6944C14.4 17.6926 14.4 17.6909 14.4 17.6891C14.4 17.6873 14.4 17.6855 14.4 17.6837C14.4 17.6819 14.4 17.6801 14.4 17.6783C14.4 17.6765 14.4 17.6747 14.4 17.6729C14.4 17.6711 14.4 17.6693 14.4 17.6675C14.4 17.6657 14.4 17.6639 14.4 17.6621C14.4 17.6603 14.4 17.6585 14.4 17.6567C14.4 17.6549 14.4 17.6531 14.4 17.6513C14.4 17.6495 14.4 17.6477 14.4 17.6459C14.4 17.6441 14.4 17.6423 14.4 17.6405C14.4 17.6387 14.4 17.6369 14.4 17.6351C14.4 17.6333 14.4 17.6315 14.4 17.6297C14.4 17.6279 14.4 17.6261 14.4 17.6243C14.4 17.6225 14.4 17.6207 14.4 17.6189C14.4 17.617 14.4 17.6152 14.4 17.6134C14.4 17.6116 14.4 17.6098 14.4 17.608C14.4 17.6062 14.4 17.6044 14.4 17.6026C14.4 17.6008 14.4 17.5989 14.4 17.5971C14.4 17.5953 14.4 17.5935 14.4 17.5917C14.4 17.5899 14.4 17.5881 14.4 17.5862C14.4 17.5844 14.4 17.5826 14.4 17.5808C14.4 17.579 14.4 17.5772 14.4 17.5754C14.4 17.5735 14.4 17.5717 14.4 17.5699C14.4 17.5681 14.4 17.5663 14.4 17.5645C14.4 17.5626 14.4 17.5608 14.4 17.559C14.4 17.5572 14.4 17.5554 14.4 17.5535C14.4 17.5517 14.4 17.5499 14.4 17.5481C14.4 17.5462 14.4 17.5444 14.4 17.5426C14.4 17.5408 14.4 17.539 14.4 17.5371C14.4 17.5353 14.4 17.5335 14.4 17.5317C14.4 17.5298 14.4 17.528 14.4 17.5262C14.4 17.5244 14.4 17.5225 14.4 17.5207C14.4 17.5189 14.4 17.5171 14.4 17.5152C14.4 17.5134 14.4 17.5116 14.4 17.5097C14.4 17.5079 14.4 17.5061 14.4 17.5043C14.4 17.5024 14.4 17.5006 14.4 17.4988C14.4 17.4969 14.4 17.4951 14.4 17.4933C14.4 17.4914 14.4 17.4896 14.4 17.4878C14.4 17.486 14.4 17.4841 14.4 17.4823C14.4 17.4805 14.4 17.4786 14.4 17.4768C14.4 17.475 14.4 17.4731 14.4 17.4713C14.4 17.4695 14.4 17.4676 14.4 17.4658C14.4 17.4639 14.4 17.4621 14.4 17.4603C14.4 17.4584 14.4 17.4566 14.4 17.4548C14.4 17.4529 14.4 17.4511 14.4 17.4492C14.4 17.4474 14.4 17.4456 14.4 17.4437C14.4 17.4419 14.4 17.4401 14.4 17.4382C14.4 17.4364 14.4 17.4345 14.4 17.4327C14.4 17.4309 14.4 17.429 14.4 17.4272C14.4 17.4253 14.4 17.4235 14.4 17.4216C14.4 17.4198 14.4 17.418 14.4 17.4161C14.4 17.4143 14.4 17.4124 14.4 17.4106C14.4 17.4087 14.4 17.4069 14.4 17.4051C14.4 17.4032 14.4 17.4014 14.4 17.3995C14.4 17.3977 14.4 17.3958 14.4 17.394C14.4 17.3921 14.4 17.3903 14.4 17.3885C14.4 17.3866 14.4 17.3848 14.4 17.3829C14.4 17.3811 14.4 17.3792 14.4 17.3774C14.4 17.3755 14.4 17.3737 14.4 17.3718C14.4 17.37 14.4 17.3681 14.4 17.3663C14.4 17.3644 14.4 17.3626 14.4 17.3607C14.4 17.3589 14.4 17.357 14.4 17.3552C14.4 17.3533 14.4 17.3515 14.4 17.3496C14.4 17.3478 14.4 17.3459 14.4 17.3441C14.4 17.3422 14.4 17.3404 14.4 17.3385C14.4 17.3367 14.4 17.3348 14.4 17.333C14.4 17.3311 14.4 17.3293 14.4 17.3274C14.4 17.3255 14.4 17.3237 14.4 17.3218C14.4 17.32 14.4 17.3181 14.4 17.3163C14.4 17.3144 14.4 17.3126 14.4 17.3107C14.4 17.3088 14.4 17.307 14.4 17.3051C14.4 17.3033 14.4 17.3014 14.4 17.2996C14.4 17.2977 14.4 17.2959 14.4 17.294C14.4 17.2921 14.4 17.2903 14.4 17.2884C14.4 17.2866 14.4 17.2847 14.4 17.2828C14.4 17.281 14.4 17.2791 14.4 17.2773C14.4 17.2754 14.4 17.2736 14.4 17.2717C14.4 17.2698 14.4 17.268 14.4 17.2661C14.4 17.2643 14.4 17.2624 14.4 17.2605C14.4 17.2587 14.4 17.2568 14.4 17.255C14.4 17.2531 14.4 17.2512 14.4 17.2494C14.4 17.2475 14.4 17.2456 14.4 17.2438C14.4 17.2419 14.4 17.2401 14.4 17.2382C14.4 17.2363 14.4 17.2345 14.4 17.2326C14.4 17.2307 14.4 17.2289 14.4 17.227C14.4 17.2252 14.4 17.2233 14.4 17.2214C14.4 17.2196 14.4 17.2177 14.4 17.2158C14.4 17.214 14.4 17.2121 14.4 17.2102C14.4 17.2084 14.4 17.2065 14.4 17.2047C14.4 17.2028 14.4 17.2009 14.4 17.1991C14.4 17.1972 14.4 17.1953 14.4 17.1935C14.4 17.1916 14.4 17.1897 14.4 17.1879C14.4 17.186 14.4 17.1841 14.4 17.1823C14.4 17.1804 14.4 17.1785 14.4 17.1767C14.4 17.1748 14.4 17.1729 14.4 17.1711C14.4 17.1692 14.4 17.1673 14.4 17.1655C14.4 17.1636 14.4 17.1617 14.4 17.1599C14.4 17.158 14.4 17.1561 14.4 17.1543C14.4 17.1524 14.4 17.1505 14.4 17.1486C14.4 17.1468 14.4 17.1449 14.4 17.143C14.4 17.1412 14.4 17.1393 14.4 17.1374C14.4 17.1356 14.4 17.1337 14.4 17.1318C14.4 17.13 14.4 17.1281 14.4 17.1262C14.4 17.1244 14.4 17.1225 14.4 17.1206C14.4 17.1187 14.4 17.1169 14.4 17.115C14.4 17.1131 14.4 17.1113 14.4 17.1094C14.4 17.1075 14.4 17.1056 14.4 17.1038C14.4 17.1019 14.4 17.1 14.4 17.0982C14.4 17.0963 14.4 17.0944 14.4 17.0926C14.4 17.0907 14.4 17.0888 14.4 17.0869C14.4 17.0851 14.4 17.0832 14.4 17.0813C14.4 17.0795 14.4 17.0776 14.4 17.0757C14.4 17.0738 14.4 17.072 14.4 17.0701C14.4 17.0682 14.4 17.0664 14.4 17.0645C14.4 17.0626 14.4 17.0607 14.4 17.0589C14.4 17.057 14.4 17.0551 14.4 17.0532C14.4 17.0514 14.4 17.0495 14.4 17.0476C14.4 17.0458 14.4 17.0439 14.4 17.042C14.4 17.0401 14.4 17.0383 14.4 17.0364C14.4 17.0345 14.4 17.0326 14.4 17.0308C14.4 17.0289 14.4 17.027 14.4 17.0252C14.4 17.0233 14.4 17.0214 14.4 17.0195C14.4 17.0177 14.4 17.0158 14.4 17.0139C14.4 17.012 14.4 17.0102 14.4 17.0083C14.4 17.0064 14.4 17.0046 14.4 17.0027C14.4 17.0008 14.4 16.9989 14.4 16.9971C14.4 16.9952 14.4 16.9933 14.4 16.9914C14.4 16.9896 14.4 16.9877 14.4 16.9858C14.4 16.9839 14.4 16.9821 14.4 16.9802C14.4 16.9783 14.4 16.9765 14.4 16.9746C14.4 16.9727 14.4 16.9708 14.4 16.969C14.4 16.9671 14.4 16.9652 14.4 16.9633C14.4 16.9615 14.4 16.9596 14.4 16.9577C14.4 16.9558 14.4 16.954 14.4 16.9521C14.4 16.9502 14.4 16.9484 14.4 16.9465C14.4 16.9446 14.4 16.9427 14.4 16.9409C14.4 16.939 14.4 16.9371 14.4 16.9352C14.4 16.9334 14.4 16.9315 14.4 16.9296C14.4 16.9277 14.4 16.9259 14.4 16.924C14.4 16.9221 14.4 16.9203 14.4 16.9184C14.4 16.9165 14.4 16.9146 14.4 16.9128C14.4 16.9109 14.4 16.909 14.4 16.9071C14.4 16.9053 14.4 16.9034 14.4 16.9015C14.4 16.8997 14.4 16.8978 14.4 16.8959C14.4 16.894 14.4 16.8922 14.4 16.8903C14.4 16.8884 14.4 16.8865 14.4 16.8847C14.4 16.8828 14.4 16.8809 14.4 16.8791C14.4 16.8772 14.4 16.8753 14.4 16.8734C14.4 16.8716 14.4 16.8697 14.4 16.8678C14.4 16.866 14.4 16.8641 14.4 16.8622C14.4 16.8603 14.4 16.8585 14.4 16.8566C14.4 16.8547 14.4 16.8529 14.4 16.851C14.4 16.8491 14.4 16.8472 14.4 16.8454C14.4 16.8435 14.4 16.8416 14.4 16.8398C14.4 16.8379 14.4 16.836 14.4 16.8341C14.4 16.8323 14.4 16.8304 14.4 16.8285C14.4 16.8267 14.4 16.8248 14.4 16.8229C14.4 16.821 14.4 16.8192 14.4 16.8173C14.4 16.8154 14.4 16.8136 14.4 16.8117C14.4 16.8098 14.4 16.808 14.4 16.8061C14.4 16.8042 14.4 16.8024 14.4 16.8005C14.4 16.7986 14.4 16.7967 14.4 16.7949C14.4 16.793 14.4 16.7911 14.4 16.7893C14.4 16.7874 14.4 16.7855 14.4 16.7837C14.4 16.7818 14.4 16.7799 14.4 16.7781C14.4 16.7762 14.4 16.7743 14.4 16.7725C14.4 16.7706 14.4 16.7687 14.4 16.7669C14.4 16.765 14.4 16.7631 14.4 16.7613C14.4 16.7594 14.4 16.7575 14.4 16.7557C14.4 16.7538 14.4 16.7519 14.4 16.7501C14.4 16.7482 14.4 16.7463 14.4 16.7445C14.4 16.7426 14.4 16.7407 14.4 16.7389C14.4 16.737 14.4 16.7351 14.4 16.7333C14.4 16.7314 14.4 16.7295 14.4 16.7277C14.4 16.7258 14.4 16.7239 14.4 16.7221C14.4 16.7202 14.4 16.7184 14.4 16.7165C14.4 16.7146 14.4 16.7128 14.4 16.7109C14.4 16.709 14.4 16.7072 14.4 16.7053C14.4 16.7034 14.4 16.7016 14.4 16.6997C14.4 16.6979 14.4 16.696 14.4 16.6941C14.4 16.6923 14.4 16.6904 14.4 16.6885C14.4 16.6867 14.4 16.6848 14.4 16.683C14.4 16.6811 14.4 16.6792 14.4 16.6774C14.4 16.6755 14.4 16.6737 14.4 16.6718C14.4 16.6699 14.4 16.6681 14.4 16.6662C14.4 16.6644 14.4 16.6625 14.4 16.6606C14.4 16.6588 14.4 16.6569 14.4 16.6551C14.4 16.6532 14.4 16.6514 14.4 16.6495C14.4 16.6476 14.4 16.6458 14.4 16.6439C14.4 16.6421 14.4 16.6402 14.4 16.6384C14.4 16.6365 14.4 16.6346 14.4 16.6328C14.4 16.6309 14.4 16.6291 14.4 16.6272C14.4 16.6254 14.4 16.6235 14.4 16.6216C14.4 16.6198 14.4 16.6179 14.4 16.6161C14.4 16.6142 14.4 16.6124 14.4 16.6105C14.4 16.6087 14.4 16.6068 14.4 16.605C14.4 16.6031 14.4 16.6013 14.4 16.5994C14.4 16.5976 14.4 16.5957 14.4 16.5938C14.4 16.592 14.4 16.5901 14.4 16.5883C14.4 16.5864 14.4 16.5846 14.4 16.5827C14.4 16.5809 14.4 16.579 14.4 16.5772C14.4 16.5753 14.4 16.5735 14.4 16.5716C14.4 16.5698 14.4 16.5679 14.4 16.5661C14.4 16.5642 14.4 16.5624 14.4 16.5605C14.4 16.5587 14.4 16.5569 14.4 16.555C14.4 16.5532 14.4 16.5513 14.4 16.5495C14.4 16.5476 14.4 16.5458 14.4 16.5439C14.4 16.5421 14.4 16.5402 14.4 16.5384C14.4 16.5365 14.4 16.5347 14.4 16.5329C14.4 16.531 14.4 16.5292 14.4 16.5273C14.4 16.5255 14.4 16.5236 14.4 16.5218C14.4 16.52 14.4 16.5181 14.4 16.5163C14.4 16.5144 14.4 16.5126 14.4 16.5107C14.4 16.5089 14.4 16.5071 14.4 16.5052C14.4 16.5034 14.4 16.5015 14.4 16.4997C14.4 16.4979 14.4 16.496 14.4 16.4942C14.4 16.4923 14.4 16.4905 14.4 16.4887C14.4 16.4868 14.4 16.485 14.4 16.4832C14.4 16.4813 14.4 16.4795 14.4 16.4776C14.4 16.4758 14.4 16.474 14.4 16.4721C14.4 16.4703 14.4 16.4685 14.4 16.4666C14.4 16.4648 14.4 16.463 14.4 16.4611C14.4 16.4593 14.4 16.4575 14.4 16.4556C14.4 16.4538 14.4 16.452 14.4 16.4501C14.4 16.4483 14.4 16.4465 14.4 16.4446C14.4 16.4428 14.4 16.441 14.4 16.4391C14.4 16.4373 14.4 16.4355 14.4 16.4337C14.4 16.4318 14.4 16.43 14.4 16.4282C14.4 16.4263 14.4 16.4245 14.4 16.4227C14.4 16.4209 14.4 16.419 14.4 16.4172C14.4 16.4154 14.4 16.4136 14.4 16.4117C14.4 16.4099 14.4 16.4081 14.4 16.4063C14.4 16.4044 14.4 16.4026 14.4 16.4008C14.4 16.399 14.4 16.3971 14.4 16.3953C14.4 16.3935 14.4 16.3917 14.4 16.3898C14.4 16.388 14.4 16.3862 14.4 16.3844C14.4 16.3826 14.4 16.3807 14.4 16.3789C14.4 16.3771 14.4 16.3753 14.4 16.3735C14.4 16.3716 14.4 16.3698 14.4 16.368C14.4 16.3662 14.4 16.3644 14.4 16.3626C14.4 16.3607 14.4 16.3589 14.4 16.3571C14.4 16.3553 14.4 16.3535 14.4 16.3517C14.4 16.3499 14.4 16.348 14.4 16.3462C14.4 16.3444 14.4 16.3426 14.4 16.3408C14.4 16.339 14.4 16.3372 14.4 16.3354C14.4 16.3335 14.4 16.3317 14.4 16.3299C14.4 16.3281 14.4 16.3263 14.4 16.3245C14.4 16.3227 14.4 16.3209 14.4 16.3191C14.4 16.3173 14.4 16.3155 14.4 16.3136C14.4 16.3118 14.4 16.31 14.4 16.3082C14.4 16.3064 14.4 16.3046 14.4 16.3028C14.4 16.301 14.4 16.2992 14.4 16.2974C14.4 16.2956 14.4 16.2938 14.4 16.292C14.4 16.2902 14.4 16.2884 14.4 16.2866C14.4 16.2848 14.4 16.283 14.4 16.2812C14.4 16.2794 14.4 16.2776 14.4 16.2758C14.4 16.274 14.4 16.2722 14.4 16.2704C14.4 16.2686 14.4 16.2668 14.4 16.265C14.4 16.2632 14.4 16.2614 14.4 16.2596C14.4 16.2578 14.4 16.256 14.4 16.2542C14.4 16.2524 14.4 16.2506 14.4 16.2489C14.4 16.2471 14.4 16.2453 14.4 16.2435C14.4 16.2417 14.4 16.2399 14.4 16.2381C14.4 16.2363 14.4 16.2345 14.4 16.2327C14.4 16.231 14.4 16.2292 14.4 16.2274C14.4 16.2256 14.4 16.2238 14.4 16.222C14.4 16.2202 14.4 16.2184 14.4 16.2167C14.4 16.2149 14.4 16.2131 14.4 16.2113C14.4 16.2095 14.4 16.2077 14.4 16.206C14.4 16.2042 14.4 16.2024 14.4 16.2006C14.4 16.1988 14.4 16.1971 14.4 16.1953C14.4 16.1935 14.4 16.1917 14.4 16.1899C14.4 16.1882 14.4 16.1864 14.4 16.1846C14.4 16.1828 14.4 16.181 14.4 16.1793C14.4 16.1775 14.4 16.1757 14.4 16.1739C14.4 16.1722 14.4 16.1704 14.4 16.1686C14.4 16.1669 14.4 16.1651 14.4 16.1633C14.4 16.1615 14.4 16.1598 14.4 16.158C14.4 16.1562 14.4 16.1545 14.4 16.1527C14.4 16.1509 14.4 16.1492 14.4 16.1474C14.4 16.1456 14.4 16.1439 14.4 16.1421C14.4 16.1403 14.4 16.1386 14.4 16.1368C14.4 16.135 14.4 16.1333 14.4 16.1315C14.4 16.1297 14.4 16.128 14.4 16.1262C14.4 16.1245 14.4 16.1227 14.4 16.1209C14.4 16.1192 14.4 16.1174 14.4 16.1157C14.4 16.1139 14.4 16.1121 14.4 16.1104C14.4 16.1086 14.4 16.1069 14.4 16.1051C14.4 16.1034 14.4 16.1016 14.4 16.0999C14.4 16.0981 14.4 16.0963 14.4 16.0946C14.4 16.0928 14.4 16.0911 14.4 16.0893C14.4 16.0876 14.4 16.0858 14.4 16.0841C14.4 16.0823 14.4 16.0806 14.4 16.0788C14.4 16.0771 14.4 16.0754 14.4 16.0736C14.4 16.0719 14.4 16.0701 14.4 16.0684C14.4 16.0666 14.4 16.0649 14.4 16.0631C14.4 16.0614 14.4 16.0597 14.4 16.0579C14.4 16.0562 14.4 16.0544 14.4 16.0527C14.4 16.0509 14.4 16.0492 14.4 16.0475C14.4 16.0457 14.4 16.044 14.4 16.0423C14.4 16.0405 14.4 16.0388 14.4 16.0371C14.4 16.0353 14.4 16.0336 14.4 16.0319C14.4 16.0301 14.4 16.0284 14.4 16.0267C14.4 16.0249 14.4 16.0232 14.4 16.0215C14.4 16.0197 14.4 16.018 14.4 16.0163C14.4 16.0145 14.4 16.0128 14.4 16.0111C14.4 16.0094 14.4 16.0076 14.4 16.0059C14.4 16.0042 14.4 16.0025 14.4 16.0007C14.4 15.999 14.4 15.9973 14.4 15.9956C14.4 15.9939 14.4 15.9921 14.4 15.9904C14.4 15.9887 14.4 15.987 14.4 15.9853C14.4 15.9835 14.4 15.9818 14.4 15.9801C14.4 15.9784 14.4 15.9767 14.4 15.975C14.4 15.9732 14.4 15.9715 14.4 15.9698C14.4 15.9681 14.4 15.9664 14.4 15.9647C14.4 15.963 14.4 15.9613 14.4 15.9595C14.4 15.9578 14.4 15.9561 14.4 15.9544C14.4 15.9527 14.4 15.951 14.4 15.9493C14.4 15.9476 14.4 15.9459 14.4 15.9442C14.4 15.9425 14.4 15.9408 14.4 15.9391C14.4 15.9374 14.4 15.9357 14.4 15.934C14.4 15.9323 14.4 15.9306 14.4 15.9289C14.4 15.9272 14.4 15.9255 14.4 15.9238C14.4 15.9221 14.4 15.9204 14.4 15.9187C14.4 15.917 14.4 15.9153 14.4 15.9136C14.4 15.9119 14.4 15.9102 14.4 15.9085C14.4 15.9068 14.4 15.9051 14.4 15.9035C14.4 15.9018 14.4 15.9001 14.4 15.8984C14.4 15.8967 14.4 15.895 14.4 15.8933C14.4 15.8916 14.4 15.89 14.4 15.8883C14.4 15.8866 14.4 15.8849 14.4 15.8832C14.4 15.8815 14.4 15.8799 14.4 15.8782C14.4 15.8765 14.4 15.8748 14.4 15.8732C14.4 15.8715 14.4 15.8698 14.4 15.8681C14.4 15.8664 14.4 15.8648 14.4 15.8631C14.4 15.8614 14.4 15.8597 14.4 15.8581C14.4 15.8564 14.4 15.8547 14.4 15.8531C14.4 15.8514 14.4 15.8497 14.4 15.8481C14.4 15.8464 14.4 15.8447 14.4 15.8431C14.4 15.8414 14.4 15.8397 14.4 15.8381C14.4 15.8364 14.4 15.8347 14.4 15.8331C14.4 15.8314 14.4 15.8297 14.4 15.8281C14.4 15.8264 14.4 15.8248 14.4 15.8231C14.4 15.8214 14.4 15.8198 14.4 15.8181C14.4 15.8165 14.4 15.8148 14.4 15.8132C14.4 15.8115 14.4 15.8099 14.4 15.8082C14.4 15.8066 14.4 15.8049 14.4 15.8033C14.4 15.8016 14.4 15.8 14.4 15.7983C14.4 15.7967 14.4 15.795 14.4 15.7934C14.4 15.7917 14.4 15.7901 14.4 15.7884C14.4 15.7868 14.4 15.7852 14.4 15.7835C14.4 15.7819 14.4 15.7802 14.4 15.7786C14.4 15.7769 14.4 15.7753 14.4 15.7737C14.4 15.772 14.4 15.7704 14.4 15.7688C14.4 15.7671 14.4 15.7655 14.4 15.7639C14.4 15.7622 14.4 15.7606 14.4 15.759C14.4 15.7573 14.4 15.7557 14.4 15.7541C14.4 15.7524 14.4 15.7508 14.4 15.7492C14.4 15.7476 14.4 15.7459 14.4 15.7443C14.4 15.7427 14.4 15.7411 14.4 15.7394C14.4 15.7378 14.4 15.7362 14.4 15.7346C14.4 15.733 14.4 15.7313 14.4 15.7297C14.4 15.7281 14.4 15.7265 14.4 15.7249C14.4 15.7233 14.4 15.7216 14.4 15.72C14.4 15.7184 14.4 15.7168 14.4 15.7152C14.4 15.7136 14.4 15.712 14.4 15.7104C14.4 15.7088 14.4 15.7071 14.4 15.7055C14.4 15.7039 14.4 15.7023 14.4 15.7007C14.4 15.6991 14.4 15.6975 14.4 15.6959C14.4 15.6943 14.4 15.6927 14.4 15.6911C14.4 15.6895 14.4 15.6879 14.4 15.6863C14.4 15.6847 14.4 15.6831 14.4 15.6815C14.4 15.6799 14.4 15.6783 14.4 15.6767C14.4 15.6752 14.4 15.6736 14.4 15.672C14.4 15.6704 14.4 15.6688 14.4 15.6672C14.4 15.6656 14.4 15.664 14.4 15.6624C14.4 15.6609 14.4 15.6593 14.4 15.6577C14.4 15.6561 14.4 15.6545 14.4 15.6529C14.4 15.6514 14.4 15.6498 14.4 15.6482C14.4 15.6466 14.4 15.645 14.4 15.6435C14.4 15.6419 14.4 15.6403 14.4 15.6387C14.4 15.6372 14.4 15.6356 14.4 15.634C14.4 15.6324 14.4 15.6309 14.4 15.6293C14.4 15.6277 14.4 15.6262 14.4 15.6246C14.4 15.623 14.4 15.6215 14.4 15.6199C14.4 15.6183 14.4 15.6168 14.4 15.6152C14.4 15.6137 14.4 15.6121 14.4 15.6105C14.4 15.609 14.4 15.6074 14.4 15.6059C14.4 15.6043 14.4 15.6027 14.4 15.6012C14.4 15.5996 14.4 15.5981 14.4 15.5965C14.4 15.595 14.4 15.5934 14.4 15.5919C14.4 15.5903 14.4 15.5888 14.4 15.5872C14.4 15.5857 14.4 15.5841 14.4 15.5826C14.4 15.5811 14.4 15.5795 14.4 15.578C14.4 15.5764 14.4 15.5749 14.4 15.5733C14.4 15.5718 14.4 15.5703 14.4 15.5687C14.4 15.5672 14.4 15.5657 14.4 15.5641C14.4 15.5626 14.4 15.5611 14.4 15.5595C14.4 15.558 14.4 15.5565 14.4 15.5549C14.4 15.5534 14.4 15.5519 14.4 15.5503C14.4 15.5488 14.4 15.5473 14.4 15.5458C14.4 15.5442 14.4 15.5427 14.4 15.5412C14.4 15.5397 14.4 15.5382 14.4 15.5366C14.4 15.5351 14.4 15.5336 14.4 15.5321C14.4 15.5306 14.4 15.5291 14.4 15.5275C14.4 15.526 14.4 15.5245 14.4 15.523C14.4 15.5215 14.4 15.52 14.4 15.5185C14.4 15.517 14.4 15.5155 14.4 15.514C14.4 15.5124 14.4 15.5109 14.4 15.5094C14.4 15.5079 14.4 15.5064 14.4 15.5049C14.4 15.5034 14.4 15.5019 14.4 15.5004C14.4 15.4989 14.4 15.4974 14.4 15.4959C14.4 15.4944 14.4 15.493 14.4 15.4915C14.4 15.49 14.4 15.4885 14.4 15.487C14.4 15.4855 14.4 15.484 14.4 15.4825C14.4 15.481 14.4 15.4796 14.4 15.4781C14.4 15.4766 14.4 15.4751 14.4 15.4736C14.4 15.4721 14.4 15.4707 14.4 15.4692C14.4 15.4677 14.4 15.4662 14.4 15.4647C14.4 15.4633 14.4 15.4618 14.4 15.4603C14.4 15.4588 14.4 15.4574 14.4 15.4559C14.4 15.4544 14.4 15.453 14.4 15.4515C14.4 15.45 14.4 15.4486 14.4 15.4471C14.4 15.4456 14.4 15.4442 14.4 15.4427C14.4 15.4412 14.4 15.4398 14.4 15.4383C14.4 15.4369 14.4 15.4354 14.4 15.4339C14.4 15.4325 14.4 15.431 14.4 15.4296C14.4 15.4281 14.4 15.4267 14.4 15.4252C14.4 15.4238 14.4 15.4223 14.4 15.4209C14.4 15.4194 14.4 15.418 14.4 15.4165C14.4 15.4151 14.4 15.4136 14.4 15.4122C14.4 15.4108 14.4 15.4093 14.4 15.4079C14.4 15.4064 14.4 15.405 14.4 15.4036C14.4 15.4021 14.4 15.4007 14.4 15.3993H12.8ZM10 12.5999C11.5466 12.5999 12.8 13.853 12.8 15.3993H14.4C14.4 12.969 12.4299 10.9999 10 10.9999L10 12.5999ZM2.70002 15.3993C2.70002 13.8531 3.95345 12.5999 5.50002 12.5999L5.50002 10.9999C3.07015 10.9999 1.10002 12.9691 1.10002 15.3993H2.70002ZM15.2 6.99992V9.99992H16.8V6.99992H15.2ZM15.2 9.99992V12.9999H16.8V9.99992H15.2ZM13 10.7999H16V9.19992H13V10.7999ZM16 10.7999H19V9.19992H16V10.7999ZM10.55 5.4999C10.55 7.04647 9.2966 8.2999 7.75002 8.2999V9.8999C10.1803 9.8999 12.15 7.93013 12.15 5.4999H10.55ZM7.75002 8.2999C6.20345 8.2999 4.95002 7.04647 4.95002 5.4999H3.35002C3.35002 7.93013 5.3198 9.8999 7.75002 9.8999V8.2999ZM4.95002 5.4999C4.95002 3.95333 6.20345 2.6999 7.75002 2.6999V1.0999C5.3198 1.0999 3.35002 3.06967 3.35002 5.4999H4.95002ZM7.75002 2.6999C9.2966 2.6999 10.55 3.95333 10.55 5.4999H12.15C12.15 3.06967 10.1803 1.0999 7.75002 1.0999V2.6999Z" fill="#0D1D2C"/>
</svg>
