<svg width="20" height="20" viewBox="0 0 20 20" fill="none" xmlns="http://www.w3.org/2000/svg">
<path d="M18.4001 6.22V3.82C18.4001 3.15725 17.8628 2.62 17.2001 2.62H2.80007C2.13733 2.62 1.60007 3.15725 1.60007 3.82V6.22M18.4001 6.22V13.42C18.4001 14.0827 17.8628 14.62 17.2001 14.62M18.4001 6.22H1.60007M1.60007 6.22V13.42C1.60007 14.0827 2.13733 14.62 2.80007 14.62H5.04999M3.40007 11.02H8.28999M13.0001 11.02H16.6001M8.58863 17.98C7.62842 17.98 6.84999 17.2078 6.84999 16.2552C6.84999 15.3027 7.62842 14.5305 8.58863 14.5305C8.74863 14.5305 8.90354 14.5519 9.05065 14.592C9.0986 13.3733 10.1096 12.4 11.35 12.4C12.5904 12.4 13.6014 13.3733 13.6493 14.592C13.688 14.5815 13.7272 14.5722 13.7669 14.5643C13.8782 14.5421 13.9934 14.5305 14.1114 14.5305C15.0716 14.5305 15.85 15.3027 15.85 16.2552C15.85 17.2078 15.0716 17.98 14.1114 17.98H8.58863Z" stroke="#0D1D2C" stroke-width="1.6"/>
</svg>
