<svg width="20" height="20" viewBox="0 0 20 20" fill="none" xmlns="http://www.w3.org/2000/svg">
<path d="M10 5.0499L10.653 4.58768L10 3.66529L9.34704 4.58768L10 5.0499ZM11.2908 6.8733L10.6378 7.33552L10.7943 7.55661L11.0529 7.63713L11.2908 6.8733ZM13.4238 7.53744L14.0652 8.0156L14.7406 7.10957L13.6616 6.77361L13.4238 7.53744ZM12.0885 9.3285L11.4471 8.85034L11.2852 9.0675L11.2886 9.33835L12.0885 9.3285ZM12.116 11.5624L11.8595 12.3201L12.9299 12.6825L12.916 11.5525L12.116 11.5624ZM10 10.8459L10.2566 10.0882L10 10.0013L9.74344 10.0882L10 10.8459ZM7.88397 11.5624L7.08403 11.5525L7.07012 12.6825L8.14054 12.3201L7.88397 11.5624ZM7.91148 9.3285L8.71142 9.33835L8.71475 9.0675L8.55285 8.85034L7.91148 9.3285ZM6.5762 7.53744L6.33837 6.77361L5.25935 7.10957L5.93482 8.0156L6.5762 7.53744ZM8.70922 6.8733L8.94705 7.63713L9.20567 7.55661L9.36218 7.33552L8.70922 6.8733ZM13.5997 17.3643L12.7997 17.3642V17.3643H13.5997ZM12.6487 18.0413L12.3935 18.7995L12.3935 18.7995L12.6487 18.0413ZM10.344 17.2657L10.5992 16.5075L10.5992 16.5075L10.344 17.2657ZM9.89536 17.2613L10.1356 18.0244L10.1356 18.0244L9.89536 17.2613ZM7.33812 18.0663L7.0979 17.3032L7.0979 17.3032L7.33812 18.0663ZM6.43432 17.6009L5.67222 17.8442L5.67222 17.8442L6.43432 17.6009ZM6.40066 17.3849L7.20066 17.3849L7.20066 17.3847L6.40066 17.3849ZM15.95 8.6499C15.95 11.936 13.2861 14.5999 10 14.5999V16.1999C14.1697 16.1999 17.55 12.8197 17.55 8.6499H15.95ZM10 14.5999C6.71391 14.5999 4.05 11.936 4.05 8.6499H2.45C2.45 12.8197 5.83025 16.1999 10 16.1999V14.5999ZM4.05 8.6499C4.05 5.36381 6.71391 2.6999 10 2.6999V1.0999C5.83025 1.0999 2.45 4.48015 2.45 8.6499H4.05ZM10 2.6999C13.2861 2.6999 15.95 5.36381 15.95 8.6499H17.55C17.55 4.48015 14.1697 1.0999 10 1.0999V2.6999ZM9.34704 5.51213L10.6378 7.33552L11.9437 6.41108L10.653 4.58768L9.34704 5.51213ZM11.0529 7.63713L13.186 8.30127L13.6616 6.77361L11.5286 6.10947L11.0529 7.63713ZM12.7824 7.05928L11.4471 8.85034L12.7299 9.80666L14.0652 8.0156L12.7824 7.05928ZM11.2886 9.33835L11.3161 11.5722L12.916 11.5525L12.8885 9.31865L11.2886 9.33835ZM12.3726 10.8046L10.2566 10.0882L9.74344 11.6036L11.8595 12.3201L12.3726 10.8046ZM9.74344 10.0882L7.62741 10.8046L8.14054 12.3201L10.2566 11.6036L9.74344 10.0882ZM8.68391 11.5722L8.71142 9.33835L7.11154 9.31865L7.08403 11.5525L8.68391 11.5722ZM8.55285 8.85034L7.21757 7.05928L5.93482 8.0156L7.2701 9.80666L8.55285 8.85034ZM6.81402 8.30127L8.94705 7.63713L8.4714 6.10947L6.33837 6.77361L6.81402 8.30127ZM9.36218 7.33552L10.653 5.51213L9.34704 4.58768L8.05627 6.41108L9.36218 7.33552ZM12.8 14.4998L12.7997 17.3642L14.3997 17.3644L14.4 14.5L12.8 14.4998ZM12.7997 17.3643C12.7997 17.312 12.8409 17.2792 12.8798 17.2792V18.8792C13.7139 18.8792 14.3997 18.2063 14.3997 17.3643H12.7997ZM12.8798 17.2792C12.8879 17.2792 12.896 17.2805 12.9039 17.2831L12.3935 18.7995C12.5502 18.8523 12.7145 18.8792 12.8798 18.8792V17.2792ZM12.9039 17.2831L10.5992 16.5075L10.0888 18.0239L12.3935 18.7995L12.9039 17.2831ZM10.5992 16.5075C10.2935 16.4046 9.96282 16.4013 9.65514 16.4982L10.1356 18.0244C10.1203 18.0292 10.104 18.029 10.0888 18.0239L10.5992 16.5075ZM9.65514 16.4982L7.0979 17.3032L7.57833 18.8294L10.1356 18.0244L9.65514 16.4982ZM7.0979 17.3032C7.13499 17.2915 7.18126 17.3101 7.19641 17.3576L5.67222 17.8442C5.92768 18.6444 6.78324 19.0797 7.57833 18.8294L7.0979 17.3032ZM7.19641 17.3576C7.19921 17.3663 7.20066 17.3755 7.20066 17.3849H5.60066C5.60066 17.5408 5.62481 17.6957 5.67222 17.8442L7.19641 17.3576ZM7.20066 17.3847L7.2 14.503L5.6 14.5033L5.60066 17.3851L7.20066 17.3847Z" fill="#0D1D2C"/>
</svg>
