<svg width="14" height="12" viewBox="0 0 14 12" fill="none" xmlns="http://www.w3.org/2000/svg">
<path d="M1.40002 6L0.657242 5.70289C0.580952 5.89362 0.580952 6.10638 0.657242 6.29711L1.40002 6ZM12.6 6L13.3428 6.29711C13.4191 6.10638 13.4191 5.89362 13.3428 5.70289L12.6 6ZM7.00001 9.2C5.29759 9.2 4.09781 8.35723 3.29465 7.46483C2.89252 7.01801 2.60001 6.56847 2.40854 6.23059C2.31326 6.06245 2.24425 5.92417 2.20021 5.83074C2.17822 5.78409 2.16254 5.74883 2.15301 5.72684C2.14825 5.71585 2.14504 5.7082 2.14334 5.70412C2.14249 5.70209 2.14203 5.70094 2.14194 5.70073C2.14189 5.70062 2.14194 5.70074 2.14209 5.7011C2.14216 5.70128 2.14226 5.70152 2.14238 5.70182C2.14244 5.70197 2.14254 5.70223 2.14257 5.70231C2.14269 5.70259 2.14281 5.70289 1.40002 6C0.657242 6.29711 0.657374 6.29744 0.657511 6.29778C0.657566 6.29792 0.65771 6.29828 0.657818 6.29855C0.658036 6.29909 0.658279 6.29969 0.658547 6.30035C0.659083 6.30168 0.659721 6.30326 0.660462 6.30507C0.661942 6.3087 0.663831 6.3133 0.666133 6.31883C0.670736 6.32989 0.67699 6.3447 0.684924 6.36301C0.700787 6.39961 0.723394 6.45028 0.752965 6.51301C0.812047 6.63834 0.899286 6.81255 1.0165 7.01941C1.25004 7.43153 1.60752 7.98199 2.10538 8.53517C3.10222 9.64277 4.70243 10.8 7.00001 10.8V9.2ZM1.40002 6C2.14281 6.29711 2.14269 6.29741 2.14257 6.29769C2.14254 6.29777 2.14244 6.29803 2.14238 6.29818C2.14226 6.29848 2.14216 6.29872 2.14209 6.2989C2.14194 6.29926 2.14189 6.29938 2.14194 6.29927C2.14203 6.29906 2.14249 6.29791 2.14334 6.29588C2.14504 6.2918 2.14825 6.28415 2.15301 6.27316C2.16254 6.25117 2.17822 6.21591 2.20021 6.16926C2.24425 6.07584 2.31326 5.93755 2.40854 5.76941C2.60001 5.43153 2.89252 4.98199 3.29465 4.53517C4.09781 3.64277 5.29759 2.8 7.00001 2.8V1.2C4.70243 1.2 3.10222 2.35723 2.10538 3.46483C1.60752 4.01801 1.25004 4.56847 1.0165 4.98059C0.899286 5.18745 0.812047 5.36167 0.752965 5.48699C0.723394 5.54972 0.700787 5.60039 0.684924 5.63699C0.67699 5.6553 0.670736 5.67011 0.666133 5.68117C0.663831 5.6867 0.661942 5.6913 0.660462 5.69493C0.659721 5.69674 0.659083 5.69832 0.658547 5.69965C0.658279 5.70031 0.658036 5.70091 0.657818 5.70145C0.65771 5.70172 0.657566 5.70208 0.657511 5.70222C0.657374 5.70256 0.657242 5.70289 1.40002 6ZM7.00001 2.8C8.70243 2.8 9.90222 3.64277 10.7054 4.53517C11.1075 4.982 11.4 5.43153 11.5915 5.76941C11.6868 5.93756 11.7558 6.07584 11.7998 6.16926C11.8218 6.21591 11.8375 6.25118 11.847 6.27317C11.8518 6.28415 11.855 6.29181 11.8567 6.29588C11.8576 6.29792 11.858 6.29906 11.8581 6.29928C11.8582 6.29938 11.8581 6.29926 11.858 6.2989C11.8579 6.29872 11.8578 6.29848 11.8577 6.29819C11.8576 6.29804 11.8575 6.29777 11.8575 6.2977C11.8574 6.29741 11.8572 6.29711 12.6 6C13.3428 5.70289 13.3427 5.70256 13.3425 5.70221C13.3425 5.70208 13.3423 5.70172 13.3422 5.70145C13.342 5.70091 13.3418 5.7003 13.3415 5.69964C13.341 5.69831 13.3403 5.69674 13.3396 5.69493C13.3381 5.6913 13.3362 5.6867 13.3339 5.68117C13.3293 5.67011 13.3231 5.6553 13.3151 5.63699C13.2993 5.60038 13.2767 5.54971 13.2471 5.48699C13.188 5.36166 13.1008 5.18744 12.9835 4.98059C12.75 4.56847 12.3925 4.018 11.8947 3.46483C10.8978 2.35723 9.29759 1.2 7.00001 1.2V2.8ZM12.6 6C11.8572 5.70289 11.8574 5.70259 11.8575 5.70231C11.8575 5.70223 11.8576 5.70196 11.8577 5.70181C11.8578 5.70152 11.8579 5.70128 11.858 5.7011C11.8581 5.70074 11.8582 5.70062 11.8581 5.70072C11.858 5.70094 11.8576 5.70208 11.8567 5.70412C11.855 5.70819 11.8518 5.71585 11.847 5.72683C11.8375 5.74882 11.8218 5.78409 11.7998 5.83074C11.7558 5.92416 11.6868 6.06244 11.5915 6.23059C11.4 6.56847 11.1075 7.018 10.7054 7.46483C9.90222 8.35723 8.70243 9.2 7.00001 9.2V10.8C9.29759 10.8 10.8978 9.64277 11.8947 8.53517C12.3925 7.982 12.75 7.43153 12.9835 7.01941C13.1008 6.81256 13.188 6.63834 13.2471 6.51301C13.2767 6.45029 13.2993 6.39962 13.3151 6.36301C13.3231 6.3447 13.3293 6.32989 13.3339 6.31883C13.3362 6.3133 13.3381 6.3087 13.3396 6.30507C13.3403 6.30326 13.341 6.30169 13.3415 6.30036C13.3418 6.2997 13.342 6.29909 13.3422 6.29855C13.3423 6.29828 13.3425 6.29792 13.3425 6.29779C13.3427 6.29744 13.3428 6.29711 12.6 6ZM7.00002 6.8C6.5582 6.8 6.20002 6.44183 6.20002 6H4.60002C4.60002 7.32548 5.67454 8.4 7.00002 8.4V6.8ZM7.80002 6C7.80002 6.44183 7.44185 6.8 7.00002 6.8V8.4C8.32551 8.4 9.40002 7.32548 9.40002 6H7.80002ZM7.00002 5.2C7.44185 5.2 7.80002 5.55817 7.80002 6H9.40002C9.40002 4.67452 8.32551 3.6 7.00002 3.6V5.2ZM7.00002 3.6C5.67454 3.6 4.60002 4.67452 4.60002 6H6.20002C6.20002 5.55817 6.5582 5.2 7.00002 5.2V3.6Z" fill="#0D1D2C"/>
</svg>
